<svg width="18" height="18" viewBox="0 0 18 18" fill="none" xmlns="http://www.w3.org/2000/svg">
    <path opacity="0.25"
          d="M9 10.9374C8.8416 10.9374 8.6868 10.8968 8.55 10.82L0.449962 6.23131C0.313155 6.15382 0.199551 6.04239 0.120566 5.90819C0.0415815 5.774 0 5.62177 0 5.46682C0 5.31187 0.0415815 5.15965 0.120566 5.02545C0.199551 4.89126 0.313155 4.77982 0.449962 4.70234L8.55 0.117189C8.829 -0.0390629 9.171 -0.0390629 9.45 0.117189L17.55 4.70234C17.6868 4.77982 17.8004 4.89126 17.8794 5.02545C17.9584 5.15965 18 5.31187 18 5.46682C18 5.62177 17.9584 5.774 17.8794 5.90819C17.8004 6.04239 17.6868 6.15382 17.55 6.23131L9.45 10.82C9.31307 10.8971 9.15789 10.9376 9 10.9374Z"
          fill="url(#paint0_linear_472_12947)"/>
    <path opacity="0.5"
          d="M17.55 8.233L15.7824 7.23193L9.45 10.8195C9.171 10.9767 8.829 10.9767 8.55 10.8195L2.21757 7.23193L0.449962 8.233C0.313155 8.31049 0.199551 8.42193 0.120566 8.55612C0.0415815 8.69031 0 8.84254 0 8.99749C0 9.15244 0.0415815 9.30466 0.120566 9.43886C0.199551 9.57305 0.313155 9.68449 0.449962 9.76198L8.55 14.3507C8.829 14.5078 9.171 14.5078 9.45 14.3507L17.55 9.76198C17.6868 9.68449 17.8004 9.57305 17.8794 9.43886C17.9584 9.30466 18 9.15244 18 8.99749C18 8.84254 17.9584 8.69031 17.8794 8.55612C17.8004 8.42193 17.6868 8.31049 17.55 8.233Z"
          fill="url(#paint1_linear_472_12947)"/>
    <path d="M17.55 11.7645L15.7824 10.7634L9.45 14.351C9.171 14.5082 8.829 14.5082 8.55 14.351L2.21757 10.7634L0.449962 11.7645C0.313155 11.842 0.199551 11.9534 0.120566 12.0876C0.0415815 12.2218 0 12.374 0 12.529C0 12.6839 0.0415815 12.8362 0.120566 12.9704C0.199551 13.1045 0.313155 13.216 0.449962 13.2935L8.55 17.8821C8.829 18.0393 9.171 18.0393 9.45 17.8821L17.55 13.2935C17.6868 13.216 17.8004 13.1045 17.8794 12.9704C17.9584 12.8362 18 12.6839 18 12.529C18 12.374 17.9584 12.2218 17.8794 12.0876C17.8004 11.9534 17.6868 11.842 17.55 11.7645Z"
          fill="url(#paint2_linear_472_12947)"/>
    <defs>
        <linearGradient id="paint0_linear_472_12947" x1="1.47962" y1="0.991436" x2="13.6108" y2="14.4006"
                        gradientUnits="userSpaceOnUse">
            <stop stop-color="#FAC01E"/>
            <stop offset="0.869792" stop-color="#FC762A"/>
        </linearGradient>
        <linearGradient id="paint1_linear_472_12947" x1="1.47962" y1="7.8879" x2="8.58938" y2="19.7656"
                        gradientUnits="userSpaceOnUse">
            <stop stop-color="#FAC01E"/>
            <stop offset="0.869792" stop-color="#FC762A"/>
        </linearGradient>
        <linearGradient id="paint2_linear_472_12947" x1="1.47962" y1="11.4194" x2="8.58937" y2="23.2971"
                        gradientUnits="userSpaceOnUse">
            <stop stop-color="#FAC01E"/>
            <stop offset="0.869792" stop-color="#FC762A"/>
        </linearGradient>
    </defs>
</svg>
