<svg width="25" height="26" viewBox="0 0 25 26" fill="none" xmlns="http://www.w3.org/2000/svg">
    <path d="M10.9525 3.53605C11.8026 2.37828 13.589 2.37828 14.4391 3.53605C14.9846 4.27897 15.9739 4.58795 16.8695 4.29511C18.2653 3.83876 19.7105 4.84802 19.6903 6.26497C19.6773 7.17422 20.2887 7.98312 21.1923 8.25223C22.6006 8.6716 23.1526 10.3046 22.2698 11.4395C21.7033 12.1678 21.7033 13.1677 22.2698 13.8959C23.1526 15.0308 22.6006 16.6638 21.1923 17.0832C20.2887 17.3523 19.6773 18.1612 19.6903 19.0705C19.7105 20.4874 18.2653 21.4967 16.8695 21.0403C15.9739 20.7475 14.9846 21.0565 14.4391 21.7994C13.589 22.9572 11.8026 22.9572 10.9525 21.7994C10.407 21.0565 9.41769 20.7475 8.52206 21.0403C7.12632 21.4967 5.68113 20.4874 5.70135 19.0705C5.71433 18.1612 5.10291 17.3523 4.19926 17.0832C2.79102 16.6638 2.239 15.0308 3.12184 13.8959C3.68835 13.1677 3.68835 12.1678 3.12184 11.4395C2.239 10.3046 2.79102 8.6716 4.19926 8.25223C5.10291 7.98312 5.71433 7.17422 5.70135 6.26497C5.68113 4.84802 7.12632 3.83876 8.52206 4.29511C9.41769 4.58795 10.407 4.27897 10.9525 3.53605Z"
          fill="#2F80ED"/>
    <path d="M15.9169 9.87734C16.0647 9.74141 16.2613 9.66625 16.4653 9.66775C16.6693 9.66924 16.8647 9.74726 17.0103 9.88534C17.1559 10.0234 17.2403 10.2108 17.2457 10.4078C17.2511 10.6049 17.177 10.7963 17.0392 10.9416L12.8542 15.9995C12.7823 16.0744 12.6954 16.1345 12.5989 16.1763C12.5023 16.218 12.398 16.2405 12.2923 16.2424C12.1866 16.2443 12.0815 16.2255 11.9834 16.1873C11.8853 16.149 11.7962 16.0921 11.7215 16.0198L8.94617 13.3378C8.86889 13.2682 8.8069 13.1843 8.7639 13.091C8.72091 12.9978 8.69779 12.8971 8.69592 12.795C8.69406 12.693 8.71349 12.5916 8.75305 12.4969C8.79262 12.4023 8.85151 12.3163 8.9262 12.2441C9.0009 12.1719 9.08988 12.115 9.18783 12.0767C9.28578 12.0385 9.3907 12.0197 9.49632 12.0215C9.60195 12.0233 9.70611 12.0457 9.80261 12.0872C9.8991 12.1288 9.98595 12.1887 10.058 12.2634L12.2543 14.3849L15.897 9.89964C15.9035 9.89184 15.9105 9.88439 15.918 9.87734H15.9169Z"
          fill="black"/>
</svg>
