<svg width="91" height="54" viewBox="0 0 91 54" fill="none" xmlns="http://www.w3.org/2000/svg">
    <g clip-path="url(#clip0_415_10911)">
        <path d="M26.2579 19.7009C26.2579 20.7987 26.3763 21.6888 26.5835 22.3416C26.8204 22.9943 27.1164 23.7064 27.5309 24.4778C27.6789 24.7152 27.7381 24.9525 27.7381 25.1602C27.7381 25.4569 27.5605 25.7536 27.1756 26.0504L25.3105 27.2965C25.0441 27.4745 24.7776 27.5635 24.5408 27.5635C24.2447 27.5635 23.9487 27.4152 23.6526 27.1482C23.2381 26.7031 22.8829 26.2284 22.5868 25.7536C22.2908 25.2493 21.9947 24.6855 21.6691 24.0031C19.3598 26.7328 16.4585 28.0976 12.9651 28.0976C10.4783 28.0976 8.49472 27.3855 7.04406 25.9613C5.5934 24.5372 4.85327 22.6383 4.85327 20.2646C4.85327 17.7427 5.74143 15.6954 7.54735 14.1525C9.35327 12.6097 11.7513 11.8383 14.8006 11.8383C15.8072 11.8383 16.8434 11.9273 17.9388 12.0756C19.0342 12.224 20.1592 12.4613 21.3434 12.7284V10.5624C21.3434 8.30749 20.8697 6.73496 19.952 5.81518C19.0046 4.8954 17.4059 4.45035 15.1263 4.45035C14.0901 4.45035 13.0243 4.56903 11.9289 4.83606C10.8335 5.10309 9.76775 5.42947 8.73156 5.84485C8.25788 6.05255 7.90261 6.17123 7.69538 6.23057C7.48814 6.28991 7.34011 6.31958 7.22169 6.31958C6.80722 6.31958 6.59998 6.02288 6.59998 5.3998V3.94595C6.59998 3.47123 6.65919 3.11518 6.80722 2.90749C6.95525 2.6998 7.22169 2.49211 7.63617 2.28441C8.67235 1.75035 9.91577 1.30529 11.3664 0.949249C12.8171 0.563535 14.3566 0.385513 15.9848 0.385513C19.5079 0.385513 22.0835 1.18661 23.7414 2.78881C25.3697 4.39101 26.1987 6.82397 26.1987 10.0877V19.7009H26.2579ZM14.2381 24.2108C15.2151 24.2108 16.2217 24.0328 17.2875 23.6767C18.3533 23.3207 19.3006 22.6679 20.1 21.7778C20.5737 21.2141 20.9289 20.591 21.1066 19.8789C21.2842 19.1668 21.4026 18.3064 21.4026 17.2976V16.0514C20.5441 15.8438 19.6263 15.6657 18.6789 15.5471C17.7316 15.4284 16.8138 15.369 15.896 15.369C13.9125 15.369 12.4618 15.7547 11.4848 16.5558C10.5079 17.3569 10.0342 18.4844 10.0342 19.9679C10.0342 21.3624 10.3895 22.4009 11.1296 23.113C11.8401 23.8547 12.8763 24.2108 14.2381 24.2108ZM38.0112 27.4152C37.4783 27.4152 37.123 27.3262 36.8862 27.1185C36.6493 26.9405 36.4421 26.5251 36.2645 25.9613L29.3072 3.02617C29.1296 2.43277 29.0408 2.04705 29.0408 1.83936C29.0408 1.36463 29.2776 1.0976 29.7513 1.0976H32.6526C33.2151 1.0976 33.6 1.18661 33.8072 1.3943C34.0441 1.57233 34.2217 1.98771 34.3993 2.55145L39.373 22.1932L43.9914 2.55145C44.1395 1.95804 44.3171 1.57233 44.5539 1.3943C44.7908 1.21628 45.2052 1.0976 45.7381 1.0976H48.1066C48.6691 1.0976 49.0539 1.18661 49.2908 1.3943C49.5276 1.57233 49.7348 1.98771 49.8533 2.55145L54.5309 22.4306L59.6526 2.55145C59.8302 1.95804 60.0375 1.57233 60.2447 1.3943C60.4816 1.21628 60.8664 1.0976 61.3993 1.0976H64.1526C64.6263 1.0976 64.8927 1.33496 64.8927 1.83936C64.8927 1.98771 64.8631 2.13606 64.8335 2.31408C64.8039 2.49211 64.7447 2.72947 64.6263 3.05584L57.4914 25.991C57.3138 26.5844 57.1066 26.9701 56.8697 27.1482C56.6329 27.3262 56.248 27.4449 55.7447 27.4449H53.1987C52.6362 27.4449 52.2513 27.3558 52.0144 27.1482C51.7776 26.9405 51.5704 26.5547 51.452 25.9613L46.8631 6.82397L42.3039 25.9317C42.1559 26.5251 41.9783 26.9108 41.7414 27.1185C41.5046 27.3262 41.0901 27.4152 40.5572 27.4152H38.0112ZM76.0539 28.2163C74.5145 28.2163 72.975 28.0383 71.4947 27.6822C70.0145 27.3262 68.8598 26.9405 68.0901 26.4954C67.6164 26.2284 67.2908 25.9317 67.1723 25.6646C67.0539 25.3976 66.9947 25.1009 66.9947 24.8339V23.3207C66.9947 22.6976 67.2316 22.4009 67.6756 22.4009C67.8533 22.4009 68.0309 22.4306 68.2085 22.4899C68.3862 22.5493 68.6526 22.6679 68.9487 22.7866C69.9552 23.2317 71.0506 23.5877 72.2052 23.8251C73.3895 24.0624 74.5441 24.1811 75.7283 24.1811C77.5934 24.1811 79.0441 23.8547 80.0506 23.202C81.0572 22.5492 81.5901 21.5998 81.5901 20.3833C81.5901 19.5525 81.3237 18.8701 80.7908 18.3064C80.2579 17.7427 79.2513 17.2383 77.8006 16.7635L73.5079 15.4284C71.3467 14.746 69.748 13.7372 68.771 12.402C67.7941 11.0965 67.2908 9.64266 67.2908 8.0998C67.2908 6.85364 67.5572 5.75584 68.0901 4.80639C68.623 3.85694 69.3335 3.02617 70.2217 2.37342C71.1098 1.69101 72.1164 1.18661 73.3006 0.830567C74.4848 0.474523 75.7283 0.326172 77.0309 0.326172C77.6822 0.326172 78.3631 0.355842 79.0145 0.444853C79.6954 0.533864 80.3171 0.652545 80.9388 0.771227C81.5309 0.919578 82.0934 1.06793 82.6263 1.24595C83.1592 1.42397 83.5737 1.602 83.8697 1.78002C84.2842 2.01738 84.5802 2.25474 84.7579 2.52178C84.9355 2.75914 85.0243 3.08551 85.0243 3.5009V4.8954C85.0243 5.51848 84.7875 5.84485 84.3434 5.84485C84.1066 5.84485 83.7217 5.72617 83.2184 5.48881C81.5309 4.71738 79.6362 4.33167 77.5342 4.33167C75.8467 4.33167 74.5145 4.5987 73.5967 5.16244C72.6789 5.72617 72.2052 6.58661 72.2052 7.80309C72.2052 8.63386 72.5013 9.34595 73.0934 9.90969C73.6855 10.4734 74.7809 11.0372 76.35 11.5416L80.5539 12.8767C82.6855 13.5591 84.225 14.5086 85.1427 15.7251C86.0605 16.9416 86.5046 18.3361 86.5046 19.8789C86.5046 21.1547 86.2381 22.3119 85.7348 23.3207C85.2019 24.3295 84.4914 25.2196 83.5737 25.9317C82.6559 26.6734 81.5605 27.2075 80.2875 27.5932C78.9552 28.0086 77.5638 28.2163 76.0539 28.2163Z"
              fill="white"/>
        <path fill-rule="evenodd" clip-rule="evenodd"
              d="M81.6494 42.6363C71.9093 49.8461 57.758 53.6736 45.5902 53.6736C28.5376 53.6736 13.1725 47.3538 1.5672 36.8505C0.649436 36.0198 1.47838 34.8923 2.57378 35.545C15.1264 42.8439 30.61 47.2648 46.6264 47.2648C57.4323 47.2648 69.304 45.0099 80.2284 40.3813C81.8567 39.6396 83.2481 41.4494 81.6494 42.6363Z"
              fill="#FF9900"/>
        <path fill-rule="evenodd" clip-rule="evenodd"
              d="M85.7052 38.0077C84.4618 36.4055 77.475 37.2362 74.3072 37.6219C73.3598 37.7406 73.2118 36.9098 74.0704 36.2868C79.6362 32.3703 88.7842 33.4978 89.85 34.8033C90.9158 36.1384 89.5539 45.3066 84.3434 49.6978C83.5441 50.3802 82.7743 50.0241 83.1296 49.134C84.3138 46.1967 86.9487 39.5802 85.7052 38.0077Z"
              fill="#FF9900"/>
    </g>
    <defs>
        <clipPath id="clip0_415_10911">
            <rect width="90" height="54" fill="white" transform="translate(0.678955)"/>
        </clipPath>
    </defs>
</svg>
