<svg width="192" height="50" viewBox="0 0 192 50" fill="none" xmlns="http://www.w3.org/2000/svg">
<g clip-path="url(#clip0_405_10809)">
<path d="M1.75003 0.739796C2.46003 0.454796 3.19003 0.204796 3.96503 0.289796C10.635 0.339796 17.305 0.239796 23.97 0.334796C27.04 0.874796 27.675 4.4298 29.35 6.5698C28.35 7.3948 27.195 8.0448 25.85 7.9198C25.34 6.8348 25.05 5.5248 24.015 4.7948C18.1 4.6448 12.18 4.8148 6.26003 4.7148C6.07503 9.1598 6.24003 13.6198 6.18503 18.0698C5.04003 19.2848 3.24003 19.7548 1.76503 20.5348C1.72503 13.9348 1.75503 7.3398 1.75003 0.739796Z" fill="white"/>
<path d="M42.7751 10.8498C48.5051 10.8898 54.2351 10.7798 59.9651 10.8998C61.5701 12.0348 62.8501 13.5548 64.2601 14.9098C64.2301 17.3148 64.2101 19.7248 64.2751 22.1298C63.4901 23.1448 61.9051 23.9648 62.3101 25.4698C63.1401 26.6998 64.3551 27.5848 65.3001 28.7098C65.4551 31.2048 65.5501 33.7848 65.2601 36.2598C63.8751 37.7898 62.2651 39.1048 60.9201 40.6748C54.8701 40.7398 48.8251 40.6898 42.7751 40.6998C42.7601 32.9498 42.7251 25.1998 42.7901 17.4548C43.5751 16.2098 45.2501 16.8098 46.4751 16.8098C46.6401 16.9898 46.9701 17.3548 47.1301 17.5348C47.2901 19.5448 47.1501 21.5648 47.2051 23.5798C50.6401 23.7848 54.0851 23.6348 57.5251 23.6748C58.4451 23.8248 59.2501 23.2598 59.7451 22.5248C59.9151 20.3448 59.8501 18.1448 59.8151 15.9598C59.8901 15.2198 59.2301 14.7348 58.8751 14.1698C53.9301 14.0748 48.9801 14.1998 44.0351 14.1098C43.7101 13.9848 43.0651 13.7448 42.7451 13.6198C42.7551 12.6948 42.7651 11.7748 42.7751 10.8498ZM47.2901 27.3098C47.2401 30.4448 47.2201 33.5798 47.3001 36.7148C51.4001 36.9298 55.5101 36.7598 59.6101 36.8098C60.1651 36.0848 60.7651 35.3748 61.1251 34.5198C61.1951 32.8398 61.1901 31.1498 61.1301 29.4648C60.5501 28.3098 59.5051 26.9648 58.0401 27.2198C54.4551 27.2698 50.8701 27.1348 47.2901 27.3098Z" fill="white"/>
<path d="M71.745 10.8447C72.845 11.0647 74.47 10.2747 75.145 11.4847C75.165 21.2097 75.14 30.9397 75.155 40.6647C74.015 40.6947 72.875 40.7048 71.735 40.7048C71.735 30.7497 71.715 20.7997 71.745 10.8447Z" fill="white"/>
<path d="M130.63 10.8698C131.85 10.8498 133.07 10.8398 134.29 10.8398C134.305 20.2448 134.37 29.6548 134.26 39.0598C126.925 32.1298 119.96 24.8148 112.75 17.7548C110.895 16.4148 111.865 13.8948 111.735 11.9748C117.61 17.6798 123.32 23.5598 129.15 29.3148C129.49 29.3198 130.165 29.3348 130.505 29.3398C130.79 23.1898 130.545 17.0248 130.63 10.8698Z" fill="white"/>
<path d="M146.85 10.8846C149.835 10.8446 152.825 10.7996 155.81 10.9046C155.765 19.0646 155.85 27.2246 155.775 35.3796C154.495 37.3996 152.76 39.0696 151.045 40.7146C148.7 40.6896 146.355 40.7146 144.015 40.6946C142.31 38.9196 140.475 37.2796 138.79 35.4896C138.79 33.8246 138.775 32.1596 138.82 30.4946C140.08 30.3796 141.345 30.3846 142.605 30.4596C142.665 31.8846 142.485 33.3346 142.76 34.7446C143.405 35.4546 144.115 36.1096 144.74 36.8446C146.42 36.8746 148.1 36.8846 149.785 36.8246C150.425 36.1096 151.105 35.4246 151.82 34.7846C151.865 27.9096 151.82 21.0346 151.845 14.1596C150.57 14.1396 149.29 14.1846 148.015 14.1096C146.52 13.7746 146.87 12.0146 146.85 10.8846Z" fill="white"/>
<path d="M172.21 10.91C178.52 10.775 184.835 10.88 191.15 10.86C191.16 11.945 191.175 13.035 191.2 14.12C184.875 14.305 178.54 14.15 172.215 14.2C172.22 13.105 172.215 12.01 172.21 10.91Z" fill="white"/>
<path d="M172.22 17.2846C173.455 17.2896 174.695 17.2846 175.93 17.2646C176.23 19.5546 176.04 21.8746 176.11 24.1796C180.14 24.2546 184.17 24.1796 188.2 24.2246C188.755 25.2346 188.895 26.4096 188.19 27.3896C184.19 27.3896 180.185 27.4196 176.185 27.3796C176.005 30.5346 176.115 33.6996 176.105 36.8596C180.415 36.8696 184.725 36.8547 189.035 36.8596C189.81 36.7896 190.505 37.1596 191.2 37.4496C191.195 38.5796 191.275 39.7596 190.57 40.7246C184.885 40.6596 179.2 40.7547 173.515 40.6796C173.195 40.5646 172.56 40.3347 172.24 40.2146C172.195 32.5746 172.235 24.9296 172.22 17.2846Z" fill="white"/>
<path d="M111.64 40.6499C111.78 34.4349 111.485 28.2099 111.79 22.0049C113.015 23.1749 114.27 24.3399 115.235 25.7399C115.365 30.4199 115.3 35.1099 115.265 39.7949C114.67 41.2649 112.855 40.5699 111.64 40.6499Z" fill="white"/>
<path d="M1.76509 29.3149C3.26009 29.9749 4.72509 30.7049 6.20009 31.4149C6.17009 35.9699 6.17509 40.5249 6.20009 45.0849C11.4751 45.2449 16.7551 45.0949 22.0301 45.1599C22.8951 45.1149 23.9451 45.3399 24.5601 44.5599C25.1601 43.6599 25.5401 42.6399 25.9601 41.6549C27.2701 41.7849 28.5101 42.3999 29.3551 43.4249C27.9201 45.2449 27.0951 47.4699 25.5001 49.1649C17.5901 49.1799 9.68509 49.1649 1.78009 49.1749C1.71509 42.5549 1.74509 35.9349 1.76509 29.3149Z" fill="white"/>
<path d="M3.15991 24.6849C12.5549 20.0949 21.7049 14.9999 31.1549 10.5249C31.1349 20.1399 31.1299 29.7549 31.1549 39.3699C29.6349 38.6599 28.1599 37.8599 26.6799 37.0749C26.6799 30.7399 26.6749 24.4049 26.6849 18.0749C25.7049 18.2049 24.7499 18.4849 23.8949 18.9949C20.5799 20.8949 17.0949 22.4749 13.7249 24.2749C13.6999 24.5549 13.6449 25.1099 13.6149 25.3899C16.5849 27.1349 19.7549 28.4849 22.7649 30.1499C22.7399 31.7699 22.7549 33.3899 22.7149 35.0099C16.1599 31.9149 9.84991 28.3099 3.30491 25.1899C3.26991 25.0649 3.19991 24.8099 3.15991 24.6849Z" fill="#2AA0FA"/>
<path d="M162.17 10.4348C163.56 10.3048 164.96 10.3048 166.35 10.4398C166.405 20.5598 166.47 30.6798 166.315 40.7998C164.925 40.8098 163.53 40.8148 162.14 40.8198C162.145 30.6898 162.09 20.5598 162.17 10.4348Z" fill="#2AA0FA"/>
<path d="M90.7298 18.8099C91.9298 16.2599 92.8798 13.5999 94.1198 11.0649C98.3348 20.9999 102.835 30.8199 106.985 40.7799C105.655 40.8199 104.32 40.8149 102.99 40.7499C102.35 39.0349 101.615 37.3549 100.855 35.6899C97.4198 35.5949 93.9848 35.6949 90.5498 35.6299C90.8348 34.2799 91.4248 33.0249 91.9948 31.7749C94.3098 31.7449 96.6298 31.7899 98.9448 31.7199C97.6398 28.0949 95.9998 24.6049 94.4198 21.0999C94.1748 21.1749 93.6898 21.3199 93.4498 21.3949C90.8148 27.9299 88.0948 34.4449 85.1248 40.8349C83.8998 40.8149 82.6748 40.8049 81.4548 40.7749C84.2898 33.3499 87.7448 26.1799 90.7298 18.8099Z" fill="#2AA0FA"/>
</g>
<defs>
<clipPath id="clip0_405_10809">
<rect width="191" height="50" fill="white" transform="translate(0.5)"/>
</clipPath>
</defs>
</svg>
