<svg width="172" height="32" viewBox="0 0 172 32" fill="none" xmlns="http://www.w3.org/2000/svg">
<g clip-path="url(#clip0_318_9725)">
<path fill-rule="evenodd" clip-rule="evenodd" d="M19.9258 23.1349L17.5806 20.7644C16.6898 21.594 15.7894 22.251 14.8786 22.7352C13.9686 23.2188 12.8799 23.4606 11.6134 23.4606C10.6236 23.4606 9.70841 23.2684 8.86728 22.883C8.02615 22.4978 7.29877 21.9697 6.68515 21.2978C6.07151 20.6262 5.59687 19.8411 5.26002 18.9425C4.92357 18.0439 4.75574 17.0805 4.75574 16.054C4.75574 15.0267 4.92357 14.0685 5.26002 13.1795C5.59687 12.2909 6.07151 11.5158 6.68515 10.8538C7.29877 10.1923 8.02615 9.66905 8.86728 9.2837C9.70841 8.89876 10.6236 8.70609 11.6134 8.70609C12.8006 8.70609 13.8596 8.94314 14.7897 9.41722C15.7202 9.8909 16.6009 10.5133 17.4317 11.2836L19.7771 8.58777C19.2825 8.11369 18.7582 7.67917 18.2038 7.28383C17.6499 6.8889 17.0463 6.54793 16.393 6.26172C15.7397 5.9751 15.0224 5.75325 14.2405 5.59536C13.4587 5.43706 12.5927 5.35791 11.643 5.35791C10.0597 5.35791 8.61494 5.63972 7.30878 6.20255C6.00223 6.76538 4.8743 7.53567 3.92422 8.51342C2.97414 9.49117 2.23715 10.6316 1.71244 11.9355C1.18773 13.2391 0.925781 14.6317 0.925781 16.1131C0.925781 17.6141 1.19294 19.0165 1.72726 20.3204C2.26158 21.6235 2.99897 22.7544 3.93904 23.7125C4.87911 24.6702 5.99221 25.4258 7.27874 25.979C8.56527 26.5322 9.97077 26.8085 11.4944 26.8085C12.4645 26.8085 13.3501 26.7245 14.1516 26.5566C14.9531 26.3887 15.6905 26.1421 16.3633 25.8164C17.0363 25.4902 17.6648 25.1048 18.2487 24.6606C18.8323 24.2162 19.3914 23.7074 19.9258 23.1349Z" fill="white"/>
<path fill-rule="evenodd" clip-rule="evenodd" d="M67.0329 11.2305C67.0329 10.5405 67.3281 9.95427 67.9188 9.4717C68.5091 8.98833 69.3361 8.74704 70.399 8.74704C71.3439 8.74704 72.2788 8.9297 73.2038 9.29422C74.1293 9.65875 75.0642 10.186 76.0087 10.8755L77.9575 8.12648C76.8951 7.27899 75.7581 6.6337 74.5475 6.19062C73.3365 5.74713 71.9737 5.52539 70.4579 5.52539C69.4346 5.52539 68.4897 5.66816 67.6284 5.95412C66.7624 6.23967 66.0246 6.64846 65.4091 7.18048C64.7941 7.71291 64.3116 8.34823 63.9575 9.08724C63.6082 9.82624 63.4309 10.649 63.4309 11.5555C63.4309 12.521 63.5835 13.3391 63.8886 14.009C64.1937 14.6791 64.6414 15.2505 65.2223 15.7236C65.8027 16.1966 66.5262 16.5906 67.3822 16.9061C68.2434 17.2215 69.2231 17.5067 70.3301 17.7632C71.2949 17.9997 72.0768 18.2262 72.6824 18.4427C73.2827 18.6597 73.7552 18.8914 74.1046 19.1375C74.4487 19.384 74.6853 19.6547 74.8133 19.9503C74.9411 20.2462 75.0048 20.5808 75.0048 20.9553C75.0048 21.7637 74.6754 22.4042 74.0161 22.8768C73.3565 23.3502 72.4656 23.5863 71.3439 23.5863C70.0448 23.5863 68.8832 23.3545 67.8599 22.8916C66.836 22.4286 65.8226 21.7637 64.8183 20.8963L62.6338 23.4978C63.8739 24.6209 65.2223 25.4535 66.6787 25.9956C68.1355 26.5376 69.6608 26.8084 71.2551 26.8084C72.3378 26.8084 73.3321 26.6704 74.2376 26.3947C75.1378 26.1184 75.9155 25.7144 76.5552 25.1824C77.1998 24.6503 77.7018 24.0003 78.0658 23.2318C78.4251 22.4632 78.6072 21.5862 78.6072 20.6007C78.6072 19.7337 78.4645 18.9799 78.179 18.3394C77.8933 17.699 77.4703 17.1378 76.9193 16.6545C76.368 16.1718 75.6693 15.7626 74.8327 15.4277C73.9965 15.0931 73.0318 14.7876 71.949 14.5115C70.9599 14.2751 70.1481 14.0482 69.5035 13.8315C68.8637 13.615 68.3618 13.3785 67.9925 13.1221C67.6284 12.866 67.3779 12.5901 67.2396 12.2946C67.1021 11.9986 67.0329 11.644 67.0329 11.2305Z" fill="white"/>
<path fill-rule="evenodd" clip-rule="evenodd" d="M107.451 11.5238V26.306H111.058V5.69336H107.184L100.886 15.4402L94.5871 5.69336H90.7134V26.306H94.3209V11.5825L100.797 21.2412H100.915L107.451 11.5238Z" fill="white"/>
<path fill-rule="evenodd" clip-rule="evenodd" d="M141.369 16.1132C141.369 17.1205 141.196 18.0734 140.851 18.9724C140.505 19.8711 140.026 20.6509 139.413 21.3125C138.801 21.9741 138.065 22.4978 137.205 22.883C136.346 23.2684 135.403 23.4607 134.376 23.4607C133.348 23.4607 132.4 23.2632 131.531 22.8683C130.662 22.4729 129.916 21.9397 129.294 21.2685C128.672 20.5966 128.188 19.8116 127.842 18.9129C127.497 18.0143 127.324 17.061 127.324 16.054C127.324 15.0462 127.497 14.0933 127.842 13.1947C128.188 12.2957 128.667 11.5158 129.279 10.8539C129.892 10.1923 130.627 9.66906 131.486 9.28371C132.346 8.89877 133.289 8.7061 134.316 8.7061C135.344 8.7061 136.293 8.90356 137.161 9.2989C138.03 9.69385 138.776 10.2271 139.398 10.8986C140.02 11.5698 140.505 12.3553 140.851 13.2539C141.196 14.1525 141.369 15.1059 141.369 16.1132ZM145.191 16.054C145.191 14.5922 144.925 13.2095 144.392 11.9055C143.858 10.6024 143.118 9.46638 142.17 8.49862C141.221 7.53047 140.086 6.76538 138.761 6.20255C137.437 5.63972 135.976 5.35791 134.376 5.35791C132.775 5.35791 131.314 5.64452 129.99 6.21734C128.667 6.79017 127.521 7.56525 126.553 8.543C125.585 9.52075 124.835 10.6616 124.301 11.9652C123.768 13.2686 123.501 14.6514 123.501 16.1131C123.501 17.5746 123.768 18.9569 124.301 20.2609C124.835 21.5647 125.575 22.7004 126.523 23.6681C127.471 24.6359 128.607 25.4014 129.931 25.9642C131.255 26.5271 132.717 26.8085 134.316 26.8085C135.916 26.8085 137.378 26.5219 138.702 25.9494C140.026 25.3766 141.171 24.6015 142.14 23.6234C143.108 22.646 143.858 21.5052 144.392 20.2017C144.925 18.8981 145.191 17.5155 145.191 16.054Z" fill="white"/>
<path fill-rule="evenodd" clip-rule="evenodd" d="M160.351 11.2305C160.351 10.5405 160.646 9.95427 161.237 9.4717C161.828 8.98833 162.654 8.74704 163.718 8.74704C164.662 8.74704 165.598 8.9297 166.522 9.29422C167.448 9.65875 168.383 10.186 169.328 10.8755L171.276 8.12648C170.214 7.27899 169.076 6.6337 167.866 6.19062C166.656 5.74713 165.292 5.52539 163.776 5.52539C162.753 5.52539 161.808 5.66816 160.946 5.95412C160.081 6.23967 159.343 6.64846 158.728 7.18048C158.112 7.71291 157.63 8.34823 157.275 9.08724C156.927 9.82624 156.749 10.649 156.749 11.5555C156.749 12.521 156.902 13.3391 157.207 14.009C157.513 14.6791 157.96 15.2505 158.541 15.7236C159.121 16.1966 159.845 16.5906 160.701 16.9061C161.562 17.2215 162.541 17.5067 163.648 17.7632C164.613 17.9997 165.396 18.2262 166.001 18.4427C166.601 18.6597 167.074 18.8914 167.423 19.1375C167.767 19.384 168.003 19.6547 168.132 19.9503C168.26 20.2462 168.324 20.5808 168.324 20.9553C168.324 21.7637 167.994 22.4042 167.334 22.8768C166.675 23.3502 165.785 23.5863 164.662 23.5863C163.363 23.5863 162.201 23.3545 161.178 22.8916C160.154 22.4286 159.141 21.7637 158.137 20.8963L155.952 23.4978C157.192 24.6209 158.541 25.4535 159.997 25.9956C161.454 26.5376 162.979 26.8084 164.574 26.8084C165.656 26.8084 166.65 26.6704 167.556 26.3947C168.457 26.1184 169.234 25.7144 169.874 25.1824C170.518 24.6503 171.02 24.0003 171.384 23.2318C171.743 22.4632 171.926 21.5862 171.926 20.6007C171.926 19.7337 171.782 18.9799 171.497 18.3394C171.212 17.699 170.789 17.1378 170.237 16.6545C169.687 16.1718 168.988 15.7626 168.151 15.4277C167.315 15.0931 166.35 14.7876 165.267 14.5115C164.279 14.2751 163.467 14.0482 162.822 13.8315C162.182 13.615 161.681 13.3785 161.311 13.1221C160.946 12.866 160.696 12.5901 160.558 12.2946C160.421 11.9986 160.351 11.644 160.351 11.2305Z" fill="white"/>
<path fill-rule="evenodd" clip-rule="evenodd" d="M44.6734 9.81981L34.7884 19.6723C34.6609 19.4258 34.5459 19.1689 34.4428 18.9026C34.0976 18.0073 33.925 17.0576 33.925 16.0545C33.925 15.0505 34.0976 14.1011 34.4428 13.2059C34.7884 12.3103 35.2671 11.5334 35.8792 10.8739C36.4912 10.2149 37.2269 9.69357 38.0855 9.30969C38.9446 8.9262 39.8871 8.73425 40.9135 8.73425C41.9404 8.73425 42.8881 8.93098 43.7564 9.32482C44.0792 9.47097 44.3848 9.63583 44.6734 9.81981ZM43.8011 22.8577C42.9421 23.2416 41.9995 23.4331 40.973 23.4331C39.9462 23.4331 38.9985 23.2364 38.1298 22.8429C37.8074 22.6964 37.5017 22.5316 37.2137 22.3472L47.0983 12.4955C47.2257 12.7416 47.3408 12.998 47.4438 13.2648C47.789 14.1601 47.9617 15.1098 47.9617 16.1133C47.9617 17.1169 47.789 18.0663 47.4438 18.9619C47.0983 19.857 46.6196 20.634 46.0074 21.2931C45.3953 21.9522 44.6601 22.4738 43.8011 22.8577ZM45.2967 25.9125C46.6196 25.3418 47.7646 24.5697 48.732 23.5951C49.6993 22.6215 50.4492 21.485 50.9823 20.1864C51.5156 18.8878 51.7822 17.5104 51.7822 16.0545C51.7822 14.5981 51.5156 13.2206 50.9823 11.9217C50.6662 11.1515 50.277 10.4403 49.8151 9.78757L56.2444 3.37975L53.6897 0.833496L47.2408 7.26084C46.6619 6.86739 46.0334 6.52731 45.3558 6.24018C44.0329 5.67949 42.5721 5.39874 40.973 5.39874C39.3737 5.39874 37.9129 5.68427 36.59 6.25493C35.2671 6.82558 34.1219 7.59773 33.1546 8.57179C32.1873 9.54585 31.4369 10.6824 30.9039 11.981C30.3709 13.2796 30.1044 14.657 30.1044 16.1133C30.1044 17.5692 30.3709 18.9463 30.9039 20.2454C31.2204 21.016 31.6095 21.7271 32.0714 22.3802L25.6426 28.7873L28.1973 31.3335L34.6457 24.9065C35.2247 25.3 35.8532 25.6401 36.5308 25.9272C37.8538 26.488 39.3146 26.7683 40.9135 26.7683C42.5129 26.7683 43.9737 26.4827 45.2967 25.9125Z" fill="white"/>
</g>
<defs>
<clipPath id="clip0_318_9725">
<rect width="171" height="32" fill="white" transform="translate(0.925781)"/>
</clipPath>
</defs>
</svg>
