<svg width="160" height="54" viewBox="0 0 160 54" fill="none" xmlns="http://www.w3.org/2000/svg">
    <path d="M16.5367 1.19789V11.1286H6.35468V1.19789H0.833252V26.2939H6.35468V16.2203H16.5367V26.2939H22.057V1.19789H16.5367Z"
          fill="white"/>
    <path d="M90.2344 1.19789V11.1286H80.0519V1.19789H74.5305V26.2939H80.0519V16.2203H90.2344V26.2939H95.7545V1.19789H90.2344Z"
          fill="white"/>
    <path d="M35.2515 1.01918L24.4963 26.2939H30.125L32.4192 20.6655H43.031L45.3256 26.2939H51.0986L40.3421 1.01918H35.2515ZM37.7253 7.65143L41.0591 15.7892H34.3913L37.7253 7.65143Z"
          fill="white"/>
    <path d="M51.4575 22.6381L54.7207 18.7294C56.9785 20.5938 59.3451 21.7777 62.2134 21.7777C64.4716 21.7777 65.8339 20.8818 65.8339 19.4113V19.3394C65.8339 17.9411 64.9737 17.2241 60.7789 16.149C55.7238 14.858 52.4613 13.4597 52.4613 8.47702V8.40466C52.4613 3.8513 56.1181 0.840076 61.2446 0.840076C64.9014 0.840076 68.0216 1.98773 70.5669 4.03133L67.6988 8.18977C65.475 6.64831 63.2884 5.71597 61.1734 5.71597C59.0578 5.71597 57.947 6.68339 57.947 7.90341V7.97467C57.947 9.62402 59.0223 10.1617 63.361 11.2727C68.4507 12.5999 71.3194 14.428 71.3194 18.8018V18.8728C71.3194 23.8568 67.519 26.6538 62.1057 26.6538C58.306 26.6538 54.4685 25.327 51.4575 22.6381Z"
          fill="white"/>
    <path d="M114.864 1.19789V26.2939H133.973V21.3823H120.348V16.1119H132.181V11.2005H120.348V6.10975H133.794V1.19789H114.864Z"
          fill="white"/>
    <path d="M153.405 1.19789L147.31 11.2722L141.323 1.19789H134.869L144.513 16.399V26.2939H150.034V16.292L159.679 1.19789H153.405Z"
          fill="white"/>
    <path d="M104.985 18.5898L101.132 14.7383L97.2805 18.5898H104.985Z" fill="#2B3037"/>
    <path d="M97.2805 18.5892L101.132 22.4414L104.985 18.5892H97.2805Z" fill="#363B42"/>
    <path d="M108.837 22.4414L104.985 18.5892L101.133 22.4414H108.837Z" fill="#515458"/>
    <path d="M101.133 22.4417L104.985 26.2939L108.837 22.4417H101.133Z" fill="#6A6B6E"/>
    <path d="M104.986 26.2939H112.69L108.837 22.4411L104.986 26.2939Z" fill="#868484"/>
    <path d="M104.985 1.19856L101.083 5.09954L97.1816 9.00141L101.083 12.9028L104.985 9.00141L108.886 5.09954L112.788 1.19856H104.985Z"
          fill="white"/>
    <path d="M74.5322 36.7607L80.8168 43.0031L74.5322 49.3296V36.7607Z" fill="white"/>
    <path d="M90.3713 50.2539C89.3633 50.2539 88.4274 50.0704 87.5634 49.7041C86.6995 49.3379 85.9534 48.8371 85.325 48.2019C84.6967 47.5672 84.2058 46.8178 83.8524 45.9538C83.499 45.0899 83.3223 44.167 83.3223 43.1853V43.146C83.3223 42.1645 83.499 41.2449 83.8524 40.3874C84.2058 39.5301 84.6967 38.7773 85.325 38.1291C85.9534 37.4814 86.7061 36.9709 87.5831 36.5978C88.46 36.2248 89.429 36.0381 90.4891 36.0381C91.1302 36.0381 91.7164 36.0906 92.2465 36.1952C92.7764 36.3 93.2576 36.444 93.6896 36.6272C94.1216 36.8107 94.5209 37.0331 94.8873 37.2948C95.2538 37.5568 95.5942 37.8445 95.9084 38.1587L93.9841 40.3775C93.4471 39.8934 92.9009 39.5135 92.3445 39.2386C91.7881 38.9637 91.1631 38.8263 90.4694 38.8263C89.8932 38.8263 89.3602 38.9377 88.8691 39.1601C88.3784 39.3829 87.9561 39.6902 87.6027 40.0829C87.2493 40.4756 86.9746 40.9308 86.778 41.4475C86.5817 41.9648 86.4835 42.5177 86.4835 43.1067V43.146C86.4835 43.7351 86.5817 44.2917 86.778 44.815C86.9746 45.3387 87.246 45.7967 87.5928 46.1892C87.9396 46.5819 88.3588 46.8932 88.8497 47.122C89.3403 47.3512 89.8804 47.4655 90.4694 47.4655C91.2548 47.4655 91.9191 47.3217 92.4625 47.0335C93.0052 46.7461 93.5455 46.3531 94.0823 45.8554L96.0065 47.7995C95.6531 48.1794 95.2864 48.5196 94.907 48.8205C94.5273 49.1217 94.1116 49.38 93.66 49.5962C93.2084 49.812 92.7142 49.9757 92.1777 50.0869C91.6409 50.1979 91.0389 50.2539 90.3713 50.2539Z"
          fill="white"/>
    <path d="M101.329 48.1527C102.036 48.1527 102.602 47.9826 103.028 47.6424C103.453 47.302 103.666 46.8568 103.666 46.307V45.7768C103.404 45.659 103.113 45.5644 102.792 45.492C102.471 45.4203 102.127 45.3841 101.761 45.3841C101.12 45.3841 100.616 45.5088 100.249 45.7572C99.8827 46.0061 99.6996 46.3659 99.6996 46.8371V46.8764C99.6996 47.2823 99.8501 47.5965 100.151 47.8189C100.452 48.0417 100.845 48.1527 101.329 48.1527ZM100.426 50.2144C99.9284 50.2144 99.4607 50.1455 99.0223 50.0081C98.5835 49.8706 98.2005 49.6648 97.8735 49.3897C97.5463 49.1148 97.2876 48.7779 97.0978 48.3784C96.9081 47.9795 96.8132 47.518 96.8132 46.9942V46.9549C96.8132 46.3791 96.9178 45.8818 97.1274 45.4627C97.3365 45.0439 97.6282 44.6969 98.0013 44.422C98.3741 44.1471 98.8191 43.9411 99.3365 43.8036C99.8534 43.6664 100.426 43.5976 101.054 43.5976C101.591 43.5976 102.059 43.6368 102.458 43.7151C102.858 43.7939 103.247 43.8987 103.627 44.0295V43.8526C103.627 43.2245 103.437 42.7468 103.057 42.4192C102.677 42.0923 102.115 41.9286 101.369 41.9286C100.792 41.9286 100.285 41.9776 99.8467 42.0757C99.4082 42.1739 98.9466 42.3149 98.4626 42.498L97.7164 40.2201C98.2923 39.9717 98.8946 39.7687 99.5229 39.6116C100.151 39.4546 100.91 39.3758 101.801 39.3758C102.625 39.3758 103.329 39.4775 103.911 39.6802C104.494 39.8834 104.975 40.1744 105.354 40.5539C105.747 40.9466 106.035 41.4278 106.218 41.9972C106.402 42.5666 106.493 43.2049 106.493 43.9117V50.018H103.607V48.8792C103.24 49.2851 102.802 49.6092 102.291 49.851C101.781 50.0932 101.159 50.2144 100.426 50.2144Z"
          fill="white"/>
    <path d="M113.855 47.6815C114.208 47.6815 114.538 47.6126 114.846 47.4752C115.154 47.3378 115.425 47.1416 115.661 46.8864C115.897 46.6309 116.083 46.3264 116.221 45.9732C116.358 45.6198 116.427 45.2207 116.427 44.7755V44.736C116.427 44.3042 116.358 43.9085 116.221 43.5484C116.083 43.1884 115.897 42.8808 115.661 42.6256C115.425 42.3703 115.154 42.174 114.846 42.0365C114.538 41.8991 114.208 41.8302 113.855 41.8302C113.501 41.8302 113.17 41.8991 112.863 42.0365C112.555 42.174 112.287 42.3703 112.058 42.6256C111.829 42.8808 111.646 43.1884 111.508 43.5484C111.371 43.9085 111.302 44.3042 111.302 44.736V44.7755C111.302 45.2075 111.371 45.6035 111.508 45.9633C111.646 46.3236 111.829 46.6309 112.058 46.8864C112.287 47.1416 112.555 47.3378 112.863 47.4752C113.17 47.6126 113.501 47.6815 113.855 47.6815ZM108.357 39.4937H111.341V41.0058C111.708 40.5083 112.149 40.0993 112.667 39.7785C113.184 39.4577 113.835 39.2975 114.621 39.2975C115.236 39.2975 115.831 39.4153 116.407 39.6507C116.983 39.8864 117.493 40.2367 117.939 40.7013C118.383 41.1659 118.74 41.7354 119.009 42.4096C119.277 43.084 119.411 43.8595 119.411 44.736V44.7755C119.411 45.6527 119.277 46.4281 119.009 47.1021C118.74 47.7766 118.387 48.346 117.949 48.8104C117.51 49.2752 117.003 49.6254 116.427 49.861C115.851 50.0966 115.249 50.2142 114.621 50.2142C113.822 50.2142 113.164 50.0573 112.647 49.7432C112.13 49.429 111.695 49.0628 111.341 48.6434V53.1597H108.357V39.4937Z"
          fill="white"/>
    <path d="M120.89 39.4937H123.874V50.0181H120.89V39.4937ZM120.811 35.6845H123.952V38.3352H120.811V35.6845Z"
          fill="white"/>
    <path d="M129.402 50.1948C128.943 50.1948 128.528 50.1456 128.155 50.0477C127.782 49.9495 127.461 49.7761 127.193 49.5275C126.924 49.2788 126.715 48.9547 126.565 48.5552C126.414 48.1563 126.339 47.6491 126.339 47.0336V42.0465H125.082V39.4939H126.339V36.8037H129.323V39.4939H131.797V42.0465H129.323V46.5588C129.323 47.2418 129.644 47.5834 130.285 47.5834C130.809 47.5834 131.3 47.4528 131.758 47.1907V49.5861C131.444 49.7697 131.097 49.9168 130.717 50.028C130.337 50.139 129.899 50.1948 129.402 50.1948Z"
          fill="white"/>
    <path d="M137.079 48.1527C137.785 48.1527 138.352 47.9826 138.777 47.6424C139.202 47.302 139.415 46.8568 139.415 46.307V45.7768C139.153 45.659 138.862 45.5644 138.541 45.492C138.22 45.4203 137.877 45.3841 137.511 45.3841C136.869 45.3841 136.365 45.5088 135.999 45.7572C135.632 46.0061 135.449 46.3659 135.449 46.8371V46.8764C135.449 47.2823 135.599 47.5965 135.9 47.8189C136.201 48.0417 136.594 48.1527 137.079 48.1527ZM136.175 50.2144C135.678 50.2144 135.21 50.1455 134.772 50.0081C134.333 49.8706 133.95 49.6648 133.623 49.3897C133.296 49.1148 133.037 48.7779 132.847 48.3784C132.657 47.9795 132.562 47.518 132.562 46.9942V46.9549C132.562 46.3791 132.667 45.8818 132.877 45.4627C133.086 45.0439 133.377 44.6969 133.751 44.422C134.123 44.1471 134.568 43.9411 135.086 43.8036C135.603 43.6664 136.175 43.5976 136.804 43.5976C137.34 43.5976 137.808 43.6368 138.207 43.7151C138.607 43.7939 138.996 43.8987 139.376 44.0295V43.8526C139.376 43.2245 139.186 42.7468 138.806 42.4192C138.427 42.0923 137.864 41.9286 137.118 41.9286C136.542 41.9286 136.035 41.9776 135.596 42.0757C135.157 42.1739 134.696 42.3149 134.212 42.498L133.466 40.2201C134.042 39.9717 134.644 39.7687 135.272 39.6116C135.9 39.4546 136.66 39.3758 137.55 39.3758C138.374 39.3758 139.078 39.4775 139.661 39.6802C140.243 39.8834 140.724 40.1744 141.104 40.5539C141.496 40.9466 141.784 41.4278 141.968 41.9972C142.151 42.5666 142.243 43.2049 142.243 43.9117V50.018H139.356V48.8792C138.99 49.2851 138.551 49.6092 138.041 49.851C137.53 50.0932 136.908 50.2144 136.175 50.2144Z"
          fill="white"/>
    <path d="M144.175 35.6847H147.159V50.0181H144.175V35.6847Z" fill="white"/>
</svg>
