<svg width="154" height="56" viewBox="0 0 154 56" fill="none" xmlns="http://www.w3.org/2000/svg">
<g clip-path="url(#clip0_318_9582)">
<mask id="mask0_318_9582" style="mask-type:luminance" maskUnits="userSpaceOnUse" x="0" y="16" width="85" height="24">
<path d="M84.2026 16.8296H0.925781V39.2126H84.2026V16.8296Z" fill="white"/>
</mask>
<g mask="url(#mask0_318_9582)">
<path d="M7.07922 17.0415H0.925781V18.155H3.32888V24.671H0.925781V25.7967H7.07922V24.671H4.6761V18.155H7.07922V17.0415Z" fill="white"/>
<path d="M10.8243 25.7967V19.5186C10.8243 19.1313 10.8243 18.7439 10.7996 18.3426L13.6476 25.7967H15.5934V17.0415H14.3345V23.1458C14.3345 23.5453 14.3345 23.9709 14.3468 24.3722L11.5623 17.0415H9.56714V25.7967H10.8243Z" fill="white"/>
<path d="M21.8282 25.7967V18.155H24.6763V17.0415H17.6206V18.155H20.481V25.7967H21.8282Z" fill="white"/>
<path d="M32.9855 25.7967V24.671H28.3064V21.8707H32.6041V20.745H28.3064V18.155H32.8195V17.0415H26.9592V25.7967H32.9855Z" fill="white"/>
<path d="M36.6421 25.7967V22.0705H38.3196C39.552 22.0705 40.0358 22.2981 40.0358 23.7347V25.7984H41.383V23.4828C41.383 22.1591 40.811 21.6188 39.8963 21.4694C40.7227 21.2315 41.5613 20.6669 41.5613 19.3432C41.5613 17.5644 40.4295 17.0415 38.7521 17.0415H35.2949V25.7967H36.6421ZM36.6421 18.155H38.4467C39.5661 18.155 40.1753 18.353 40.1753 19.543C40.1753 20.6409 39.5644 20.9431 38.4467 20.9431H36.6421V18.155Z" fill="white"/>
<path d="M47.1126 25.9982C49.0339 25.9982 50.0736 25.1001 50.2912 22.847H48.8924C48.677 24.4504 48.2058 24.8864 47.088 24.8864C45.7407 24.8864 44.9903 24.0161 44.9903 21.3844C44.9903 18.7647 45.702 17.957 47.088 17.957C48.137 17.957 48.6596 18.4295 48.8291 19.9582H50.2784C50.1178 17.8145 49.0407 16.8296 47.1763 16.8296C44.9003 16.8296 43.592 18.162 43.592 21.3826C43.592 24.6902 44.8369 25.9982 47.1126 25.9982Z" fill="white"/>
<path d="M53.808 25.7967V21.8082H57.1255V25.7984H58.4728V17.0415H57.1255V20.6808H53.808V17.0415H52.4607V25.7967H53.808Z" fill="white"/>
<path d="M67.6723 25.7967L64.8876 17.0415H63.1715L60.4136 25.7967H61.7609L62.5112 23.2709H65.4986L66.2366 25.7967H67.6723ZM63.7064 19.2685C63.8211 18.8689 63.9218 18.5181 64.0119 18.1429C64.1003 18.5181 64.1904 18.855 64.3174 19.2685L65.1684 22.1573H62.8414L63.7064 19.2685Z" fill="white"/>
<path d="M75.6885 17.0415H69.5349V18.155H71.938V24.671H69.5349V25.7967H75.6885V24.671H73.2853V18.155H75.6885V17.0415Z" fill="white"/>
<path d="M79.4332 25.7967V19.5186C79.4332 19.1313 79.4333 18.7439 79.4086 18.3426L82.2566 25.7967H84.2021V17.0415H82.9432V23.1458C82.9432 23.5453 82.9432 23.9709 82.9559 24.3722L80.1713 17.0415H78.176V25.7967H79.4332Z" fill="white"/>
<path d="M2.73027 39.0115V35.1099H7.09152V33.9964H2.73027V31.3698H7.3193V30.2563H1.38306V39.0115H2.73027Z" fill="white"/>
<path d="M12.5794 39.2131C14.6893 39.2131 15.9094 37.9797 15.9094 34.6357C15.9094 31.2917 14.7017 30.0444 12.5794 30.0444C10.4428 30.0444 9.23511 31.29 9.23511 34.634C9.23511 37.9779 10.4552 39.2131 12.5794 39.2131ZM12.5794 38.0996C11.3716 38.0996 10.6336 37.33 10.6336 34.6357C10.6336 31.9414 11.3327 31.1719 12.5794 31.1719C13.7994 31.1719 14.511 31.9414 14.511 34.6357C14.511 37.33 13.7729 38.0996 12.5794 38.0996Z" fill="white"/>
<path d="M21.1553 39.213C23.2529 39.213 24.3335 37.9744 24.3335 35.8482V30.2563H22.9863V35.6849C22.9863 37.2362 22.3895 38.0995 21.1553 38.0995C19.9087 38.0995 19.3243 37.2362 19.3243 35.6849V30.2563H17.9771V35.8464C17.9771 37.9744 19.07 39.213 21.1553 39.213Z" fill="white"/>
<path d="M28.0638 39.0117V32.7354C28.0638 32.3481 28.0638 31.9607 28.0391 31.5594L30.8871 39.0135H32.8329V30.2583H31.574V36.3626C31.574 36.7621 31.574 37.1877 31.5864 37.589L28.8018 30.26H26.8066V39.0152L28.0638 39.0117Z" fill="white"/>
<path d="M37.9907 39.0115C40.6216 39.0115 41.9829 37.8407 41.9829 34.6583C41.9829 31.0623 40.355 30.2563 37.8124 30.2563H35.7024V39.0115H37.9907ZM37.0496 31.3698H37.8636C39.7458 31.3698 40.5845 32.0021 40.5845 34.6339C40.5845 37.4794 39.5427 37.8859 37.9024 37.8859H37.0514V31.3698H37.0496Z" fill="white"/>
<path d="M50.8737 39.0115L48.089 30.2563H46.3729L43.615 39.0115H44.9623L45.7126 36.4857H48.7L49.438 39.0115H50.8737ZM46.9061 32.4833C47.0208 32.0838 47.1215 31.7329 47.2116 31.3577C47.3 31.7329 47.3901 32.0699 47.5171 32.4833L48.3681 35.3722H46.0411L46.9061 32.4833Z" fill="white"/>
<path d="M56.0453 39.0115V31.3698H58.8932V30.2563H51.8376V31.3698H54.6979V39.0115H56.0453Z" fill="white"/>
<path d="M67.1121 30.2563H60.959V31.3698H63.3621V37.8859H60.959V39.0115H67.1121V37.8859H64.7094V31.3698H67.1121V30.2563Z" fill="white"/>
<path d="M72.6128 39.2131C74.7228 39.2131 75.943 37.9797 75.943 34.6357C75.943 31.2917 74.7351 30.0444 72.6128 30.0444C70.4765 30.0444 69.2686 31.29 69.2686 34.634C69.2686 37.9779 70.4905 39.2131 72.6128 39.2131ZM72.6128 38.0996C71.4053 38.0996 70.6673 37.33 70.6673 34.6357C70.6673 31.9414 71.3662 31.1719 72.6128 31.1719C73.8331 31.1719 74.5447 31.9414 74.5447 34.6357C74.5447 37.33 73.8084 38.0996 72.6128 38.0996Z" fill="white"/>
<path d="M79.4332 39.0117V32.7354C79.4332 32.3481 79.4333 31.9607 79.4086 31.5594L82.2566 39.0135H84.2021V30.2583H82.9432V36.3626C82.9432 36.7621 82.9432 37.1877 82.9555 37.589L80.1713 30.26H78.176V39.0152L79.4332 39.0117Z" fill="white"/>
</g>
<path d="M125.862 56L124.393 55.9627L122.928 55.8461L121.474 55.6545L120.028 55.3883L118.601 55.0479L117.193 54.6324L115.807 54.142L114.451 53.582L113.122 52.9516L111.831 52.2513L110.577 51.4857L109.365 50.6548L108.2 49.7633L107.082 48.8111L106.015 47.8026L105.004 46.7382L104.05 45.6224L103.156 44.46L102.323 43.251L101.556 42L100.854 40.7116L100.222 39.3858L99.6611 38.032L99.1699 36.6502L98.7531 35.2451L98.4119 33.8213L98.1451 32.3788L97.9531 30.927L97.8362 29.4658L97.7988 28L97.8362 26.5342L97.9531 25.073L98.1451 23.6212L98.4119 22.1787L98.7531 20.7549L99.1699 19.3498L99.6611 17.968L100.222 16.6142L100.854 15.2884L101.556 14L102.323 12.7489L103.156 11.5399L104.05 10.3775L105.004 9.26175L106.015 8.19741L107.082 7.18907L108.2 6.23673L109.365 5.3451L110.577 4.51417L111.831 3.74858L113.122 3.04835L114.451 2.41814L115.807 1.85795L117.193 1.36779L118.601 0.952318L120.028 0.611536L121.474 0.345448L122.928 0.154051L124.393 0.0373458L125.862 0L127.332 0.0373458L128.796 0.154051L130.251 0.345448L131.697 0.611536L133.124 0.952318L134.532 1.36779L135.917 1.85795L137.274 2.41814L138.598 3.04835L139.889 3.74858L141.143 4.51417L142.355 5.3451L143.52 6.23673L144.638 7.18907L145.705 8.19741L146.716 9.26175L147.67 10.3775L148.564 11.5399L149.397 12.7489L150.164 14L150.866 15.2884L151.498 16.6095L152.059 17.9633L152.55 19.3451L152.967 20.7503L153.308 22.174L153.575 23.6165L153.767 25.0684L153.884 26.5295L153.921 28.0093L153.884 29.4612L153.767 30.9223L153.575 32.3741L153.308 33.8166L152.967 35.2404L152.55 36.6455L152.059 38.0274L151.498 39.3811L150.866 40.7069L150.164 41.9953L149.397 43.2463L148.564 44.4554L147.67 45.6177L146.716 46.7335L145.705 47.798L144.638 48.8065L143.52 49.7586L142.355 50.6501L141.143 51.481L139.889 52.2466L138.598 52.9469L137.274 53.5773L135.917 54.1373L134.532 54.6273L133.124 55.0432L131.697 55.3836L130.251 55.6498L128.791 55.8415L127.327 55.958L125.858 55.9953L125.862 56ZM125.848 1.00367L124.43 1.04102L123.018 1.15305L121.614 1.33978L120.22 1.59653L118.844 1.92798L117.487 2.32944L116.154 2.80093L114.844 3.34245L113.566 3.94932L112.322 4.62155L111.115 5.35913L109.95 6.16203L108.827 7.02103L107.751 7.94064L106.726 8.91163L105.753 9.93866L104.831 11.0123L103.97 12.1327L103.17 13.2951L102.431 14.4995L101.757 15.7413L101.149 17.0157L100.606 18.3228L100.134 19.6532L99.7312 21.007L99.3989 22.3795L99.1415 23.7706L98.9592 25.171L98.847 26.5809L98.8096 27.9953L98.847 29.4098L98.9592 30.8196L99.1461 32.2201L99.4036 33.6112L99.7359 34.9837L100.138 36.3375L100.611 37.6679L101.154 38.975L101.762 40.2494L102.436 41.4912L103.175 42.6957L103.98 43.858L104.84 44.9785L105.762 46.0518L106.735 47.0743L107.765 48.0455L108.841 48.965L109.964 49.8239L111.129 50.6221L112.336 51.3598L113.58 52.0321L114.858 52.6387L116.168 53.1805L117.501 53.6519L118.858 54.0534L120.234 54.3849L121.628 54.6418L123.032 54.8236L124.444 54.9355L125.862 54.9728L127.28 54.9355L128.693 54.8236L130.097 54.6371L131.491 54.3802L132.866 54.0487L134.223 53.6472L135.557 53.1758L136.867 52.6341L138.144 52.0274L139.389 51.3551L140.596 50.6175L141.761 49.8192L142.884 48.9604L143.96 48.0409L144.989 47.0697L145.963 46.0425L146.88 44.9691L147.74 43.8487L148.54 42.6863L149.28 41.4818L149.954 40.2401L150.562 38.9657L151.105 37.6585L151.577 36.3281L151.979 34.9743L152.312 33.6019L152.569 32.2107L152.756 30.8103L152.868 29.4005L152.906 27.9953L152.868 26.5762L152.756 25.1664L152.569 23.7659L152.312 22.3748L151.979 21.0023L151.577 19.6485L151.105 18.3181L150.562 17.011L149.954 15.7366L149.28 14.4948L148.54 13.2904L147.74 12.128L146.88 11.0077L145.958 9.93396L144.985 8.91163L143.955 7.94064L142.879 7.02569L141.756 6.16674L140.591 5.36845L139.384 4.63087L138.14 3.95865L136.862 3.35178L135.552 2.81027L134.218 2.33878L132.862 1.93731L131.486 1.60587L130.092 1.34912L128.688 1.16706L127.275 1.05502L125.858 1.01767L125.848 1.00367Z" fill="white"/>
<path d="M126.367 55.4911H125.348V51.4062L124.978 51.3968L124.094 51.3362L123.219 51.2336L122.358 51.098L121.516 50.9208L120.697 50.7105L119.906 50.468L119.144 50.1972L118.414 49.903L117.716 49.5859L117.052 49.2497L116.425 48.8949L115.836 48.5261L115.279 48.1479L114.273 47.373L113.407 46.5841L112.673 45.7952L112.06 45.0295L111.55 44.2779L111.138 43.5496L110.815 42.854L110.567 42.1912L110.389 41.561L110.273 40.9588L110.23 40.5853L109.678 40.0765L108.85 39.2082L108.452 38.7367L108.064 38.2419L107.69 37.7237L107.329 37.1822L106.988 36.6173L106.665 36.0292L106.361 35.4223L106.076 34.7967L105.814 34.1525L105.575 33.4896L105.364 32.8081L105.182 32.1125L105.028 31.4076L104.901 30.6887L104.803 29.9651L104.738 29.2322L104.7 28.504H98.2947V27.4863H104.686L104.7 27.0241L104.756 26.2912L104.845 25.563L104.962 24.8441L105.107 24.1345L105.28 23.4343L105.482 22.748L105.711 22.0758L105.963 21.4223L106.24 20.7874L106.539 20.1712L106.857 19.5783L107.194 19.0041L107.545 18.4533L107.914 17.9258L108.298 17.4216L109.098 16.488L109.936 15.6477L110.221 15.3956L110.259 15.0641L110.375 14.462L110.553 13.8271L110.796 13.1595L111.119 12.4593L111.526 11.7311L112.032 10.9748L112.645 10.1999L113.384 9.40627L114.249 8.61735L114.736 8.22518L115.251 7.84242L115.807 7.46429L116.397 7.10018L117.029 6.74536L117.688 6.40927L118.39 6.09184L119.12 5.79773L119.888 5.52697L120.678 5.28423L121.497 5.07413L122.339 4.89677L123.2 4.7567L124.075 4.65403L125.352 4.584V0.494629H126.372V4.57933L126.742 4.58866L127.626 4.64937L128.501 4.75204L129.362 4.88744L130.204 5.06481L131.023 5.2749L131.814 5.51764L132.576 5.7884L133.306 6.08247L134.008 6.39995L134.673 6.73603L135.299 7.09081L135.889 7.45962L136.446 7.83776L136.965 8.22518L137.452 8.61735L138.317 9.40627L139.052 10.1952L139.665 10.9608L140.175 11.7124L140.587 12.4406L140.91 13.1362L141.157 13.7991L141.335 14.4293L141.452 15.0315L141.494 15.4049L142.187 16.0538L143.01 16.9408L143.408 17.4216L143.791 17.9258L144.161 18.4533L144.517 19.0041L144.854 19.5783L145.172 20.1712L145.471 20.7874L145.747 21.4223L146 22.0758L146.229 22.748L146.43 23.4343L146.603 24.1345L146.749 24.8441L146.866 25.563L146.954 26.2912L147.029 27.5096H153.421V28.5273H147.034L147.001 29.2322L146.936 29.9651L146.837 30.6933L146.711 31.4123L146.557 32.1172L146.374 32.8127L146.164 33.4943L145.93 34.1572L145.668 34.8061L145.387 35.4363L145.083 36.0431L144.76 36.6313L144.419 37.1962L144.058 37.7377L143.684 38.2559L143.296 38.7507L142.486 39.6703L141.499 40.618L141.461 40.9494L141.349 41.5517L141.171 42.1865L140.928 42.854L140.605 43.5543L140.198 44.2826L139.693 45.0389L139.08 45.8138L138.341 46.6074L137.475 47.3963L136.989 47.7884L136.474 48.1712L135.917 48.5494L135.327 48.9135L134.696 49.2683L134.036 49.6045L133.334 49.9216L132.604 50.2158L131.837 50.4867L131.046 50.7292L130.228 50.9394L129.39 51.1166L128.529 51.257L127.654 51.3595L126.377 51.4295V55.5144L126.367 55.4911ZM111.438 41.5563L111.526 41.8784L111.746 42.4665L112.037 43.0876L112.406 43.7459L112.869 44.4318L113.435 45.1415L114.109 45.8604L114.914 46.5934L115.85 47.317L116.369 47.6719L116.926 48.0169L117.516 48.3484L118.138 48.6659L118.797 48.9648L119.49 49.245L120.211 49.4968L120.959 49.7257L121.735 49.9216L122.531 50.0899L123.345 50.2205L124.173 50.3184L125.334 50.3841V46.8172L124.407 46.7333L123.476 46.5608L122.592 46.3085L121.769 45.9863L121.015 45.6082L120.346 45.1788L119.761 44.7167L119.2 44.152L118.69 44.1427L117.894 44.077L117.075 43.9604L116.238 43.7832L115.382 43.5403L114.512 43.2321L113.627 42.8493L112.738 42.3872L111.84 41.8364L111.433 41.5563H111.438ZM126.367 46.8219V50.3888L126.714 50.3794L127.551 50.3231L128.379 50.2251L129.198 50.0946L129.994 49.9263L130.771 49.7257L131.519 49.4968L132.244 49.2404L132.932 48.9601L133.592 48.6613L134.214 48.3438L134.808 48.0123L135.36 47.6672L135.884 47.3124L136.82 46.5887L137.625 45.8558L138.303 45.1275L138.874 44.4085L139.333 43.7222L139.702 43.0643L139.992 42.4385L140.208 41.8504L140.287 41.5656L139.45 42.1212L139.005 42.3826L138.125 42.84L137.241 43.2275L136.366 43.5403L135.51 43.7832L134.673 43.9604L133.854 44.0817L133.058 44.1474L132.516 44.1614L132.23 44.4645L131.692 44.9456L131.065 45.3937L130.354 45.7998L129.563 46.1546L128.707 46.4437L127.795 46.6587L126.845 46.7892L126.372 46.8219H126.367ZM126.367 42.2379V45.7998L127.177 45.7252L128.015 45.5662L128.805 45.3377L129.54 45.0482L130.2 44.712L130.785 44.3386L131.285 43.9418L131.701 43.5263L132.034 43.1109L132.287 42.7001L132.469 42.2986L132.581 41.9158L132.637 41.5517V41.3742L132.595 40.8794L132.52 40.6086L131.987 40.8794L131.346 41.1642L130.691 41.4163L130.027 41.6357L129.353 41.8224L128.67 41.9765L127.977 42.0978L127.28 42.1819L126.377 42.2379H126.367ZM119.204 40.6086L119.097 41.0755L119.078 41.4116L119.111 41.7664L119.2 42.1399L119.349 42.5318L119.569 42.9333L119.864 43.344L120.239 43.7599L120.697 44.166L121.24 44.5535L121.862 44.9079L122.559 45.2207L123.327 45.4776L124.145 45.6688L125.001 45.7858L125.352 45.8091V42.2472H125.174L124.473 42.1912L123.776 42.1072L123.083 41.9905L122.4 41.8364L121.721 41.6497L121.057 41.4302L120.402 41.1782L119.761 40.8934L119.204 40.6133V40.6086ZM133.409 40.0951L133.536 40.4546L133.629 40.9074L133.662 41.3882L133.624 41.8877L133.512 42.4012L133.32 42.9193L133.227 43.1062L133.737 43.0643L134.49 42.9519L135.267 42.7887L136.057 42.5644L136.867 42.2752L137.686 41.9158L138.509 41.4863L139.328 40.9821L140.152 40.3893L140.516 40.0951V39.8291L140.498 39.4089L140.441 39.0168L140.357 38.648L140.25 38.3026L140.123 37.9805L139.978 37.677L139.637 37.1262L139.244 36.636L138.799 36.2019L138.317 35.8144L137.966 35.5717L137.756 35.9077L137.354 36.4819L136.923 37.0328L136.464 37.565L135.983 38.0738L135.477 38.5547L134.948 39.0121L134.396 39.4416L133.423 40.0998L133.409 40.0951ZM111.208 40.0951L111.999 40.7067L112.827 41.2575L113.244 41.5003L114.077 41.9344L114.895 42.2892L115.705 42.5738L116.495 42.798L117.267 42.9612L118.021 43.0689L118.498 43.1062L118.311 42.6908L118.152 42.1772L118.072 41.673L118.058 41.4256L118.086 40.9448L118.175 40.4873L118.311 40.0905L117.932 39.8524L117.356 39.451L116.804 39.0215L116.271 38.564L115.761 38.0831L115.274 37.5743L114.816 37.0468L114.385 36.496L113.754 35.567L113.384 35.8237L112.902 36.2158L112.458 36.6547L112.065 37.1495L111.728 37.705L111.582 38.0084L111.456 38.3306L111.353 38.676L111.274 39.0448L111.222 39.4416L111.199 39.8664V40.0905L111.208 40.0951ZM119.719 39.7264L120.201 39.9691L120.795 40.2306L121.404 40.464L122.021 40.6647L122.648 40.8374L123.284 40.9775L123.925 41.0895L124.571 41.1689L125.348 41.2202V37.677L123.869 37.8171L122.611 38.0878L121.637 38.4193L120.767 38.8534L120.173 39.2735L119.719 39.7217V39.7264ZM126.372 37.677V41.2202H126.527L127.177 41.1689L127.823 41.0895L128.464 40.9775L129.1 40.8327L129.727 40.66L130.345 40.4546L130.953 40.2212L131.547 39.9551L132.006 39.7264L131.669 39.3809L131.098 38.9468L130.434 38.578L129.498 38.2092L128.267 37.8964L126.742 37.705L126.367 37.6863L126.372 37.677ZM130.63 37.5463L131.276 37.8638L132.015 38.3446L132.511 38.774L132.899 39.2128L133.245 38.9935L133.779 38.62L134.294 38.2185L134.785 37.7937L135.257 37.3456L135.706 36.8741L136.132 36.3839L136.534 35.8704L137.087 35.0628L136.408 34.7454L135.201 34.2972L133.62 33.8631L132.422 33.6203L132.151 34.4326L131.781 35.3663L131.351 36.2859L130.864 37.1868L130.639 37.5463H130.63ZM114.647 35.0582L114.839 35.3569L115.213 35.8891L115.616 36.4026L116.042 36.8928L116.491 37.3643L116.963 37.8124L117.459 38.2372L117.974 38.634L118.83 39.2128L119.2 38.7927L119.696 38.3586L120.243 37.9851L121.095 37.5463L120.884 37.2149L120.393 36.3139L119.962 35.3942L119.588 34.4606L119.307 33.6203L117.464 34.0265L116.215 34.4046L115.021 34.8808L114.647 35.0628V35.0582ZM105.711 28.4993L105.743 29.1575L105.809 29.8484L105.903 30.53L106.024 31.2069L106.169 31.8698L106.342 32.5233L106.539 33.1629L106.763 33.7884L107.007 34.3953L107.273 34.9835L107.559 35.553L107.863 36.1038L108.186 36.6313L108.523 37.1402L109.234 38.0878L109.992 38.9468L110.23 39.1895L110.273 38.8674L110.371 38.4193L110.497 37.9991L110.652 37.6023L110.829 37.2336L111.026 36.8881L111.241 36.5613L111.714 35.9731L112.233 35.455L112.79 35.0021L113.253 34.68L112.954 34.0918L112.668 33.4523L112.416 32.7987L112.196 32.1358L112.008 31.4636L111.854 30.7821L111.732 30.0912L111.648 29.3956L111.592 28.4946H105.72L105.711 28.4993ZM138.476 34.6847L138.921 34.9928L139.473 35.4409L139.992 35.9545L140.465 36.538L140.68 36.8601L140.877 37.2055L141.054 37.5743L141.209 37.9664L141.34 38.3866L141.438 38.8347L141.489 39.1942L142.126 38.522L142.861 37.6163L143.212 37.1308L143.548 36.622L143.871 36.0898L144.175 35.539L144.461 34.9694L144.727 34.3812L144.971 33.7744L145.191 33.1489L145.387 32.5093L145.56 31.8557L145.705 31.1882L145.822 30.5113L145.915 29.8297L145.977 29.1388L146.009 28.504H140.137V28.6814L140.081 29.3816L139.997 30.0771L139.88 30.768L139.726 31.4496L139.538 32.1218L139.319 32.7847L139.066 33.4383L138.78 34.0778L138.472 34.6894L138.476 34.6847ZM126.372 36.6547L127.767 36.7714L129.151 37.0375L129.652 37.1775L129.975 36.664L130.434 35.8191L130.836 34.9554L131.187 34.0731L131.397 33.4429L128.946 33.1815L126.377 33.0742V36.6453L126.372 36.6547ZM120.327 33.4523L120.547 34.1058L120.898 34.9881L121.305 35.8517L121.764 36.6967L122.068 37.1822L123.013 36.9348L124.416 36.7154L125.343 36.6547V33.0835L122.428 33.2142L120.318 33.4476L120.327 33.4523ZM132.689 32.6307L134.176 32.9481L135.505 33.3262L136.478 33.6763L137.587 34.1805L137.859 33.6437L138.121 33.0508L138.355 32.4439L138.561 31.8278L138.734 31.2022L138.874 30.5673L138.986 29.9278L139.066 29.2836L139.117 28.5086H133.25V28.6394L133.194 29.6197L133.087 30.5953L132.927 31.5663L132.689 32.64V32.6307ZM112.603 28.4993V28.6533L112.654 29.3022L112.733 29.9464L112.846 30.586L112.991 31.2209L113.164 31.8464L113.37 32.4626L113.604 33.0695L113.87 33.6624L114.133 34.1759L114.909 33.8117L115.878 33.4383L117.202 33.0368L119.031 32.6307L119.008 32.5513L118.797 31.585L118.638 30.614L118.531 29.6383L118.47 28.504H112.603V28.4993ZM119.49 28.4993V28.6207L119.546 29.5496L119.649 30.474L119.798 31.3936L120.042 32.4626L122.353 32.2012L125.348 32.0658V28.4993H119.49ZM126.372 32.0658L129.362 32.2012L131.678 32.4626L131.73 32.2805L131.926 31.3656L132.076 30.4459L132.179 29.5216L132.235 28.4993H126.372V32.0658ZM140.137 27.4816H146.009L145.995 27.0568L145.939 26.3659L145.855 25.6797L145.743 25.0028L145.607 24.3352L145.443 23.677L145.251 23.0328L145.036 22.4026L144.798 21.791L144.535 21.1935L144.255 20.6147L143.955 20.0592L143.637 19.5223L143.305 19.0088L142.598 18.0425L141.85 17.1695L141.48 16.7867L141.438 17.1135L141.34 17.5617L141.213 17.9818L141.059 18.3786L140.881 18.7474L140.685 19.0928L140.47 19.4196L139.997 20.0078L139.478 20.5213L138.921 20.9741L138.458 21.2962L138.757 21.8844L139.043 22.524L139.295 23.1775L139.515 23.8404L139.702 24.5173L139.857 25.1989L139.978 25.8898L140.062 26.5853L140.119 27.4863L140.137 27.4816ZM133.25 27.4816H139.117V27.3276L139.066 26.6787L138.986 26.0344L138.874 25.3949L138.729 24.7601L138.556 24.1345L138.35 23.5183L138.116 22.9114L137.85 22.3186L137.587 21.8051L136.806 22.1692L135.838 22.5427L134.513 22.9441L132.68 23.3502L132.782 23.7517L132.974 24.718L133.115 25.6937L133.208 26.6694L133.241 27.4816H133.25ZM126.372 27.4816H132.23L132.197 26.7394L132.109 25.8151L131.973 24.8908L131.79 23.9758L131.673 23.5183L129.367 23.7797L126.372 23.9151V27.4816ZM119.495 27.4816H125.352V23.9151L122.363 23.7797L120.051 23.5183L119.93 24.0038L119.747 24.9188L119.616 25.8384L119.532 26.7627L119.504 27.477L119.495 27.4816ZM112.607 27.4816H118.474L118.507 26.6974L118.596 25.7217L118.737 24.746L119.036 23.3502L117.544 23.0328L116.215 22.6547L115.242 22.3046L114.133 21.8004L113.861 22.3372L113.599 22.9301L113.365 23.537L113.164 24.1532L112.991 24.7787L112.851 25.4136L112.738 26.0531L112.659 26.6974L112.607 27.4723V27.4816ZM105.715 27.4816H111.587V27.3042L111.644 26.604L111.728 25.9084L111.845 25.2175L111.999 24.536L112.186 23.8591L112.406 23.1962L112.659 22.5427L112.944 21.9031L113.253 21.2916L112.809 20.9835L112.256 20.5353L111.737 20.0218L111.265 19.4383L111.049 19.1162L110.853 18.7707L110.675 18.4019L110.521 18.0098L110.389 17.5896L110.291 17.1415L110.24 16.7774L109.482 17.599L109.112 18.0471L108.41 19.0135L108.078 19.527L107.765 20.0638L107.465 20.6193L107.184 21.1982L106.927 21.7957L106.689 22.4119L106.473 23.0422L106.282 23.6863L106.118 24.3446L105.982 25.0121L105.875 25.689L105.795 26.3752L105.729 27.4723L105.715 27.4816ZM126.372 19.3262V22.8974L129.287 22.7667L131.402 22.5333L131.182 21.8844L130.953 21.2962L130.7 20.7127L130.424 20.1385L130.125 19.5736L129.662 18.8034L128.712 19.0508L127.308 19.2702L126.382 19.3309L126.372 19.3262ZM120.327 22.5286L122.784 22.7901L125.352 22.8974V19.3262L123.958 19.2095L122.573 18.9434L122.068 18.7987L121.918 19.0321L121.591 19.5877L121.291 20.1525L121.015 20.7267L120.762 21.3102L120.533 21.8984L120.318 22.5286H120.327ZM130.639 18.4346L130.667 18.4766L131.014 19.0695L131.332 19.6717L131.627 20.2832L131.894 20.9041L132.137 21.5297L132.417 22.3652L134.261 21.9591L135.51 21.581L136.703 21.1048L137.077 20.9228L136.885 20.624L136.511 20.0918L136.109 19.5783L135.683 19.0882L135.234 18.6167L134.761 18.1685L134.266 17.7437L133.751 17.3422L132.895 16.7634L132.525 17.1835L132.029 17.6177L131.477 17.9911L130.63 18.4253L130.639 18.4346ZM114.647 20.9228L115.326 21.2402L116.533 21.6884L118.114 22.1225L119.307 22.3652L119.363 22.1785L119.579 21.5483L119.822 20.9228L120.089 20.3066L120.379 19.695L120.697 19.0928L121.085 18.4393L120.444 18.1265L119.878 17.7764L119.363 17.3656L118.816 16.7774L118.474 16.9968L117.941 17.3703L117.426 17.7717L116.935 18.1965L116.463 18.6447L116.014 19.1162L115.588 19.611L115.19 20.1245L114.638 20.9321L114.647 20.9228ZM111.213 15.8951V16.1565L111.231 16.5766L111.288 16.9688L111.372 17.3376L111.48 17.683L111.606 18.0051L111.915 18.5887L112.284 19.1068L112.705 19.569L113.169 19.9798L113.768 20.4139L113.978 20.0778L114.381 19.5036L114.811 18.9528L115.27 18.4206L115.751 17.9118L116.261 17.4263L116.79 16.9688L117.342 16.5393L118.316 15.8811L118.189 15.5216L118.095 15.0688L118.063 14.588L118.1 14.0885L118.212 13.575L118.404 13.0568L118.498 12.8654H118.484L117.492 12.9821L116.463 13.1875L115.934 13.3322L115.4 13.5003L114.863 13.701L114.315 13.9298L113.768 14.1912L113.216 14.4853L112.663 14.8167L112.111 15.1855L111.203 15.8858L111.213 15.8951ZM133.414 15.8951L133.793 16.1332L134.368 16.5346L134.92 16.9641L135.454 17.4216L135.964 17.9024L136.45 18.4112L136.909 18.9388L137.339 19.4896L137.971 20.4186L138.341 20.1618L138.822 19.7697L139.267 19.3309L139.66 18.8361L139.997 18.2806L140.142 17.9771L140.268 17.655L140.371 17.3096L140.451 16.9408L140.502 16.544L140.526 16.1192L140.516 15.8998L140.133 15.587L139.585 15.1855L139.033 14.8214L138.481 14.49L137.929 14.1959L137.382 13.9344L136.834 13.7057L136.291 13.5096L135.758 13.3416L134.715 13.0848L133.704 12.9261L133.222 12.8841L133.414 13.3042L133.573 13.8177L133.653 14.3219L133.667 14.5693L133.639 15.0501L133.55 15.5076L133.414 15.9044V15.8951ZM126.372 14.7701V18.3132L127.855 18.1732L129.114 17.9024L130.087 17.571L130.957 17.1369L131.552 16.7167L132.006 16.2685L131.524 16.0258L130.929 15.7644L130.321 15.531L129.704 15.3256L129.077 15.1529L128.44 15.0128L127.799 14.9008L127.154 14.8214L126.377 14.7701H126.372ZM119.719 16.2639L120.056 16.6093L120.627 17.0435L121.291 17.4123L122.227 17.781L123.457 18.0938L124.983 18.2852L125.357 18.3039V14.7607H125.202L124.552 14.8121L123.907 14.8914L123.265 15.0035L122.629 15.1482L122.002 15.3209L121.385 15.5263L120.776 15.7597L120.182 16.0258L119.724 16.2545L119.719 16.2639ZM126.372 13.7524H126.55L127.247 13.8084L127.944 13.8924L128.637 14.0091L129.32 14.1632L129.999 14.3499L130.663 14.5693L131.318 14.8214L131.959 15.1061L132.516 15.3863L132.623 14.9194L132.642 14.5833L132.609 14.2285L132.52 13.8551L132.371 13.4629L132.151 13.0568L131.856 12.646L131.481 12.2352L131.023 11.8291L130.48 11.4463L129.858 11.0915L129.161 10.7787L128.394 10.522L127.575 10.3306L126.718 10.2139L126.363 10.1905V13.7524H126.372ZM125.352 10.1905L124.543 10.2652L123.705 10.4239L122.914 10.6527L122.18 10.9421L121.52 11.2782L120.94 11.6517L120.44 12.0531L120.023 12.4639L119.691 12.8794L119.439 13.2902L119.26 13.6917L119.148 14.0745L119.092 14.4386V14.6113L119.134 15.1061L119.209 15.3769L119.742 15.1109L120.383 14.8261L121.039 14.574L121.703 14.3546L122.377 14.1678L123.06 14.0138L123.752 13.8924L124.449 13.8084L125.352 13.7524V10.1905ZM132.506 11.8337L133.283 11.8617L133.816 11.9084L134.359 11.9831L134.911 12.0812L135.473 12.2072L136.043 12.3613L136.619 12.5433L137.204 12.758L137.793 13.0054L138.387 13.2856L138.982 13.603L139.576 13.9578L140.282 14.4339L140.189 14.1072L139.969 13.519L139.679 12.8981L139.305 12.2399L138.841 11.5536L138.275 10.8441L137.601 10.1252L136.797 9.39224L135.861 8.66869L135.341 8.31391L134.79 7.96846L134.2 7.63699L133.578 7.31956L132.918 7.02082L132.225 6.7407L131.505 6.48863L130.757 6.25988L129.98 6.06382L129.184 5.89578L128.37 5.76504L127.542 5.66703L126.382 5.60166V9.1682L127.308 9.25222L128.239 9.42492L129.123 9.67703L129.947 9.99912L130.7 10.3773L131.369 10.8021L131.954 11.2642L132.516 11.8291L132.506 11.8337ZM125.352 5.60633L125.006 5.61565L124.164 5.67169L123.336 5.7697L122.517 5.90044L121.721 6.06848L120.945 6.26921L120.196 6.49796L119.471 6.75473L118.783 7.03481L118.124 7.33359L117.501 7.65102L116.907 7.98245L116.355 8.3279L115.831 8.68268L114.895 9.40627L114.091 10.1392L113.412 10.8674L112.841 11.5863L112.378 12.2726L112.008 12.9308L111.723 13.5563L111.508 14.1445L111.428 14.4293L111.522 14.3592L112.116 13.9624L112.71 13.6077L113.304 13.2902L113.898 13.0102L114.488 12.7627L115.073 12.548L115.649 12.3659L116.219 12.2119L116.781 12.0858L117.876 11.9131L119.209 11.8337L119.49 11.5303L120.028 11.0495L120.655 10.6013L121.366 10.1952L122.157 9.84041L123.013 9.551L123.925 9.33624L124.875 9.20554L125.348 9.17286V5.60633H125.352Z" fill="white"/>
</g>
<defs>
<clipPath id="clip0_318_9582">
<rect width="153" height="56" fill="white" transform="translate(0.925781)"/>
</clipPath>
</defs>
</svg>
