<svg width="205" height="50" viewBox="0 0 205 50" fill="none" xmlns="http://www.w3.org/2000/svg">
<path d="M15.5457 35.8212L4.48833 37.0624L10.9761 22.0802L4.32715 13.0135L20.4941 11.1679L24.8864 1.07764L34.5092 14.1579L45.5666 12.9167L39.103 27.8264L45.7036 36.8287L29.6253 38.6581L25.1685 48.9015L15.5457 35.8212ZM20.1395 34.83C19.7124 35.0395 19.261 35.2087 18.7936 35.3377L18.3745 35.4586L24.6124 43.937L26.8287 38.8435L26.4258 38.7951C24.2497 38.5211 22.2672 37.3445 20.9857 35.5795L20.3652 34.7252L20.1395 34.83ZM17.9715 27.1495L23.0005 34.1046C24.0241 35.515 25.6762 36.3612 27.417 36.3612C27.6185 36.3612 27.82 36.3532 28.0215 36.329L41.142 34.838L35.9196 27.6975C35.6617 27.3429 35.3635 27.0286 35.025 26.7465L34.7188 26.4886L30.9793 34.9347L24.4754 26.3274L17.9715 27.1495ZM18.1972 18.6711C16.2469 18.8726 14.5544 20.1217 13.7726 21.927L8.50186 34.0885L17.2543 33.1053C17.6895 33.0569 18.1166 32.9521 18.5196 32.8071L18.8903 32.6701L13.4745 25.191L24.153 23.8371L26.6917 17.7684L18.1972 18.6711ZM26.458 24.8123L30.4151 30.0589L32.8329 24.6027L33.8967 22.201C34.6946 20.4038 34.4609 18.3084 33.3003 16.7207L25.4506 6.05022L21.9206 14.1579C21.7433 14.5608 21.6224 14.9799 21.5418 15.4071L21.4773 15.802L30.6327 14.8348L26.458 24.8123ZM36.0727 16.5031L36.2259 16.8739C37.0721 18.9048 37.056 21.2178 36.1694 23.2165L35.7423 24.1836L35.9518 24.3287C36.3468 24.5947 36.7175 24.9009 37.064 25.2394L37.3783 25.5456L41.5611 15.8906L36.0727 16.5031ZM8.89677 15.0202L12.2333 19.5657L12.4751 19.2513C13.8049 17.5267 15.7875 16.4145 17.9312 16.1808L18.979 16.0679L18.9951 15.81C19.0273 15.2862 19.116 14.7623 19.261 14.2465L19.3819 13.8113L8.89677 15.0202Z" fill="url(#paint0_linear_318_9767)"/>
<path d="M22.6959 49.0986C15.7488 48.4297 9.51893 44.8191 5.43286 39.097L8.22944 38.7827C8.68882 39.3469 9.18043 39.8949 9.68817 40.4026C12.7185 43.449 16.5144 45.5042 20.673 46.3504L22.6959 49.0986Z" fill="url(#paint1_linear_318_9767)"/>
<path d="M28.5153 46.5115C33.0204 45.7861 37.1065 43.6746 40.3624 40.4106C40.6526 40.1205 40.9508 39.8061 41.2409 39.4757L44.6339 39.0889C40.5639 44.8029 34.3341 48.4215 27.395 49.0985L28.5153 46.5115Z" fill="url(#paint2_linear_318_9767)"/>
<path d="M45.3223 32.7253C46.2491 30.2673 46.7165 27.6641 46.7165 24.9965C46.7165 22.6432 46.3458 20.3301 45.6205 18.1219L46.9825 14.9868C48.409 18.138 49.1343 21.4987 49.1343 24.9965C49.1343 28.4862 48.417 31.8469 46.9905 34.99L45.3223 32.7253Z" fill="url(#paint3_linear_318_9767)"/>
<path d="M3.08567 35.024C1.65112 31.8728 0.925781 28.4959 0.925781 24.9982C0.925781 21.4763 1.65918 18.0833 3.10985 14.916L4.77007 17.1807C3.81907 19.671 3.33551 22.2983 3.33551 24.9982C3.33551 27.3596 3.70624 29.6807 4.43964 31.897L3.08567 35.024Z" fill="url(#paint4_linear_318_9767)"/>
<path d="M5.52734 10.7579C9.60535 5.1325 15.7949 1.56223 22.6775 0.901367L21.5492 3.4884C17.0441 4.21374 12.9419 6.32528 9.68594 9.59736C9.44416 9.8472 9.19432 10.1051 8.94449 10.3791L5.52734 10.7579Z" fill="url(#paint5_linear_318_9767)"/>
<path d="M41.84 11.2173C41.3725 10.6451 40.8809 10.1051 40.3732 9.5893C37.3509 6.55094 33.555 4.49582 29.4045 3.64959L27.3896 0.901367C34.3206 1.57029 40.5505 5.18086 44.6285 10.903L41.84 11.2173Z" fill="url(#paint6_linear_318_9767)"/>
<path d="M197.3 37.284C193.564 37.284 190.54 34.2452 190.54 30.5244V20.1478H186.345V16.4123H190.54V12.5581H194.276V16.4123H201.272V20.1478H194.276V30.5244C194.276 32.1995 195.639 33.5633 197.314 33.5633H200.576C202.503 33.5633 204.074 35.1346 204.074 37.0617V37.2988H197.3V37.284Z" fill="url(#paint7_linear_318_9767)"/>
<path d="M63.1548 12.5581H59.4192V37.284H63.1548V12.5581Z" fill="white"/>
<path d="M99.5434 12.5581H95.8079V37.284H99.5434V12.5581Z" fill="white"/>
<path d="M104.213 37.284V37.0617C104.213 35.1346 105.784 33.5633 107.712 33.5633H120.43C121.364 33.5633 122.239 33.1927 122.876 32.5108C123.528 31.8289 123.855 30.9395 123.81 30.0056C123.721 28.1971 122.194 26.7888 120.341 26.7888H111.329C109.387 26.7888 107.578 26.018 106.229 24.6394C104.88 23.246 104.169 21.4227 104.213 19.4808C104.317 15.6711 107.578 12.5581 111.477 12.5581H125.782V12.7953C125.782 14.7224 124.21 16.2937 122.283 16.2937H111.314C110.38 16.2937 109.505 16.6643 108.868 17.3462C108.216 18.028 107.889 18.9175 107.934 19.8514C108.023 21.6599 109.55 23.0681 111.403 23.0681H120.415C122.357 23.0681 124.166 23.8389 125.515 25.2175C126.864 26.611 127.575 28.4343 127.531 30.3762C127.427 34.1859 124.166 37.2988 120.267 37.2988H104.213V37.284Z" fill="white"/>
<path d="M88.5001 37.284C87.2845 37.284 86.1579 36.7355 85.4019 35.8016L78.7609 27.4856H74.1063V27.2484C74.1063 25.3213 75.6776 23.75 77.6047 23.75H83.6675C85.728 23.75 87.4031 22.0749 87.4031 20.0144V17.2127C87.4031 16.6939 86.988 16.2788 86.4692 16.2788H72.4757C71.9568 16.2788 71.5418 16.6939 71.5418 17.2127V37.284H67.821V15.1226C67.821 13.7144 68.9773 12.5581 70.3855 12.5581H88.589C89.9972 12.5581 91.1535 13.7144 91.1535 15.1226V20.0292C91.1535 23.6759 88.4408 26.8481 84.8386 27.4114L84.4384 27.4707L92.2949 37.2988H88.5001V37.284Z" fill="white"/>
<path d="M166.035 37.2721C162.3 37.2721 159.276 34.2333 159.276 30.5125V23.16C159.276 19.4244 162.315 16.4004 166.035 16.4004H175.834C177.672 16.4004 179.392 17.1267 180.681 18.4461C181.971 19.7654 182.638 21.5146 182.594 23.3527C182.49 26.9845 179.392 29.9344 175.686 29.9344H164.405V29.6972C164.405 27.7702 165.976 26.1988 167.903 26.1988H175.76C177.361 26.1988 178.71 24.9981 178.858 23.4565C178.932 22.5967 178.665 21.7666 178.087 21.1291C177.509 20.4917 176.694 20.136 175.849 20.136H166.05C164.375 20.136 163.011 21.4997 163.011 23.1748V30.5274C163.011 32.2024 164.375 33.5662 166.05 33.5662H179.11C181.037 33.5662 182.608 35.1375 182.608 37.0646V37.3018H166.035V37.2721Z" fill="url(#paint8_linear_318_9767)"/>
<path d="M155.305 37.2823C153.377 37.2823 151.806 35.711 151.806 33.7839V23.8668C151.806 21.9991 150.294 20.487 148.426 20.487H136.879C136.36 20.487 135.945 20.9021 135.945 21.4209V37.2823H132.209V19.316C132.209 17.9077 133.365 16.7515 134.774 16.7515H148.426C152.355 16.7515 155.542 19.9386 155.542 23.8668V37.2823H155.305Z" fill="url(#paint9_linear_318_9767)"/>
<defs>
<linearGradient id="paint0_linear_318_9767" x1="5.55266" y1="44.3921" x2="43.1497" y2="6.79503" gradientUnits="userSpaceOnUse">
<stop stop-color="#009DDE"/>
<stop offset="0.5" stop-color="#694D9F"/>
<stop offset="1" stop-color="#ED3554"/>
</linearGradient>
<linearGradient id="paint1_linear_318_9767" x1="9.66592" y1="48.4994" x2="47.263" y2="10.9024" gradientUnits="userSpaceOnUse">
<stop stop-color="#009DDE"/>
<stop offset="0.5" stop-color="#694D9F"/>
<stop offset="1" stop-color="#ED3554"/>
</linearGradient>
<linearGradient id="paint2_linear_318_9767" x1="20.384" y1="59.2248" x2="57.981" y2="21.6278" gradientUnits="userSpaceOnUse">
<stop stop-color="#009DDE"/>
<stop offset="0.5" stop-color="#694D9F"/>
<stop offset="1" stop-color="#ED3554"/>
</linearGradient>
<linearGradient id="paint3_linear_318_9767" x1="16.5674" y1="55.4083" x2="54.1645" y2="17.8112" gradientUnits="userSpaceOnUse">
<stop stop-color="#009DDE"/>
<stop offset="0.5" stop-color="#694D9F"/>
<stop offset="1" stop-color="#ED3554"/>
</linearGradient>
<linearGradient id="paint4_linear_318_9767" x1="-5.3835" y1="33.4488" x2="32.2136" y2="-4.14822" gradientUnits="userSpaceOnUse">
<stop stop-color="#009DDE"/>
<stop offset="0.5" stop-color="#694D9F"/>
<stop offset="1" stop-color="#ED3554"/>
</linearGradient>
<linearGradient id="paint5_linear_318_9767" x1="-9.20326" y1="29.646" x2="28.3938" y2="-7.95109" gradientUnits="userSpaceOnUse">
<stop stop-color="#009DDE"/>
<stop offset="0.5" stop-color="#694D9F"/>
<stop offset="1" stop-color="#ED3554"/>
</linearGradient>
<linearGradient id="paint6_linear_318_9767" x1="1.5369" y1="40.3726" x2="39.134" y2="2.77553" gradientUnits="userSpaceOnUse">
<stop stop-color="#009DDE"/>
<stop offset="0.5" stop-color="#694D9F"/>
<stop offset="1" stop-color="#ED3554"/>
</linearGradient>
<linearGradient id="paint7_linear_318_9767" x1="135.564" y1="45.2919" x2="203.462" y2="22.8926" gradientUnits="userSpaceOnUse">
<stop stop-color="#009DDE"/>
<stop offset="0.5" stop-color="#694D9F"/>
<stop offset="1" stop-color="#ED3554"/>
</linearGradient>
<linearGradient id="paint8_linear_318_9767" x1="133.827" y1="40.0168" x2="201.725" y2="17.6176" gradientUnits="userSpaceOnUse">
<stop stop-color="#009DDE"/>
<stop offset="0.5" stop-color="#694D9F"/>
<stop offset="1" stop-color="#ED3554"/>
</linearGradient>
<linearGradient id="paint9_linear_318_9767" x1="131.051" y1="31.6088" x2="198.949" y2="9.20962" gradientUnits="userSpaceOnUse">
<stop stop-color="#009DDE"/>
<stop offset="0.5" stop-color="#694D9F"/>
<stop offset="1" stop-color="#ED3554"/>
</linearGradient>
</defs>
</svg>
