<svg width="113" height="42" viewBox="0 0 113 42" fill="none" xmlns="http://www.w3.org/2000/svg">
    <path fill-rule="evenodd" clip-rule="evenodd"
          d="M40.7938 20.9603C40.7938 32.0905 31.8412 41.1129 20.7976 41.1129C9.75408 41.1129 0.801514 32.0905 0.801514 20.9603C0.801514 9.83026 9.75408 0.807617 20.7976 0.807617C31.8412 0.807617 40.7938 9.83026 40.7938 20.9603Z"
          stroke="white" stroke-width="2"/>
    <path fill-rule="evenodd" clip-rule="evenodd"
          d="M29.0725 15.9255L23.7839 15.7047L27.3756 11.7844L25.9305 10.328L22.0362 13.9405L21.8252 8.60889H19.7812L19.5623 13.9387L15.6726 10.3189L14.2272 11.7755L17.8119 15.7003L12.5215 15.9129V17.9727L17.81 18.1935L14.2184 22.1138L15.6637 23.5705L19.498 20.0132L19.6649 28.6477L16.6061 28.8732V30.7916L19.711 31.0291L19.7689 34.0282H21.8128L21.8728 31.0336L25.0102 30.7937V28.8753L21.9208 28.6475L22.0938 20.0173L25.9215 23.5793L27.3671 22.1227L23.7823 18.1979L29.0725 17.9853V15.9255Z"
          fill="white"/>
    <path fill-rule="evenodd" clip-rule="evenodd"
          d="M73.914 28.8179C73.1539 29.2556 72.2309 29.4746 71.1178 29.4746C68.4847 29.4746 67.2125 27.9413 66.666 26.4104C66.2409 25.22 66.2317 24.4253 66.2317 23.7688V15.5488H70.0592V23.5923C70.0592 24.933 70.8736 26.1368 72.4753 26.1368C74.1041 26.1368 75.2442 24.9876 75.2442 23.7567V15.5215H79.0447V29.0915H75.7409L75.3528 27.4228C75.1627 27.8878 74.7013 28.3528 73.914 28.8179Z"
          fill="white"/>
    <path fill-rule="evenodd" clip-rule="evenodd"
          d="M85.4427 15.6039L85.8861 17.5189C86.8362 16.151 87.9763 15.385 89.3336 15.2208C91.9669 14.8926 93.7856 16.0689 94.5457 17.6284C94.9529 18.4765 95.1429 19.9266 95.1429 21.9784V29.0918H91.4782V21.8143C91.4782 19.4068 90.7994 18.4765 88.7364 18.4765C87.4061 18.4765 86.0761 19.8992 86.0761 22.334V29.0918H82.4114V15.6039H85.4427Z"
          fill="white"/>
    <path fill-rule="evenodd" clip-rule="evenodd"
          d="M108.395 22.2796C108.395 23.4559 108.042 24.4135 107.336 25.1249C106.658 25.8362 105.816 26.1919 104.839 26.1919C104.302 26.1919 103.807 26.084 103.352 25.8694L108.207 20.9768C108.332 21.3752 108.395 21.8078 108.395 22.2796ZM101.256 22.2796C101.256 21.1578 101.609 20.255 102.314 19.5164C103.047 18.7777 103.889 18.4219 104.839 18.4219C105.38 18.4219 105.885 18.5375 106.35 18.7731L101.46 23.7016C101.324 23.2713 101.256 22.7967 101.256 22.2796ZM113 16.1461L110.978 14.1089L108.802 16.3025C107.643 15.5052 106.313 15.1114 104.812 15.1114C102.803 15.1114 101.12 15.7955 99.7354 17.1908C98.351 18.5861 97.6723 20.255 97.6723 22.252C97.6723 23.7733 98.0672 25.1194 98.8667 26.3154L96.9204 28.277L98.9418 30.3145L100.869 28.3719C102.012 29.1653 103.322 29.557 104.812 29.557C106.793 29.557 108.477 28.8457 109.861 27.3957C111.245 25.9455 111.924 24.2495 111.924 22.252C111.924 20.7822 111.555 19.4905 110.809 18.3544L113 16.1461Z"
          fill="white"/>
    <path fill-rule="evenodd" clip-rule="evenodd"
          d="M59.1344 11.6064V22.5532C59.1344 24.605 57.9672 25.8361 56.4468 25.8361C55.3069 25.8361 54.3784 25.1643 53.6894 23.5351L50.2747 25.5133C51.4592 28.2025 53.6579 29.5571 56.8542 29.5571C58.6187 29.5571 60.1116 28.873 61.2789 27.5324C62.4463 26.1645 63.0435 24.4409 63.0435 22.389L62.9759 11.6064H59.1344Z"
          fill="white"/>
</svg>
