<svg width="142" height="46" viewBox="0 0 142 46" fill="none" xmlns="http://www.w3.org/2000/svg">
<path d="M13.6462 32.9022L13.2051 33.1565L13.2054 32.6475C13.2054 32.6475 13.1993 32.9078 13.3168 32.9728C13.4319 33.0366 13.6462 32.9022 13.6462 32.9022Z" fill="#8E3315"/>
<path d="M2.32715 32.376C4.81318 37.0767 9.06509 40.5968 14.1475 42.1629C19.2299 43.729 24.7265 43.2124 29.4281 40.7265C34.1297 38.2405 37.6511 33.9889 39.2178 28.9071C40.7843 23.8253 40.257 18.3292 37.7711 13.6284C40.0129 20.693 32.208 23.1749 32.208 23.1749L22.7619 28.1114L12.9447 33.2312C12.9447 33.2312 6.25381 37.5381 2.32715 32.376Z" fill="#473ADE"/>
<path d="M2.29175 32.4103C4.77778 37.1111 9.02969 40.6318 14.1121 42.198C19.1945 43.7641 24.6911 43.2475 29.3927 40.7615C34.0944 38.2756 37.6157 34.024 39.1822 28.9421C40.7489 23.8603 40.2323 18.3644 37.7464 13.6636C39.9883 20.7281 32.1727 23.2099 32.1727 23.2099L22.7266 28.1464L12.9093 33.2661C12.9093 33.2661 6.21846 37.5726 2.29175 32.4103Z" fill="url(#paint0_linear_318_9732)"/>
<path d="M32.2572 22.8198L32.6598 23.0373L32.0874 23.2446C32.0874 23.2446 32.3816 23.143 32.4236 23.0309C32.4649 22.9211 32.2572 22.8198 32.2572 22.8198Z" fill="#292282"/>
<path d="M37.8925 32.1671C40.3201 27.4358 40.7685 21.9341 39.139 16.872C37.5096 11.8099 33.936 7.60228 29.204 5.17466C24.472 2.74705 18.9695 2.29834 13.9068 3.92723C8.84415 5.55611 4.63616 9.12921 2.2085 13.8604C6.71335 7.97462 13.2265 12.9561 13.2265 12.9561L22.686 17.8669L32.5083 22.9767C32.5083 22.9767 39.8725 25.991 37.8925 32.1671Z" fill="#D71D6A"/>
<path d="M37.844 32.147C40.2644 27.4299 40.7115 21.9445 39.0871 16.8975C37.4624 11.8505 33.8994 7.65535 29.1815 5.23499C24.4636 2.81458 18.9774 2.36722 13.9299 3.99123C8.88229 5.6153 4.68681 9.17774 2.26636 13.8949C6.75776 8.02659 13.2516 12.9933 13.2516 12.9933L22.6829 17.8894L32.4761 22.984C32.4761 22.984 39.818 25.9894 37.844 32.147Z" fill="url(#paint1_linear_318_9732)"/>
<path d="M13.2084 13.4315L13.2002 12.8984L13.666 13.1578C13.666 13.1578 13.4308 13.0197 13.3115 13.0941C13.1946 13.167 13.2084 13.4315 13.2084 13.4315Z" fill="#741039"/>
<path d="M20.0519 2.95947C14.7338 2.95947 9.63354 5.07203 5.87306 8.83238C2.1126 12.5927 0 17.6929 0 23.0109C0 28.3289 2.1126 33.429 5.87306 37.1895C9.63354 40.9499 14.7338 43.0624 20.0519 43.0624C13.2265 41.9164 13.2265 33.0745 13.2265 33.0745V23.0109V12.7693C13.2265 12.7693 13.2265 4.181 20.0519 2.95947Z" fill="#FF5B25"/>
<path d="M20.0519 2.9126C14.7338 2.9126 9.63354 5.02516 5.87306 8.78553C2.11261 12.5459 0 17.646 0 22.964C0 28.282 2.1126 33.3821 5.87306 37.1426C9.63354 40.903 14.7338 43.0154 20.0519 43.0154C13.2265 40.835 13.2265 33.0854 13.2265 33.0854V22.9888V12.9565C13.2265 12.9565 12.9782 4.21196 20.0519 2.9126Z" fill="url(#paint2_linear_318_9732)"/>
<path d="M19.9992 43.0528C13.2265 39.9682 13.2345 33.0818 13.2345 33.0818C13.2345 33.0818 4.84015 37.8168 2.01416 31.7607C2.01416 31.7607 6.75145 43.0929 19.9992 43.0528Z" fill="#473ADE"/>
<path d="M55.0131 17.6862C54.3432 17.6862 53.757 17.8279 53.2545 18.1114C52.7521 18.3948 52.327 18.7813 51.9791 19.2708C51.6442 19.7604 51.3865 20.3273 51.2061 20.9714C51.0387 21.6156 50.9549 22.2919 50.9549 23.0005C50.9549 23.6704 51.0387 24.3274 51.2061 24.9716C51.3865 25.6029 51.6442 26.1697 51.9791 26.6722C52.327 27.1617 52.7521 27.5611 53.2545 27.8703C53.757 28.1666 54.3432 28.3147 55.0131 28.3147C55.5413 28.3147 56.0502 28.1988 56.5397 27.9669C57.0293 27.7221 57.4609 27.3743 57.8345 26.9234C58.2081 26.4725 58.5044 25.9185 58.7234 25.2615C58.9553 24.6044 59.0712 23.8508 59.0712 23.0005C59.0712 22.2404 58.9746 21.5383 58.7814 20.8941C58.601 20.2371 58.3369 19.6767 57.9891 19.2129C57.6412 18.7362 57.2161 18.3626 56.7136 18.092C56.2112 17.8215 55.6443 17.6862 55.0131 17.6862ZM55.0131 30.3052C53.8922 30.3052 52.9003 30.1184 52.0371 29.7448C51.1739 29.3712 50.4396 28.8623 49.8341 28.2181C49.2415 27.5611 48.7906 26.7881 48.4814 25.8992C48.1722 25.0102 48.0176 24.044 48.0176 23.0005C48.0176 21.9956 48.1722 21.0487 48.4814 20.1598C48.8034 19.2708 49.2608 18.4979 49.8534 17.8408C50.4589 17.1709 51.1932 16.6491 52.0564 16.2755C52.9196 15.889 53.9051 15.6958 55.0131 15.6958C56.2756 15.6958 57.3449 15.9148 58.221 16.3528C59.1099 16.7909 59.8313 17.3642 60.3853 18.0727C60.9522 18.7684 61.358 19.5543 61.6028 20.4303C61.8604 21.2935 61.9892 22.1502 61.9892 23.0005C61.9892 23.9538 61.8346 24.8685 61.5255 25.7446C61.2163 26.6206 60.7654 27.4 60.1727 28.0829C59.593 28.7528 58.8651 29.2939 57.9891 29.7061C57.1259 30.1055 56.1339 30.3052 55.0131 30.3052Z" fill="white"/>
<path d="M65.2177 15.9857H68.7154L71.788 26.8268L71.9233 27.5224L72.0779 26.8268L75.1312 15.9857H78.6482L79.9623 30.0346H77.4308L76.6771 19.4448L76.6192 18.5172L76.3873 19.4448L73.334 29.8414H70.4933L67.4013 19.4254L67.1694 18.5172L67.1115 19.4254L66.3965 30.0346H63.8649L65.2177 15.9857Z" fill="white"/>
<path d="M85.8644 20.1984L85.5553 19.5027L85.5939 20.1598V30.0346H83.2363V15.9857H85.9031L91.8357 25.4354L92.1063 26.2084L92.0676 25.4354V15.9857H94.5025V30.0346H92.0676L85.8644 20.1984Z" fill="white"/>
<path d="M100.751 30.0346H98.0644V15.9857H100.751V30.0346Z" fill="white"/>
<path d="M103.971 15.9857H112.397V17.9761H106.735V30.0346H103.971V15.9857ZM107.469 23.6382C107.533 23.4321 107.617 23.2131 107.72 22.9812C107.823 22.7493 107.952 22.5367 108.107 22.3435C108.261 22.1502 108.442 21.9956 108.648 21.8797C108.867 21.7508 109.118 21.6864 109.401 21.6864H111.74V23.6382H107.469Z" fill="white"/>
<path d="M115.237 15.9857H118.02V28.0249H123.083V30.0346H115.237V15.9857Z" fill="white"/>
<path d="M128.209 30.0346H125.523V15.9857H128.209V30.0346Z" fill="white"/>
<path d="M130.599 15.9857H133.652L136.029 20.6042L136.222 21.2033L136.377 20.6042L138.754 15.9857H141.787L137.594 22.9232L142 30.0346H139.005L130.599 15.9857ZM133.343 30.0346H130.386L134.212 23.7541C134.328 23.9216 134.463 24.1406 134.618 24.4112C134.773 24.6817 134.895 24.978 134.985 25.3001C135.088 25.6093 135.14 25.9378 135.14 26.2857C135.153 26.6206 135.075 26.9363 134.908 27.2326L133.343 30.0346Z" fill="white"/>
<defs>
<linearGradient id="paint0_linear_318_9732" x1="37.7479" y1="20.7234" x2="8.57438" y2="49.5301" gradientUnits="userSpaceOnUse">
<stop stop-opacity="0.6"/>
<stop offset="0.655513" stop-opacity="0"/>
</linearGradient>
<linearGradient id="paint1_linear_318_9732" x1="8.034" y1="9.85948" x2="48.2414" y2="17.2368" gradientUnits="userSpaceOnUse">
<stop stop-opacity="0.6"/>
<stop offset="0.645833" stop-opacity="0"/>
</linearGradient>
<linearGradient id="paint2_linear_318_9732" x1="10.7384" y1="40.5317" x2="-1.18838" y2="3.79258" gradientUnits="userSpaceOnUse">
<stop stop-opacity="0.6"/>
<stop offset="0.675464" stop-opacity="0"/>
</linearGradient>
</defs>
</svg>
