<svg width="150" height="36" viewBox="0 0 150 36" fill="none" xmlns="http://www.w3.org/2000/svg">
    <path fill-rule="evenodd" clip-rule="evenodd"
          d="M10.3081 9.87158H16.7913V3.61714H10.432C4.11409 3.44461 3.08175 4.47982 2.91068 11.4675V13.236C2.83399 19.4905 4.11409 21.2589 8.78028 21.1296H9.9365V26.1331H3.04045V32.3875H9.89521C14.8504 32.3875 15.1809 32.3013 16.4196 30.7916C17.2455 29.4113 17.4107 28.5055 17.5346 24.2784V22.5098C17.5346 16.428 16.2957 14.7889 11.6295 14.8752H10.3081V9.87158ZM29.0969 9.87148H32.4417V3.61705H18.3606V9.87148H21.7054V32.3875H29.0969V9.87148ZM41.4375 32.3875H34.0459V9.48327C34.1285 4.39346 35.0782 3.61705 41.4846 3.61705H44.4991C50.8996 3.61705 51.8494 4.35032 51.9319 9.48327V32.3875H44.5405V26.3055H41.4434V32.3875H41.4375ZM44.5346 19.9217V12.3301C44.5346 10.4754 44.039 9.6558 42.9654 9.6558C41.8918 9.6558 41.4375 10.5185 41.4375 12.3301V19.9217H44.5346ZM72.4903 9.18129C72.2839 4.22087 71.3755 3.4876 65.8834 3.617H54.6102V32.3874H62.0018V21.1295H62.9516C64.5206 21.1725 65.1401 21.9059 65.0989 23.7175V27.5564C65.0989 29.5837 65.264 31.1365 65.677 32.3874H73.0684C72.7381 31.1797 72.4903 29.4543 72.4903 27.5564V23.1135C72.573 19.8786 71.5406 18.4982 68.4436 17.6355C71.5406 17.3767 72.6142 15.5652 72.4903 11.0361V9.18129ZM65.1401 12.4164C65.1401 14.4437 64.7684 14.8749 63.0341 14.8749H62.0018V9.87143H63.0341C64.6033 9.87143 65.1401 10.5184 65.1401 12.4164ZM92.7718 26.0037C92.8543 31.7405 91.9872 32.517 85.4628 32.3875H82.407C75.3871 32.4738 74.8917 31.9562 74.9742 24.6234L74.9329 22.3805V13.7537C75.0095 4.39353 75.629 3.57398 82.4011 3.61712H92.7659V10.6911C91.8987 10.2598 89.8341 9.95782 87.3977 9.87155H84.7962C82.525 9.87155 82.3186 10.0872 82.3186 12.5028V22.7255C82.2772 25.7449 82.4837 26.0899 84.1768 26.1331H85.3743V19.1885C85.3743 18.0239 85.1678 17.0318 84.7962 15.9535H92.7659V26.0037H92.7718ZM95.2847 32.3875H102.676V26.3055H105.773V32.3875H113.165V9.48327C113.082 4.35032 112.133 3.61705 105.732 3.61705H102.718C96.317 3.61705 95.3673 4.39346 95.2847 9.48327V32.3875ZM105.773 12.3301V19.9217H102.676V12.3301C102.676 10.5185 103.131 9.6558 104.204 9.6558C105.278 9.6558 105.773 10.4754 105.773 12.3301ZM130.013 3.61705L123.86 26.133H130.467L129.641 32.3875H114.858L121.093 9.87148H114.94L115.808 3.61705H130.013ZM139.428 9.87142H146.241V3.61697H139.345C132.903 3.53071 132.201 4.3934 132.037 12.8477V22.0352C131.994 26.2623 132.325 29.3681 132.903 30.3601C134.018 32.2148 134.431 32.3443 139.345 32.3874H146.241V26.133H139.428V21.1293H146.241V14.8749H139.428V9.87142Z"
          fill="url(#paint0_linear_318_9816)"/>
    <defs>
        <linearGradient id="paint0_linear_318_9816" x1="3.05015" y1="-1.31067" x2="153.353" y2="20.3163"
                        gradientUnits="userSpaceOnUse">
            <stop stop-color="#FFF59E"/>
            <stop offset="0.635417" stop-color="#81EFD9"/>
            <stop offset="1" stop-color="#6B9BE3"/>
        </linearGradient>
    </defs>
</svg>
