<svg width="133" height="56" viewBox="0 0 133 56" fill="none" xmlns="http://www.w3.org/2000/svg">
<g clip-path="url(#clip0_318_9796)">
<path d="M67.3466 46.2202H65.779L58.7559 37.1257V46.2202H56.7493V33.3882H58.2542L65.34 42.545V33.3882H67.3466V46.2202Z" fill="white"/>
<path d="M79.3861 46.2202H70.6072V37.188H79.3861V42.2959H72.363V44.663H79.3861V46.2202ZM77.6303 40.6763V38.8076H72.363V40.6763H77.6303Z" fill="white"/>
<path d="M81.2673 37.1882H82.6469V35.0703H84.4026V37.1882H87.9142V38.8701H84.4026V44.6632H87.8515V46.2205H82.6469V38.8701H81.2673V37.1882Z" fill="white"/>
<path d="M101.459 46.2202H90.4851V37.188H92.1782V44.663H95.1254V37.188H96.8811V44.663H99.8283V37.188H101.584V46.2202H101.459Z" fill="white"/>
<path d="M112.809 46.2202H104.406V37.188H112.809V46.2202ZM111.053 44.6007V38.8076H106.099V44.6007H111.053Z" fill="white"/>
<path d="M121.775 38.8074H117.7V46.1577H115.881V37.1255H121.775V38.8074Z" fill="white"/>
<path d="M132.436 46.2204H130.366L127.294 42.2338H125.726V46.2204H123.907V35.1948H125.726V40.4896H127.419L130.178 37.1882H132.185L128.799 41.2994L132.436 46.2204Z" fill="white"/>
<path d="M66.2179 24.1689H60.2608V11.4614H56.3103V27.7818H70.043V11.4614H66.2179V24.1689Z" fill="white"/>
<path d="M73.3037 30.0244H77.0661V27.8442H84.9671V15.8843H73.3037V30.0244ZM81.2674 19.3103V24.3559H77.0034V19.3103H81.2674Z" fill="white"/>
<path d="M91.7393 13.3926H88.165V15.8219H86.5347V19.3103H88.165V27.7819H95.6898V24.4182H91.7393V19.3103H95.8152V15.8219H91.7393V13.3926Z" fill="white"/>
<path d="M97.571 19.1237H99.1387V27.7822H102.901V15.8223H97.571V19.1237Z" fill="white"/>
<path d="M106.663 27.7822H117.888V24.4185H110.112V19.2483H117.888V15.8223H106.663V27.7822Z" fill="white"/>
<path d="M127.921 21.4281L132.498 15.8219H128.172L124.974 19.6839H124.158V13.5171H120.521V27.7818H124.158V23.1723H124.848L128.36 27.7818H132.749L127.921 21.4281Z" fill="white"/>
<path d="M24.3928 55.6264L12.8548 43.7911L8.65348 47.7777L3.26074 42.2338L26.6502 19.7466L43.5809 37.1259L24.3928 55.6264ZM18.373 38.1226L24.6436 44.5386L32.4819 37.0013L26.2112 30.5853L18.373 38.1226Z" fill="url(#paint0_linear_318_9796)"/>
<path opacity="0.2" d="M33.3597 15.5729L18.122 30.2114L11.9141 23.8576L25.1451 11.0879H13.7326L0.689697 23.6708L17.9339 41.3615L38.8778 21.2414L33.3597 15.5729Z" fill="#533E94"/>
<path opacity="0.2" d="M26.3366 8.34701L21.6337 3.48828L16.5544 8.34701H26.3366Z" fill="#533E94"/>
<path d="M33.2344 12.9567L17.934 27.5952L11.7261 21.1791L24.9571 8.47168H13.5446L0.501709 20.9923L17.7459 38.7453L38.7525 18.6252L33.2344 12.9567Z" fill="url(#paint1_linear_318_9796)"/>
<path d="M26.2111 5.10776L21.4455 0.249023L16.429 5.10776H26.2111Z" fill="url(#paint2_linear_318_9796)"/>
<path d="M97.3828 13.6418L100.267 10.7764L103.152 13.6418H97.3828Z" fill="white"/>
</g>
<defs>
<linearGradient id="paint0_linear_318_9796" x1="40.4013" y1="37.6913" x2="4.23357" y2="37.6913" gradientUnits="userSpaceOnUse">
<stop stop-color="#B827EE"/>
<stop offset="1" stop-color="#6D07FC"/>
</linearGradient>
<linearGradient id="paint1_linear_318_9796" x1="0.473867" y1="23.6133" x2="38.6819" y2="23.6133" gradientUnits="userSpaceOnUse">
<stop offset="0.0411859" stop-color="#F7D3F9"/>
<stop offset="0.9707" stop-color="white"/>
</linearGradient>
<linearGradient id="paint2_linear_318_9796" x1="16.4011" y1="2.68319" x2="26.1633" y2="2.68319" gradientUnits="userSpaceOnUse">
<stop stop-color="white"/>
<stop offset="1" stop-color="white"/>
</linearGradient>
<clipPath id="clip0_318_9796">
<rect width="133" height="56" fill="white"/>
</clipPath>
</defs>
</svg>
