<svg width="20" height="21" viewBox="0 0 20 21" fill="none" xmlns="http://www.w3.org/2000/svg">
<path fill-rule="evenodd" clip-rule="evenodd" d="M10 0.500122C4.47727 0.500122 0 4.97733 0 10.5C0 16.0226 4.47727 20.4998 10 20.4998C15.5227 20.4998 20 16.0226 20 10.5C20 4.97733 15.5227 0.500122 10 0.500122ZM10.9091 14.1363C10.9091 14.3774 10.8133 14.6086 10.6428 14.7791C10.4723 14.9496 10.2411 15.0454 10 15.0454C9.75889 15.0454 9.52766 14.9496 9.35718 14.7791C9.18669 14.6086 9.09091 14.3774 9.09091 14.1363V11.409H6.36364C6.12253 11.409 5.8913 11.3133 5.72081 11.1428C5.55032 10.9723 5.45455 10.7411 5.45455 10.5C5.45455 10.2589 5.55032 10.0276 5.72081 9.85716C5.8913 9.68667 6.12253 9.59089 6.36364 9.59089H9.09091V6.86366C9.09091 6.62256 9.18669 6.39133 9.35718 6.22085C9.52766 6.05036 9.75889 5.95459 10 5.95459C10.2411 5.95459 10.4723 6.05036 10.6428 6.22085C10.8133 6.39133 10.9091 6.62256 10.9091 6.86366V9.59089H13.6364C13.8775 9.59089 14.1087 9.68667 14.2792 9.85716C14.4497 10.0276 14.5455 10.2589 14.5455 10.5C14.5455 10.7411 14.4497 10.9723 14.2792 11.1428C14.1087 11.3133 13.8775 11.409 13.6364 11.409H10.9091V14.1363Z" fill="#F2F2F2"/>
</svg>
