<svg width="12" height="13" viewBox="0 0 12 13" fill="none" xmlns="http://www.w3.org/2000/svg">
    <path d="M6 5.83333C4.33333 5.83333 2.91667 5.57222 1.75 5.05C0.583333 4.52778 0 3.9 0 3.16667C0 2.43333 0.583333 1.80556 1.75 1.28333C2.91667 0.761111 4.33333 0.5 6 0.5C7.66667 0.5 9.08333 0.761111 10.25 1.28333C11.4167 1.80556 12 2.43333 12 3.16667C12 3.9 11.4167 4.52778 10.25 5.05C9.08333 5.57222 7.66667 5.83333 6 5.83333ZM6 9.16667C4.33333 9.16667 2.91667 8.90556 1.75 8.38333C0.583333 7.86111 0 7.23333 0 6.5V4.83333C0 5.32222 0.227778 5.73622 0.683333 6.07533C1.13889 6.414 1.68333 6.68889 2.31667 6.9C2.95 7.11111 3.60844 7.26378 4.292 7.358C4.97511 7.45267 5.54444 7.5 6 7.5C6.45556 7.5 7.02489 7.45267 7.708 7.358C8.39156 7.26378 9.05 7.11111 9.68333 6.9C10.3167 6.68889 10.8611 6.414 11.3167 6.07533C11.7722 5.73622 12 5.32222 12 4.83333V6.5C12 7.23333 11.4167 7.86111 10.25 8.38333C9.08333 8.90556 7.66667 9.16667 6 9.16667ZM6 12.5C4.33333 12.5 2.91667 12.2389 1.75 11.7167C0.583333 11.1944 0 10.5667 0 9.83333V8.16667C0 8.65556 0.227778 9.06956 0.683333 9.40867C1.13889 9.74733 1.68333 10.0222 2.31667 10.2333C2.95 10.4444 3.60844 10.5973 4.292 10.692C4.97511 10.7862 5.54444 10.8333 6 10.8333C6.45556 10.8333 7.02489 10.7862 7.708 10.692C8.39156 10.5973 9.05 10.4444 9.68333 10.2333C10.3167 10.0222 10.8611 9.74733 11.3167 9.40867C11.7722 9.06956 12 8.65556 12 8.16667V9.83333C12 10.5667 11.4167 11.1944 10.25 11.7167C9.08333 12.2389 7.66667 12.5 6 12.5Z"
          fill="white"/>
</svg>
