<svg class="add_icon" width="36" height="35" viewBox="0 0 36 35" fill="none" xmlns="http://www.w3.org/2000/svg">
    <path fill-rule="evenodd" clip-rule="evenodd"
          d="M18 0C8.33523 0 0.5 7.83523 0.5 17.5C0.5 27.1648 8.33523 35 18 35C27.6648 35 35.5 27.1648 35.5 17.5C35.5 7.83523 27.6648 0 18 0ZM19.5909 23.8636C19.5909 24.2856 19.4233 24.6902 19.1249 24.9886C18.8266 25.2869 18.4219 25.4545 18 25.4545C17.5781 25.4545 17.1734 25.2869 16.8751 24.9886C16.5767 24.6902 16.4091 24.2856 16.4091 23.8636V19.0909H11.6364C11.2144 19.0909 10.8098 18.9233 10.5114 18.6249C10.2131 18.3266 10.0455 17.9219 10.0455 17.5C10.0455 17.0781 10.2131 16.6734 10.5114 16.3751C10.8098 16.0767 11.2144 15.9091 11.6364 15.9091H16.4091V11.1364C16.4091 10.7144 16.5767 10.3098 16.8751 10.0114C17.1734 9.71307 17.5781 9.54545 18 9.54545C18.4219 9.54545 18.8266 9.71307 19.1249 10.0114C19.4233 10.3098 19.5909 10.7144 19.5909 11.1364V15.9091H24.3636C24.7856 15.9091 25.1902 16.0767 25.4886 16.3751C25.7869 16.6734 25.9545 17.0781 25.9545 17.5C25.9545 17.9219 25.7869 18.3266 25.4886 18.6249C25.1902 18.9233 24.7856 19.0909 24.3636 19.0909H19.5909V23.8636Z"/>
    <defs>
        <linearGradient id="paint0_linear" x1="0.5" y1="17.1819" x2="35.5" y2="17.1819" gradientUnits="userSpaceOnUse">
            <stop stop-color="#D61D6A"/>
            <stop offset="1" stop-color="#7645FF"/>
        </linearGradient>
    </defs>
</svg>
