<svg width="24" height="24" viewBox="0 0 24 24" fill="none" xmlns="http://www.w3.org/2000/svg">
<path d="M20.91 11.2338C20.91 11.1348 20.856 11.0358 20.829 10.9368C20.7873 10.7622 20.7332 10.5907 20.667 10.4238C20.622 10.3158 20.559 10.2078 20.505 10.0908C20.451 9.97382 20.37 9.82082 20.289 9.69482C20.208 9.56882 20.1 9.50582 20.1 9.43382C20.1 9.36182 19.92 9.20882 19.821 9.10082C19.722 8.99282 19.632 8.92082 19.533 8.83082L19.2 8.53382L18.876 8.31782C18.7488 8.23998 18.6165 8.17083 18.48 8.11082L18.129 7.94882C17.982 7.89438 17.8317 7.84929 17.679 7.81382C17.558 7.77824 17.4347 7.75117 17.31 7.73282L17.103 7.63382C16.7358 6.57277 16.0469 5.65258 15.1323 5.00129C14.2177 4.35 13.1228 4 12 4C10.8772 4 9.78231 4.35 8.8677 5.00129C7.95309 5.65258 7.26424 6.57277 6.897 7.63382L6.735 7.67882C6.61026 7.69717 6.48696 7.72424 6.366 7.75982C6.2133 7.79529 6.063 7.84038 5.916 7.89482L5.565 8.05682C5.42849 8.11683 5.29619 8.18598 5.169 8.26382L4.845 8.53382L4.512 8.81282C4.413 8.90282 4.314 8.98382 4.224 9.08282C4.134 9.18182 4.035 9.30782 3.945 9.41582C3.855 9.52382 3.783 9.62282 3.711 9.73982C3.639 9.85682 3.567 10.0008 3.495 10.1358C3.423 10.2708 3.378 10.3608 3.333 10.4688C3.2668 10.6357 3.21266 10.8072 3.171 10.9818C3.171 11.0808 3.108 11.1798 3.09 11.2788C3.03398 11.5605 3.00386 11.8467 3 12.1338C3.00422 12.4086 3.03131 12.6825 3.081 12.9528C3.081 13.0428 3.126 13.1238 3.144 13.2138C3.18848 13.3906 3.24256 13.5649 3.306 13.7358L3.414 13.9968C3.49323 14.1704 3.58341 14.3387 3.684 14.5008L3.81 14.6988C3.82295 14.724 3.838 14.7481 3.855 14.7708L3.9 14.8338C4.31916 15.3927 4.86269 15.8463 5.48754 16.1587C6.11239 16.4712 6.8014 16.6338 7.5 16.6338H10.2V15.4008C9.92654 15.5594 9.61613 15.6433 9.3 15.6438C8.81243 15.6393 8.34648 15.4419 8.004 15.0948C7.83956 14.9247 7.71027 14.7239 7.62353 14.5037C7.53679 14.2836 7.49429 14.0485 7.49847 13.812C7.50265 13.5754 7.55342 13.342 7.64789 13.1251C7.74235 12.9082 7.87866 12.712 8.049 12.5478L10.749 9.93782C11.0849 9.61404 11.5334 9.43334 12 9.43382C12.4766 9.43583 12.933 9.62679 13.269 9.96482L15.969 12.6648C16.3043 13.0021 16.4924 13.4583 16.4924 13.9338C16.4924 14.4094 16.3043 14.8656 15.969 15.2028C15.633 15.5408 15.1766 15.7318 14.7 15.7338C14.3834 15.7368 14.0721 15.6527 13.8 15.4908V16.6338H16.5C17.1986 16.6338 17.8876 16.4712 18.5125 16.1587C19.1373 15.8463 19.6808 15.3927 20.1 14.8338L20.145 14.7888C20.162 14.7661 20.1771 14.742 20.19 14.7168L20.316 14.5188C20.4166 14.3567 20.5068 14.1884 20.586 14.0148L20.694 13.7538C20.7574 13.5829 20.8115 13.4086 20.856 13.2318C20.856 13.1418 20.901 13.0608 20.919 12.9708C20.9697 12.6946 20.9968 12.4146 21 12.1338C20.999 11.8316 20.9688 11.5302 20.91 11.2338Z" fill="url(#paint0_linear_472_11813)"/>
<path d="M12.6388 10.5948C12.4705 10.4299 12.2443 10.3375 12.0088 10.3375C11.7732 10.3375 11.547 10.4299 11.3788 10.5948L8.67875 13.2048C8.58325 13.2836 8.50504 13.3813 8.44901 13.4917C8.39297 13.6021 8.36032 13.7229 8.3531 13.8465C8.34587 13.9701 8.36423 14.0938 8.40702 14.21C8.4498 14.3262 8.51611 14.4323 8.60177 14.5217C8.68744 14.6111 8.79063 14.6818 8.90489 14.7295C9.01915 14.7772 9.14202 14.8008 9.26582 14.7989C9.38962 14.7969 9.51168 14.7694 9.62437 14.7181C9.73706 14.6668 9.83796 14.5929 9.92075 14.5008L11.0998 13.3578V18.4338C11.0998 18.6725 11.1946 18.9014 11.3634 19.0702C11.5321 19.239 11.7611 19.3338 11.9998 19.3338C12.2384 19.3338 12.4674 19.239 12.6361 19.0702C12.8049 18.9014 12.8998 18.6725 12.8998 18.4338V13.4028L14.0608 14.5728C14.1444 14.6572 14.244 14.7241 14.3536 14.7698C14.4633 14.8155 14.5809 14.839 14.6998 14.839C14.8186 14.839 14.9362 14.8155 15.0459 14.7698C15.1555 14.7241 15.2551 14.6572 15.3388 14.5728C15.4231 14.4891 15.4901 14.3896 15.5358 14.2799C15.5814 14.1702 15.605 14.0526 15.605 13.9338C15.605 13.815 15.5814 13.6974 15.5358 13.5877C15.4901 13.478 15.4231 13.3785 15.3388 13.2948L12.6388 10.5948Z" fill="url(#paint1_linear_472_11813)"/>
<defs>
<linearGradient id="paint0_linear_472_11813" x1="4.47962" y1="5.14521" x2="18.5491" y2="18.6086" gradientUnits="userSpaceOnUse">
<stop stop-color="#FAC01E"/>
<stop offset="0.869792" stop-color="#FC762A"/>
</linearGradient>
<linearGradient id="paint1_linear_472_11813" x1="8.9478" y1="11.153" x2="17.3461" y2="15.7009" gradientUnits="userSpaceOnUse">
<stop stop-color="#FAC01E"/>
<stop offset="0.869792" stop-color="#FC762A"/>
</linearGradient>
</defs>
</svg>
