<svg width="26" height="23" viewBox="0 0 26 23" fill="none" xmlns="http://www.w3.org/2000/svg">
    <path d="M25.375 10.9996C25.375 10.8621 25.3 10.7246 25.2625 10.5871C25.2046 10.3445 25.1294 10.1064 25.0375 9.87461C24.975 9.72461 24.8875 9.57461 24.8125 9.41211C24.7375 9.24961 24.625 9.03711 24.5125 8.86211C24.4 8.68711 24.25 8.59961 24.25 8.49961C24.25 8.39961 24 8.18711 23.8625 8.03711C23.725 7.88711 23.6 7.78711 23.4625 7.66211L23 7.24961L22.55 6.94961C22.3733 6.8415 22.1896 6.74545 22 6.66211L21.5125 6.43711C21.3083 6.36149 21.0996 6.29887 20.8875 6.24961C20.7195 6.20019 20.5483 6.1626 20.375 6.13711L20.0875 5.99961C19.5774 4.52593 18.6207 3.24788 17.3504 2.34331C16.0801 1.43874 14.5595 0.952637 13 0.952637C11.4405 0.952637 9.91988 1.43874 8.64958 2.34331C7.37929 3.24788 6.42255 4.52593 5.9125 5.99961L5.6875 6.06211C5.51425 6.0876 5.343 6.12519 5.175 6.17461C4.96292 6.22387 4.75417 6.28649 4.55 6.36211L4.0625 6.58711C3.8729 6.67045 3.68915 6.7665 3.5125 6.87461L3.0625 7.24961L2.6 7.63711C2.4625 7.76211 2.325 7.87461 2.2 8.01211C2.075 8.14961 1.9375 8.32461 1.8125 8.47461C1.6875 8.62461 1.5875 8.76211 1.4875 8.92461C1.3875 9.08711 1.2875 9.28711 1.1875 9.47461C1.0875 9.66211 1.025 9.78711 0.9625 9.93711C0.870552 10.1689 0.795359 10.407 0.7375 10.6496C0.7375 10.7871 0.65 10.9246 0.625 11.0621C0.547196 11.4533 0.505355 11.8508 0.5 12.2496C0.50586 12.6312 0.54349 13.0117 0.6125 13.3871C0.6125 13.5121 0.675 13.6246 0.7 13.7496C0.761784 13.9952 0.836895 14.2372 0.925 14.4746L1.075 14.8371C1.18504 15.0782 1.31029 15.312 1.45 15.5371L1.625 15.8121C1.64298 15.8471 1.66389 15.8806 1.6875 15.9121L1.75 15.9996C2.33217 16.7758 3.08707 17.4059 3.95492 17.8398C4.82276 18.2737 5.77972 18.4996 6.75 18.4996H10.5V16.7871C10.1202 17.0074 9.68907 17.1238 9.25 17.1246C8.57282 17.1183 7.92567 16.8441 7.45 16.3621C7.22161 16.1258 7.04205 15.8469 6.92157 15.5412C6.80109 15.2354 6.74207 14.909 6.74787 14.5804C6.75368 14.2518 6.8242 13.9277 6.9554 13.6264C7.0866 13.3251 7.27591 13.0527 7.5125 12.8246L11.2625 9.19961C11.7291 8.74992 12.352 8.49895 13 8.49961C13.662 8.5024 14.2958 8.76763 14.7625 9.23711L18.5125 12.9871C18.9781 13.4555 19.2395 14.0891 19.2395 14.7496C19.2395 15.4101 18.9781 16.0437 18.5125 16.5121C18.0458 16.9816 17.412 17.2468 16.75 17.2496C16.3103 17.2538 15.8779 17.137 15.5 16.9121V18.4996H19.25C20.2203 18.4996 21.1772 18.2737 22.0451 17.8398C22.9129 17.4059 23.6678 16.7758 24.25 15.9996L24.3125 15.9371C24.3361 15.9056 24.357 15.8721 24.375 15.8371L24.55 15.5621C24.6897 15.337 24.815 15.1032 24.925 14.8621L25.075 14.4996C25.1631 14.2622 25.2382 14.0202 25.3 13.7746C25.3 13.6496 25.3625 13.5371 25.3875 13.4121C25.4579 13.0285 25.4955 12.6396 25.5 12.2496C25.4986 11.8299 25.4567 11.4113 25.375 10.9996V10.9996Z"
          fill="url(#paint0_linear_3011:10653)"/>
    <path d="M13.8875 10.1121C13.6538 9.88305 13.3397 9.75476 13.0125 9.75476C12.6853 9.75476 12.3711 9.88305 12.1375 10.1121L8.38747 13.7371C8.25484 13.8465 8.14621 13.9822 8.06838 14.1355C7.99056 14.2889 7.94521 14.4566 7.93517 14.6283C7.92514 14.7999 7.95063 14.9718 8.01006 15.1332C8.06949 15.2946 8.16158 15.4419 8.28056 15.5661C8.39954 15.6903 8.54286 15.7885 8.70156 15.8548C8.86025 15.921 9.0309 15.9538 9.20285 15.9511C9.37479 15.9483 9.54432 15.9102 9.70083 15.8389C9.85735 15.7677 9.99748 15.6649 10.1125 15.5371L11.75 13.9496V20.9996C11.75 21.3311 11.8817 21.649 12.1161 21.8835C12.3505 22.1179 12.6685 22.2496 13 22.2496C13.3315 22.2496 13.6494 22.1179 13.8839 21.8835C14.1183 21.649 14.25 21.3311 14.25 20.9996V14.0121L15.8625 15.6371C15.9787 15.7542 16.1169 15.8472 16.2693 15.9107C16.4216 15.9742 16.585 16.0068 16.75 16.0068C16.915 16.0068 17.0784 15.9742 17.2307 15.9107C17.383 15.8472 17.5213 15.7542 17.6375 15.6371C17.7546 15.5209 17.8476 15.3826 17.9111 15.2303C17.9745 15.078 18.0072 14.9146 18.0072 14.7496C18.0072 14.5846 17.9745 14.4212 17.9111 14.2689C17.8476 14.1165 17.7546 13.9783 17.6375 13.8621L13.8875 10.1121Z"
          fill="url(#paint1_linear_3011:10653)"/>
    <defs>
        <linearGradient id="paint0_linear_3011:10653" x1="0.5" y1="9.56667" x2="25.5" y2="9.56666"
                        gradientUnits="userSpaceOnUse">
            <stop stop-color="#D61D6A"/>
            <stop offset="1" stop-color="#7645FF"/>
        </linearGradient>
        <linearGradient id="paint1_linear_3011:10653" x1="7.93304" y1="15.8886" x2="18.0072" y2="15.8886"
                        gradientUnits="userSpaceOnUse">
            <stop stop-color="#D61D6A"/>
            <stop offset="1" stop-color="#7645FF"/>
        </linearGradient>
    </defs>
</svg>
