<svg width="34" height="34" viewBox="0 0 34 34" fill="none" xmlns="http://www.w3.org/2000/svg">
<path d="M16.9999 33.6668C14.6944 33.6668 12.5277 33.2291 10.4999 32.3535C8.47214 31.4779 6.70825 30.2907 5.20825 28.7918C3.70825 27.2918 2.52103 25.5279 1.64659 23.5002C0.772141 21.4724 0.334363 19.3057 0.333252 17.0002C0.333252 14.6946 0.77103 12.5279 1.64659 10.5002C2.52214 8.47239 3.70936 6.7085 5.20825 5.2085C6.70825 3.7085 8.47214 2.52127 10.4999 1.64683C12.5277 0.772385 14.6944 0.334607 16.9999 0.333496C19.3055 0.333496 21.4721 0.771274 23.4999 1.64683C25.5277 2.52239 27.2916 3.70961 28.7916 5.2085C30.2916 6.7085 31.4794 8.47239 32.3549 10.5002C33.2305 12.5279 33.6677 14.6946 33.6666 17.0002C33.6666 19.3057 33.2288 21.4724 32.3533 23.5002C31.4777 25.5279 30.2905 27.2918 28.7916 28.7918C27.2916 30.2918 25.5277 31.4796 23.4999 32.3552C21.4721 33.2307 19.3055 33.6679 16.9999 33.6668ZM11.9999 25.3335H21.9999V22.0002H15.3333V18.6668H18.6666C19.5833 18.6668 20.3683 18.3402 21.0216 17.6868C21.6749 17.0335 22.001 16.2491 21.9999 15.3335V12.0002C21.9999 11.0835 21.6733 10.2985 21.0199 9.64516C20.3666 8.99183 19.5821 8.66572 18.6666 8.66683H11.9999V12.0002H18.6666V15.3335H15.3333C14.4166 15.3335 13.6316 15.6602 12.9783 16.3135C12.3249 16.9668 11.9988 17.7513 11.9999 18.6668V25.3335Z" fill="#FAFAFA"/>
</svg>
