<svg width="40" height="40" viewBox="0 0 40 40" fill="none" xmlns="http://www.w3.org/2000/svg">
<path d="M20.0002 36.6668C17.6946 36.6668 15.5279 36.2291 13.5002 35.3535C11.4724 34.4779 9.7085 33.2907 8.2085 31.7918C6.7085 30.2918 5.52127 28.5279 4.64683 26.5002C3.77239 24.4724 3.33461 22.3057 3.3335 20.0002C3.3335 17.6946 3.77127 15.5279 4.64683 13.5002C5.52239 11.4724 6.70961 9.7085 8.2085 8.2085C9.7085 6.7085 11.4724 5.52127 13.5002 4.64683C15.5279 3.77239 17.6946 3.33461 20.0002 3.3335C22.3057 3.3335 24.4724 3.77127 26.5002 4.64683C28.5279 5.52239 30.2918 6.70961 31.7918 8.2085C33.2918 9.7085 34.4796 11.4724 35.3552 13.5002C36.2307 15.5279 36.6679 17.6946 36.6668 20.0002C36.6668 22.3057 36.2291 24.4724 35.3535 26.5002C34.4779 28.5279 33.2907 30.2918 31.7918 31.7918C30.2918 33.2918 28.5279 34.4796 26.5002 35.3552C24.4724 36.2307 22.3057 36.6679 20.0002 36.6668ZM15.0002 28.3335H25.0002V25.0002H18.3335V21.6668H21.6668C22.5835 21.6668 23.3685 21.3402 24.0218 20.6868C24.6752 20.0335 25.0013 19.2491 25.0002 18.3335V15.0002C25.0002 14.0835 24.6735 13.2985 24.0202 12.6452C23.3668 11.9918 22.5824 11.6657 21.6668 11.6668H15.0002V15.0002H21.6668V18.3335H18.3335C17.4168 18.3335 16.6318 18.6602 15.9785 19.3135C15.3252 19.9668 14.9991 20.7513 15.0002 21.6668V28.3335Z" fill="url(#paint0_linear_430_14375)"/>
<defs>
<linearGradient id="paint0_linear_430_14375" x1="6.07353" y1="6.35504" x2="40.47" y2="29.4571" gradientUnits="userSpaceOnUse">
<stop stop-color="#FAC01E"/>
<stop offset="0.869792" stop-color="#FC762A"/>
</linearGradient>
</defs>
</svg>
