<svg width="1440" height="990" viewBox="0 0 1440 990" fill="none" xmlns="http://www.w3.org/2000/svg">
    <path d="M1368.32 0.775197L1373.81 43.6538L1323.31 75.9393L1316.81 25.1288L1351.54 2.92279L1347.58 3.42984L1315.64 23.8509L1279.58 12.1326L1275.62 12.6399L1314.83 25.3823L1321.33 76.1928L1264.37 57.6805L1264.25 56.7254L1264.21 56.7515L1258.84 14.7875L1256.86 15.0413L1262.35 57.9394L1210.5 91.0941L1210.03 91.3894L1216.44 141.477C1214.83 142.051 1213.75 143.439 1213.94 144.914C1214.13 146.39 1215.52 147.463 1217.23 147.61L1223.64 197.705L1282.74 216.914L1289.36 268.664L1238.87 300.949L1232.24 249.192L1173.14 229.983L1173.02 229.044L1172.09 229.64L1171.04 229.299L1171.16 230.233L1119.27 263.413L1118.8 263.71L1125.79 318.272L1176.48 285.859C1177.26 286.351 1178.28 286.589 1179.36 286.45C1180.45 286.312 1181.37 285.825 1182 285.152L1237.13 303.066L1250.73 409.382L1304.02 375.31L1362.07 394.177L1420.13 413.047L1369.63 445.334L1368.58 444.994L1368.7 445.93L1367.77 446.525L1368.82 446.865L1375.56 499.554L1434.66 518.763L1440.95 567.917C1439.34 568.49 1438.26 569.878 1438.45 571.353C1438.67 573.113 1440.6 574.314 1442.74 574.039C1444.89 573.764 1446.45 572.118 1446.23 570.358C1446.19 570.069 1446.09 569.803 1445.97 569.547L1481.48 546.844L1481.24 544.971L1444.81 568.263C1444.28 567.929 1443.63 567.724 1442.94 567.664L1436.64 518.511L1474.73 494.158L1474.49 492.284L1436.4 516.638L1429.9 465.822L1467.99 441.469L1467.75 439.597L1428.73 464.544L1371.73 446.018L1421.3 414.323L1422.23 413.729L1423.28 414.069L1466.27 428.046L1466.03 426.173L1424.09 412.54L1461.25 388.78L1461.01 386.907L1422.92 411.262L1416.41 360.447L1454.5 336.094L1454.26 334.22L1442.8 341.549L1415.24 359.169L1360.1 341.246C1360.16 340.969 1360.19 340.686 1360.15 340.395C1360.11 340.107 1360.02 339.84 1359.89 339.586L1408.74 308.354L1452.78 322.669L1452.54 320.797L1409.55 306.821L1403.05 256.007L1446.04 269.982L1445.8 268.109L1403.88 254.483L1441.02 230.739L1440.78 228.866L1402.73 253.191L1396.23 202.38L1434.27 178.056L1434.03 176.182L1394.59 201.401L1394.13 201.696L1400.75 253.465L1400.7 253.45L1407.57 307.076L1358.73 338.302C1358.2 337.966 1357.56 337.762 1356.86 337.701L1343.7 234.932L1284.6 215.723L1277.86 163.04L1221.67 144.777C1221.72 144.496 1221.75 144.211 1221.72 143.919C1221.68 143.63 1221.58 143.364 1221.46 143.108L1270.77 111.58L1271.23 111.285L1264.61 59.5553L1321.57 78.0659L1335.18 184.372L1385.87 151.959C1386.65 152.451 1387.67 152.686 1388.75 152.548C1390.9 152.273 1392.46 150.626 1392.23 148.867C1392.05 147.391 1390.65 146.319 1388.94 146.171L1375.91 44.3945L1414.05 20.0127L1413.81 18.1412L1375.76 42.4678L1370.39 0.51026L1368.32 0.775197ZM1323.55 77.8124L1374.05 45.5269L1380.55 96.3391L1330.05 128.625L1323.55 77.8124ZM1218.42 141.223L1212.13 92.0732L1262.63 59.7877L1269.13 110.6L1220.3 141.824C1219.77 141.489 1219.12 141.284 1218.42 141.223ZM1330.29 130.498L1380.79 98.2139L1386.96 146.426C1385.34 146.999 1384.27 148.388 1384.46 149.862C1384.5 150.152 1384.59 150.42 1384.71 150.675L1336.8 181.31L1330.29 130.498ZM1225.5 196.513L1219.21 147.356C1219.87 147.124 1220.44 146.766 1220.87 146.31L1276 164.231L1282.5 215.041L1225.5 196.513ZM1120.9 264.394L1171.4 232.108L1177.57 280.327C1175.95 280.9 1174.88 282.289 1175.07 283.765C1175.1 284.052 1175.2 284.318 1175.32 284.571L1127.41 315.207L1120.9 264.394ZM1182.8 283.614C1182.85 283.338 1182.88 283.056 1182.84 282.769C1182.65 281.294 1181.26 280.22 1179.55 280.073L1173.38 231.856L1230.38 250.383L1236.89 301.193L1182.8 283.614ZM1319.85 277.672L1291.34 268.409L1284.84 217.596L1341.84 236.124L1348.35 286.935L1319.85 277.672ZM1326.59 330.357L1298.09 321.092L1291.58 270.282L1320.09 279.545L1348.59 288.81L1354.88 337.955C1354.22 338.188 1353.64 338.549 1353.21 339.01L1326.59 330.357ZM1239.11 302.822L1289.6 270.535L1296.11 321.344L1245.61 353.631L1239.11 302.822ZM1245.85 355.506L1296.35 323.219L1302.85 374.031L1252.35 406.32L1245.85 355.506ZM1304.83 373.778L1298.33 322.967L1326.83 332.228L1352.41 340.545C1352.36 340.821 1352.34 341.103 1352.37 341.39C1352.56 342.868 1353.95 343.939 1355.66 344.086L1361.83 392.304L1304.83 373.778ZM1363.93 392.986L1357.64 343.833C1358.3 343.598 1358.88 343.239 1359.31 342.783L1414.43 360.7L1420.94 411.516L1363.93 392.986ZM1377.42 498.363L1370.92 447.549L1427.92 466.077L1434.42 516.891L1377.42 498.363ZM1201.26 22.1577L1203.12 36.6966C1201.5 37.2695 1200.43 38.6566 1200.62 40.1323C1200.63 40.2345 1200.67 40.3269 1200.69 40.4262L1152.88 70.9949L1147.51 29.0374L1145.44 29.3021L1150.93 72.1807L1100.43 104.466L1093.93 53.6557L1128.66 31.4497L1124.7 31.9567L1092.76 52.378L1056.71 40.6597L1052.74 41.1673L1091.95 53.9094L1098.45 104.718L1041.45 86.1917L1035.96 43.3146L1033.98 43.5682L1039.35 85.5078L1039.35 85.5083L1046.21 139.134L994.786 172.015L937.784 153.487L988.746 120.901L989.212 120.604L982.468 67.9174L983.398 67.3219L982.348 66.98L980.232 50.4481L978.253 50.7013L980.25 66.2976L945.258 54.9246L941.295 55.4318L979.437 67.829L956.498 82.4961L928.942 100.116L871.94 81.588L894.879 66.921L905.728 59.9841L901.767 60.4912L870.77 80.3104L868.774 64.7142L866.793 64.9677L868.789 80.5639L833.796 69.1912L829.832 69.6985L869.029 82.437L875.32 131.592C873.701 132.165 872.624 133.554 872.813 135.03C872.85 135.318 872.949 135.584 873.072 135.839L823.758 167.37L823.292 167.665L830.276 222.223L883.563 188.153L942.667 207.365L995.025 173.888L1054.13 193.099L1105.56 160.217L1111.73 208.43C1110.11 209.001 1109.03 210.39 1109.22 211.866C1109.45 213.624 1111.37 214.826 1113.52 214.552C1115.66 214.277 1117.22 212.629 1117 210.871C1116.96 210.58 1116.86 210.314 1116.74 210.059L1166.05 178.53L1166.52 178.233L1153.04 72.9211L1201.58 41.8832C1202.39 42.6006 1203.61 42.9854 1204.91 42.8181C1207.06 42.5433 1208.62 40.8949 1208.39 39.137C1208.2 37.6612 1206.81 36.5882 1205.1 36.4414L1203.24 21.9042L1201.26 22.1577ZM930.112 101.394L980.609 69.1081L987.113 119.92L936.616 152.209L930.112 101.394ZM880.549 134.88C880.6 134.603 880.626 134.321 880.59 134.034C880.401 132.558 879.011 131.485 877.301 131.338L871.13 83.1209L928.131 101.647L934.635 152.463L880.549 134.88ZM1048.19 138.879L1041.69 88.0666L1098.69 106.593L1105.2 157.407L1048.19 138.879ZM1100.67 106.339L1151.17 74.0538L1157.67 124.866L1107.18 157.151L1100.67 106.339ZM878.086 137.472C878.747 137.237 879.32 136.875 879.749 136.417L933.823 153.996L884.257 185.686L878.086 137.472ZM825.393 168.351L874.229 137.125C874.759 137.459 875.407 137.665 876.106 137.725L882.396 186.873L831.897 219.161L825.393 168.351ZM996.886 172.697L1047.38 140.412L1104.39 158.938L1053.89 191.225L996.886 172.697ZM935.923 154.678L936.976 155.02L936.975 155.018L992.925 173.204L942.427 205.492L885.426 186.964L934.995 155.272L934.995 155.273L935.923 154.678ZM1113.71 208.176L1107.42 159.026L1108.35 158.431L1157.91 126.741L1164.42 177.551L1115.58 208.774C1115.05 208.439 1114.41 208.235 1113.71 208.176ZM811.061 72.1011L816.549 114.978L766.052 147.267L759.547 96.4517L794.272 74.25L790.308 74.7573L759.307 94.577L757.311 78.9808L755.331 79.2343L764.191 148.461L712.3 181.641L711.835 181.936L718.818 236.498L769.515 204.084C770.292 204.575 771.313 204.812 772.393 204.674C774.542 204.398 776.1 202.75 775.875 200.992C775.686 199.516 774.295 198.443 772.583 198.298L766.292 149.142L818.184 115.959L818.649 115.662L813.041 71.8476L811.061 72.1011ZM713.934 182.622L764.431 150.333L770.603 198.552C768.987 199.125 767.908 200.512 768.097 201.988C768.134 202.278 768.233 202.544 768.356 202.799L720.437 233.436L713.934 182.622ZM699.602 86.3672L704.971 128.308L647.969 109.78L645.853 93.2469L643.872 93.5004L645.988 110.031L595.49 142.316L590.123 100.38L588.142 100.634L593.51 142.57L565.009 133.307L536.506 124.044L534.39 107.513L532.41 107.767L534.525 124.297L484.028 156.583L478.66 114.647L476.681 114.9L482.049 156.836L425.048 138.308L422.932 121.78L420.951 122.033L422.947 137.628L387.96 126.256L383.996 126.763L422.135 139.159L399.197 153.826L371.639 171.446L316.499 153.524C316.554 153.246 316.58 152.965 316.543 152.674C316.506 152.386 316.41 152.118 316.286 151.863L348.424 131.316L344.463 131.823L315.129 150.577C314.348 150.086 313.329 149.85 312.25 149.988C310.1 150.263 308.544 151.911 308.769 153.669C308.994 155.426 310.915 156.63 313.064 156.355C314.144 156.217 315.07 155.733 315.703 155.058L370.829 172.977L377.692 226.603L431.444 192.231L431.911 191.934L425.288 140.183L482.289 158.709L489.152 212.329L539.847 179.917C540.377 180.253 541.023 180.456 541.721 180.516L548.132 230.605L609.337 250.496L602.593 197.811L661.695 217.019L654.712 162.461L596.66 143.594L647.152 111.312L707.309 130.866L701.581 86.1139L699.602 86.3672ZM571.752 185.99L546.163 177.675C546.218 177.399 546.246 177.115 546.209 176.827C546.02 175.349 544.629 174.278 542.917 174.131L536.746 125.919L565.249 135.18L593.749 144.443L600.253 195.254L571.752 185.99ZM484.268 158.456L534.765 126.172L540.936 174.385C539.319 174.959 538.242 176.345 538.431 177.822C538.468 178.111 538.567 178.377 538.688 178.632L490.771 209.267L484.268 158.456ZM372.809 172.724L423.307 140.438L429.811 191.25L379.313 223.539L372.809 172.724ZM602.353 195.938L595.85 145.125L652.851 163.652L659.355 214.466L602.353 195.938ZM549.993 229.414L543.702 180.263C544.363 180.03 544.939 179.669 545.367 179.212L571.992 187.865L600.492 197.127L606.996 247.939L549.993 229.414ZM0.111279 397.79C0.300176 399.265 1.68953 400.337 3.39944 400.484L9.69078 449.637L-37.0361 479.517L-36.7965 481.388L10.8591 450.917L67.8626 469.445L18.2978 501.138L18.2976 501.136L17.3652 501.732L16.3149 501.39L16.3151 501.392L-36.4308 484.246L-36.1911 486.119L15.5062 502.921L-30.2924 532.204L-30.0527 534.077L16.6744 504.199L23.1785 555.014L-23.5486 584.892L-23.309 586.764L-3.20769 573.91L24.3466 556.292L79.4889 574.214C79.4338 574.492 79.4057 574.775 79.4429 575.066C79.4798 575.354 79.5783 575.62 79.7015 575.875L30.8527 607.107L-22.9435 589.619L-22.7036 591.494L30.0423 608.64L36.5462 659.454L-16.1994 642.31L-15.9597 644.183L35.7126 660.978L-10.0638 690.246L-9.82403 692.12L36.8644 662.27L43.3678 713.08L-3.32055 742.93L-3.08101 744.802L45.0031 714.059L45.4686 713.764L38.8424 661.995L38.8887 662.011L32.0248 608.385L80.8584 577.159C81.3886 577.495 82.0347 577.699 82.733 577.76L89.1441 627.849L147.196 646.715L96.2327 679.298L95.7672 679.593L102.514 732.305L53.7211 763.502C52.9434 763.01 51.9188 762.775 50.8413 762.913C48.6922 763.188 47.1334 764.835 47.3586 766.594C47.5473 768.068 48.9408 769.141 50.6505 769.286L63.6778 871.066L16.9081 900.973L17.1479 902.846L63.8358 872.993L70.3399 923.808L23.6518 953.66L23.8915 955.533L70.6614 925.628L70.6681 925.68L123.955 891.61L184.107 911.16L177.242 857.522L229.096 824.367L229.559 824.072L223.148 773.983C224.768 773.409 225.845 772.022 225.656 770.546C225.43 768.787 223.505 767.586 221.36 767.861C219.211 768.136 217.654 769.782 217.879 771.542C217.916 771.83 218.013 772.098 218.134 772.353L168.824 803.882L168.359 804.177L174.979 855.906L118.022 837.393L104.652 732.934L156.039 700.081L216.192 719.632L209.328 666.011L258.164 634.788C258.694 635.123 259.34 635.327 260.039 635.386L266.45 685.478L322.639 703.741C322.585 704.018 322.557 704.3 322.594 704.59C322.631 704.879 322.73 705.147 322.851 705.401L273.539 736.932L273.074 737.229L286.553 842.54L238.014 873.578C237.205 872.86 235.986 872.476 234.683 872.642C232.534 872.917 230.975 874.566 231.2 876.324C231.389 877.799 232.783 878.872 234.49 879.018L241.097 930.631L293.455 897.153L300.079 948.906L328.218 958.054L332.182 957.546L301.94 947.716L295.436 896.901L352.437 915.429L357.415 954.317L359.395 954.063L354.298 914.238L296.303 895.389L346.83 863.083L401.972 881.003C401.917 881.281 401.889 881.565 401.926 881.853C402.151 883.611 404.075 884.814 406.222 884.539C408.371 884.264 409.93 882.616 409.705 880.858C409.516 879.382 408.124 878.311 406.412 878.164L393.378 776.329L444.808 743.446L501.807 761.974L450.847 794.56L450.38 794.857L457.123 847.544L456.195 848.139L457.243 848.479L463.867 900.232L411.976 933.41L411.51 933.707L413.234 947.172L415.213 946.919L413.609 934.391L464.107 902.105L468.962 940.039L470.943 939.786L466.088 901.852L523.089 920.378L523.209 921.315L524.141 920.72L551.193 929.514L555.154 929.007L526.002 919.53L573.905 888.9C574.436 889.236 575.084 889.439 575.78 889.499L580.423 925.773L582.403 925.519L577.761 889.246C578.421 889.013 578.997 888.653 579.426 888.192L634.551 906.108L636.155 918.639L638.136 918.386L636.532 905.855L687.029 873.566L691.885 911.506L693.864 911.253L688.888 872.378L739.386 840.093L745.89 890.906L719.12 908.02L723.082 907.513L747.525 891.886L747.99 891.589L741.366 839.839L795.456 857.42C795.401 857.699 795.375 857.98 795.412 858.271C795.637 860.029 797.561 861.231 799.708 860.957C801.855 860.682 803.412 859.034 803.187 857.276C802.998 855.8 801.608 854.727 799.896 854.58L793.485 804.489L732.282 784.595L739.146 838.22L688.648 870.505L681.905 817.82L628.618 851.89L570.564 833.024L564.273 783.869C565.891 783.296 566.967 781.909 566.778 780.433C566.741 780.143 566.645 779.875 566.523 779.62L615.834 748.093L616.301 747.797L609.318 693.237L556.031 727.307L496.927 708.096L444.568 741.571L386.514 722.703L379.891 670.955L433.182 636.884L373.027 617.331L366.164 563.706L312.41 598.078L311.944 598.374L318.568 650.127L264.483 632.546C264.536 632.269 264.562 631.985 264.525 631.695C264.336 630.219 262.946 629.147 261.234 629L248.199 527.16L300.092 493.979L300.558 493.684L293.574 439.122L239.82 473.493L239.355 473.788L246.099 526.482L194.674 559.364L137.666 540.835L188.634 508.245L189.097 507.95L182.114 453.389L128.362 487.759L127.896 488.054L141.265 592.497L87.1748 574.918C87.2299 574.641 87.2562 574.359 87.2193 574.07C87.0302 572.593 85.6406 571.52 83.9289 571.375L77.5176 521.284L19.4657 502.414L69.9634 470.128L71.0135 470.469L70.8937 469.533L71.8241 468.937L70.7738 468.596L64.0299 415.907L7.84342 397.644C7.89632 397.365 7.92264 397.083 7.8857 396.795C7.66069 395.037 5.73913 393.834 3.59003 394.109C1.44488 394.383 -0.113727 396.032 0.111279 397.79ZM11.6735 449.383L5.38237 400.232C6.0409 399.998 6.61662 399.635 7.04552 399.18L62.1691 417.098L68.673 467.912L11.6735 449.383ZM241.456 474.474L291.953 442.185L298.457 493L247.959 525.286L241.456 474.474ZM129.995 488.74L180.493 456.451L186.997 507.266L136.499 539.552L129.995 488.74ZM25.1612 554.76L18.6571 503.945L75.6566 522.473L81.9482 571.628C81.2897 571.862 80.7155 572.221 80.2868 572.678L25.1612 554.76ZM195.842 560.642L246.339 528.353L252.843 579.168L236.322 589.731L202.345 611.454L195.842 560.642ZM171.866 602.444L143.363 593.181L136.86 542.369L193.861 560.895L200.364 611.706L171.866 602.444ZM91.0047 626.656L84.7138 577.506C85.3743 577.272 85.9482 576.912 86.3769 576.454L141.505 594.372L148.008 645.182L91.0047 626.656ZM314.045 599.059L364.545 566.77L371.048 617.584L320.549 649.873L314.045 599.059ZM202.585 613.329L231.442 594.878L253.083 581.042L259.254 629.254C257.636 629.827 256.561 631.214 256.75 632.69C256.787 632.98 256.884 633.248 257.005 633.503L209.089 664.139L202.585 613.329ZM178.609 655.129L150.107 645.865L143.603 595.054L172.106 604.317L200.605 613.582L207.108 664.391L178.609 655.129ZM321.719 651.151L346.486 635.314L372.219 618.863L429.22 637.391L378.723 669.677L321.719 651.151ZM156.85 698.55L150.347 647.74L178.849 657.003L207.348 666.266L213.851 717.077L156.85 698.55ZM97.8681 680.279L148.368 647.993L154.871 698.803L104.372 731.089L97.8681 680.279ZM268.311 684.285L262.019 635.134C262.68 634.899 263.256 634.539 263.685 634.083L318.808 652.001L325.1 701.153C324.441 701.387 323.865 701.748 323.436 702.205L268.311 684.285ZM330.328 704.443C330.383 704.165 330.408 703.884 330.371 703.595C330.182 702.119 328.792 701.046 327.08 700.899L320.909 652.682L377.912 671.21L384.416 722.023L330.328 704.443ZM52.6293 769.033C54.2492 768.462 55.3257 767.073 55.137 765.599C55.0998 765.308 55.0014 765.042 54.8802 764.788L102.795 734.151L109.298 784.965L58.8007 817.249L52.6293 769.033ZM327.865 707.031C328.528 706.796 329.102 706.438 329.53 705.979L383.6 723.555L334.036 755.244L327.865 707.031ZM275.174 737.911L324.01 706.687C324.54 707.022 325.186 707.224 325.884 707.285L332.175 756.433L331.245 757.03L331.247 757.03L281.678 788.722L275.174 737.911ZM502.618 760.443L446.669 742.256L497.166 709.969L554.166 728.497L504.599 760.189L503.67 760.783L502.618 760.443ZM335.206 756.523L385.702 724.237L386.754 724.579L386.754 724.576L442.707 742.763L392.21 775.049L335.206 756.523ZM563.488 777.736L557.197 728.587L607.697 696.3L614.2 747.112L565.364 778.334C564.834 778 564.186 777.796 563.488 777.736ZM505.771 761.467L555.336 729.775L561.507 777.991C560.847 778.224 560.271 778.586 559.842 779.043L505.771 761.467ZM340.899 808.866L334.396 758.054L391.4 776.583L397.903 827.392L340.899 808.866ZM281.918 790.597L332.415 758.309L338.919 809.12L288.421 841.405L281.918 790.597ZM59.0406 819.124L109.538 786.836L116.042 837.647L65.5439 869.933L59.0406 819.124ZM170.457 804.863L219.295 773.639C219.825 773.971 220.471 774.177 221.167 774.236L227.458 823.386L176.961 855.672L170.457 804.863ZM511.462 813.813L504.958 763L559.046 780.58C558.993 780.856 558.965 781.138 559.002 781.428C559.191 782.902 560.58 783.976 562.292 784.121L568.464 832.34L511.462 813.813ZM452.48 795.54L502.978 763.253L509.482 814.067L458.984 846.353L452.48 795.54ZM288.661 843.28L339.159 810.994L345.662 861.805L295.165 894.091L288.661 843.28ZM124.766 890.079L118.262 839.268L175.219 857.78L175.342 858.736L175.381 858.709L181.767 908.605L124.766 890.079ZM65.7838 871.807L116.281 839.522L122.785 890.332L72.2873 922.618L65.7838 871.807ZM347.643 861.552L341.14 810.743L398.143 829.269L404.434 878.417C403.773 878.65 403.199 879.01 402.77 879.467L347.643 861.552ZM460.156 847.632L483.096 832.965L510.652 815.345L567.653 833.873L544.714 848.54L517.157 866.157L460.156 847.632ZM236.473 878.764C238.091 878.191 239.167 876.804 238.979 875.328C238.966 875.226 238.928 875.134 238.903 875.036L286.711 844.466L293.215 895.281L242.72 927.57L236.473 878.764ZM741.127 837.966L734.623 787.152L791.624 805.68L797.916 854.833C797.257 855.068 796.683 855.428 796.254 855.883L741.127 837.966ZM629.788 853.169L680.286 820.884L686.788 871.683L636.291 903.972L629.788 853.169ZM580.225 886.654C580.276 886.379 580.303 886.097 580.266 885.808C580.077 884.333 578.685 883.26 576.976 883.113L570.804 834.897L627.807 853.423L634.311 904.235L580.225 886.654ZM519.258 866.842L568.823 835.15L574.995 883.366C574.334 883.601 573.76 883.961 573.332 884.42L519.258 866.842ZM465.848 899.979L459.344 849.163L516.345 867.691L522.85 918.508L465.848 899.979ZM518.446 868.373L572.534 885.956C572.481 886.234 572.453 886.515 572.489 886.804C572.527 887.094 572.625 887.36 572.746 887.613L524.83 918.255L518.446 868.373ZM80.6936 974.233C79.9159 973.741 78.8914 973.506 77.8138 973.644C76.7323 973.783 75.8019 974.268 75.1753 974.94L24.2572 958.39L24.497 960.264L74.3752 976.474C74.3243 976.753 74.2942 977.037 74.3311 977.326C74.5198 978.8 75.9131 979.871 77.6232 980.019L78.8963 989.966L80.8751 989.712L79.602 979.766C81.2215 979.191 82.2982 977.804 82.1095 976.33C82.0723 976.04 81.9739 975.774 81.8505 975.518L129.767 944.881L134.625 982.833L136.605 982.579L131.388 941.82L80.6936 974.233Z"
          fill="url(#paint0_linear_430_14350)"/>
    <defs>
        <linearGradient id="paint0_linear_430_14350" x1="136.69" y1="751.365" x2="1224.68" y2="-134.804"
                        gradientUnits="userSpaceOnUse">
            <stop stop-color="#E19A42"/>
            <stop offset="0.363154" stop-color="#2B2B38" stop-opacity="0.1"/>
            <stop offset="0.571325" stop-color="#292936"/>
            <stop offset="0.868061" stop-color="#D3CE46" stop-opacity="0.05"/>
            <stop offset="1" stop-color="#F9F24B" stop-opacity="0.45"/>
        </linearGradient>
    </defs>
</svg>
