<svg width="20" height="20" viewBox="0 0 20 20" fill="none" xmlns="http://www.w3.org/2000/svg">
<g clip-path="url(#clip0_37_4980)">
<path d="M10 20C15.5228 20 20 15.5228 20 10C20 4.47715 15.5228 0 10 0C4.47715 0 0 4.47715 0 10C0 15.5228 4.47715 20 10 20Z" fill="#2E3148"/>
<path d="M9.99975 15.8021C13.2044 15.8021 15.8022 13.2042 15.8022 9.99962C15.8022 6.795 13.2044 4.19714 9.99975 4.19714C6.79512 4.19714 4.19727 6.795 4.19727 9.99962C4.19727 13.2042 6.79512 15.8021 9.99975 15.8021Z" fill="#1B1E36"/>
<path d="M10.0206 1.27539C8.9412 1.27539 8.06592 5.19059 8.06592 10.0203C8.06592 14.8499 8.9412 18.7652 10.0206 18.7652C11.1001 18.7652 11.9753 14.8499 11.9753 10.0203C11.9753 5.19059 11.1001 1.27539 10.0206 1.27539ZM10.1556 18.2716C10.0322 18.4363 9.90871 18.3127 9.90871 18.3127C9.41159 17.7367 9.16304 16.6667 9.16304 16.6667C8.29352 13.8683 8.50048 7.86011 8.50048 7.86011C8.90912 3.09019 9.65247 1.96339 9.90543 1.71323C9.93127 1.6877 9.96528 1.6721 10.0015 1.66917C10.0377 1.66624 10.0738 1.67618 10.1034 1.69723C10.4704 1.95731 10.7782 3.04499 10.7782 3.04499C11.6873 6.41947 11.6049 9.58819 11.6049 9.58819C11.6873 12.3454 11.1494 15.4318 11.1494 15.4318C10.7354 17.7774 10.1556 18.2716 10.1556 18.2716Z" fill="#6F7390"/>
<path d="M17.6055 5.66938C17.0681 4.73274 13.2368 5.92202 9.04553 8.32538C4.85425 10.7287 1.89777 13.4365 2.43481 14.3727C2.97185 15.309 6.80353 14.1201 10.9948 11.7167C15.1861 9.31337 18.1426 6.60562 17.6055 5.66938ZM2.93065 14.2443C2.72489 14.2183 2.77137 14.0492 2.77137 14.0492C3.02377 13.3315 3.82697 12.5834 3.82697 12.5834C5.82241 10.4365 11.1373 7.62618 11.1373 7.62618C15.4776 5.60682 16.8258 5.69202 17.1678 5.78618C17.2029 5.79597 17.2334 5.81788 17.2539 5.84802C17.2744 5.87815 17.2835 5.91457 17.2798 5.95082C17.2386 6.39882 16.4464 7.20682 16.4464 7.20682C13.9734 9.67554 11.1838 11.1813 11.1838 11.1813C8.83313 12.6253 5.88833 13.694 5.88833 13.694C3.64761 14.5015 2.93073 14.2443 2.93073 14.2443H2.93065Z" fill="#6F7390"/>
<path d="M17.5869 14.4032C18.1285 13.469 15.1794 10.7489 11.0029 8.32743C6.82633 5.90599 2.99553 4.70199 2.45441 5.63775C1.91329 6.57351 4.86185 9.29207 9.04081 11.7135C13.2198 14.135 17.0458 15.339 17.5869 14.4032ZM2.81329 5.99871C2.73329 5.80903 2.90217 5.76335 2.90217 5.76335C3.64985 5.62215 4.70009 5.94391 4.70009 5.94391C7.55729 6.59455 12.6521 9.78591 12.6521 9.78591C16.5747 12.5308 17.1763 13.7398 17.2665 14.083C17.2757 14.1182 17.2721 14.1555 17.2564 14.1884C17.2408 14.2212 17.214 14.2474 17.1809 14.2625C16.7718 14.4498 15.6763 14.1707 15.6763 14.1707C12.2998 13.2654 9.59937 11.6066 9.59937 11.6066C7.17305 10.2979 4.77385 8.28431 4.77385 8.28431C2.95081 6.74935 2.81385 6.00079 2.81385 6.00079L2.81329 5.99871Z" fill="#6F7390"/>
<path d="M9.99999 11.0282C10.5682 11.0282 11.0288 10.5676 11.0288 9.99944C11.0288 9.43125 10.5682 8.97064 9.99999 8.97064C9.4318 8.97064 8.97119 9.43125 8.97119 9.99944C8.97119 10.5676 9.4318 11.0282 9.99999 11.0282Z" fill="#B7B9C8"/>
<path d="M14.2181 6.66699C14.5476 6.66699 14.8148 6.39063 14.8148 6.04971C14.8148 5.7088 14.5476 5.43243 14.2181 5.43243C13.8885 5.43243 13.6213 5.7088 13.6213 6.04971C13.6213 6.39063 13.8885 6.66699 14.2181 6.66699Z" fill="#B7B9C8"/>
<path d="M4.42387 8.76599C4.75343 8.76599 5.02059 8.48963 5.02059 8.14871C5.02059 7.8078 4.75343 7.53143 4.42387 7.53143C4.09431 7.53143 3.82715 7.8078 3.82715 8.14871C3.82715 8.48963 4.09431 8.76599 4.42387 8.76599Z" fill="#B7B9C8"/>
<path d="M8.78593 16.338C9.11549 16.338 9.38265 16.0616 9.38265 15.7207C9.38265 15.3798 9.11549 15.1035 8.78593 15.1035C8.45637 15.1035 8.18921 15.3798 8.18921 15.7207C8.18921 16.0616 8.45637 16.338 8.78593 16.338Z" fill="#B7B9C8"/>
</g>
<defs>
<clipPath id="clip0_37_4980">
<rect width="20" height="20" fill="white"/>
</clipPath>
</defs>
</svg>
