<svg width="20" height="20" viewBox="0 0 20 20" fill="none" xmlns="http://www.w3.org/2000/svg">
    <g clip-path="url(#clip0_37_5158)">
        <path d="M10 20C15.5228 20 20 15.5228 20 10C20 4.47715 15.5228 0 10 0C4.47715 0 0 4.47715 0 10C0 15.5228 4.47715 20 10 20Z"
              fill="url(#paint0_linear_37_5158)"/>
        <path fill-rule="evenodd" clip-rule="evenodd"
              d="M9.9661 2.9231C10.2903 2.9231 10.553 3.18612 10.553 3.51058V6.14998L12.6896 4.0201C12.9193 3.79114 13.2909 3.7919 13.5196 4.02179C13.7484 4.25167 13.7476 4.62367 13.5179 4.85263L11.3872 6.97675H14.5284C14.8525 6.97675 15.1153 7.23979 15.1153 7.56425C15.1153 7.88867 14.8525 8.15171 14.5284 8.15171H11.3872L13.3782 10.1365C13.6079 10.3655 13.6086 10.7375 13.3799 10.9674C13.1511 11.1973 12.7795 11.198 12.5498 10.9691L10.553 8.97848V14.0549H11.7829C12.107 14.0549 12.3698 14.3179 12.3698 14.6424C12.3698 14.9669 12.107 15.2299 11.7829 15.2299H10.553V16.4894C10.553 16.8139 10.2903 17.0769 9.9661 17.0769C9.64195 17.0769 9.37918 16.8139 9.37918 16.4894V15.2299H8.14479C7.82064 15.2299 7.55787 14.9669 7.55787 14.6424C7.55787 14.3179 7.82064 14.0549 8.14479 14.0549H9.37918V8.93013L7.40791 10.7995C7.1726 11.0226 6.8011 11.0126 6.57818 10.7771C6.35521 10.5416 6.36525 10.1697 6.60056 9.94656L8.49321 8.15171H5.47144C5.14729 8.15171 4.88452 7.88867 4.88452 7.56425C4.88452 7.23979 5.14729 6.97675 5.47144 6.97675H8.51948L6.45102 4.96563C6.21848 4.73956 6.2131 4.3676 6.43894 4.13486C6.66483 3.90213 7.03641 3.89675 7.26894 4.12283L9.37918 6.17456V3.51058C9.37918 3.18612 9.64195 2.9231 9.9661 2.9231Z"
              fill="#0E0E0E"/>
    </g>
    <defs>
        <linearGradient id="paint0_linear_37_5158" x1="10" y1="0" x2="10" y2="20" gradientUnits="userSpaceOnUse">
            <stop stop-color="#FBAEAE"/>
            <stop offset="1" stop-color="#8D4142"/>
        </linearGradient>
        <clipPath id="clip0_37_5158">
            <rect width="20" height="20" fill="white"/>
        </clipPath>
    </defs>
</svg>
