<svg width="20" height="20" viewBox="0 0 20 20" fill="none" xmlns="http://www.w3.org/2000/svg">
    <path d="M7.33811 14.1075L7.15479 14.213L7.15494 14.0018C7.15494 14.0018 7.15238 14.1098 7.2012 14.1368C7.24904 14.1632 7.33811 14.1075 7.33811 14.1075Z"
          fill="#8E3315"/>
    <path d="M2.63379 13.8897C3.66695 15.8398 5.434 17.3 7.54619 17.9497C9.65837 18.5994 11.9427 18.385 13.8966 17.3537C15.8505 16.3225 17.314 14.5588 17.965 12.4506C18.6161 10.3425 18.397 8.06256 17.3638 6.11249C18.2954 9.04311 15.0519 10.0727 15.0519 10.0727L11.1262 12.1205L7.04631 14.2444C7.04631 14.2444 4.26566 16.0311 2.63379 13.8897Z"
          fill="#473ADE"/>
    <path d="M2.61914 13.9041C3.65231 15.8542 5.41936 17.3147 7.53155 17.9644C9.64369 18.6141 11.928 18.3997 13.8819 17.3684C15.8359 16.3371 17.2993 14.5734 17.9504 12.4653C18.6015 10.3572 18.3868 8.07727 17.3536 6.1272C18.2853 9.05786 15.0373 10.0874 15.0373 10.0874L11.1116 12.1352L7.03166 14.2591C7.03166 14.2591 4.25102 16.0455 2.61914 13.9041Z"
          fill="url(#paint0_linear_37_4655)"/>
    <path d="M15.0725 9.92468L15.2397 10.0149L15.002 10.1009C15.002 10.1009 15.1242 10.0587 15.1417 10.0123C15.1588 9.96671 15.0725 9.92468 15.0725 9.92468Z"
          fill="#292282"/>
    <path d="M17.4142 13.8025C18.4231 11.8399 18.6095 9.55752 17.9324 7.45757C17.2552 5.35763 15.77 3.61213 13.8035 2.60507C11.8369 1.598 9.5501 1.41186 7.44616 2.08759C5.34219 2.76332 3.59338 4.24556 2.58447 6.20824C4.45663 3.7666 7.16343 5.83312 7.16343 5.83312L11.0947 7.87031L15.1768 9.99002C15.1768 9.99002 18.2371 11.2405 17.4142 13.8025Z"
          fill="#D71D6A"/>
    <path d="M17.3943 13.7947C18.4001 11.8378 18.586 9.56225 17.9108 7.46856C17.2357 5.37488 15.7549 3.6346 13.7942 2.63054C11.8335 1.62647 9.55352 1.44088 7.45582 2.11459C5.35812 2.78831 3.61455 4.26614 2.60864 6.22299C4.47523 3.78861 7.17394 5.84899 7.17394 5.84899L11.0935 7.88007L15.1634 9.99348C15.1634 9.99348 18.2147 11.2403 17.3943 13.7947Z"
          fill="url(#paint1_linear_37_4655)"/>
    <path d="M7.15604 6.03041L7.15259 5.80927L7.34618 5.91688C7.34618 5.91688 7.24847 5.85957 7.19885 5.89047C7.15026 5.92071 7.15604 6.03041 7.15604 6.03041Z"
          fill="#741039"/>
    <path d="M10 1.68616C7.78992 1.68616 5.67033 2.56253 4.10752 4.12248C2.54472 5.68244 1.66675 7.79817 1.66675 10.0043C1.66675 12.2104 2.54472 14.3261 4.10752 15.8861C5.67033 17.446 7.78992 18.3224 10 18.3224C7.16355 17.847 7.16355 14.179 7.16355 14.179V10.0043V5.75564C7.16355 5.75564 7.16355 2.1929 10 1.68616Z"
          fill="#FF5B25"/>
    <path d="M10.0001 1.66669C7.78992 1.66669 5.67033 2.54305 4.10752 4.103C2.54472 5.66294 1.66675 7.77871 1.66675 9.9848C1.66675 12.1909 2.54472 14.3066 4.10752 15.8666C5.67033 17.4265 7.78992 18.3029 10 18.3029C7.16355 17.3983 7.16355 14.1835 7.16355 14.1835V9.99509V5.83331C7.16355 5.83331 7.06034 2.20573 10.0001 1.66669Z"
          fill="url(#paint2_linear_37_4655)"/>
    <path d="M10.0001 1.66669C7.78992 1.66669 5.67033 2.54305 4.10752 4.103C2.54472 5.66294 1.66675 7.77871 1.66675 9.9848C1.66675 12.1909 2.54472 14.3066 4.10752 15.8666C5.67033 17.4265 7.78992 18.3029 10 18.3029C7.16355 17.3983 7.16355 14.1835 7.16355 14.1835V9.99509V5.83331C7.16355 5.83331 7.06034 2.20573 10.0001 1.66669Z"
          fill="url(#paint3_linear_37_4655)" fill-opacity="0.3"/>
    <path d="M9.97804 18.3187C7.16339 17.0391 7.16668 14.1824 7.16668 14.1824C7.16668 14.1824 3.6781 16.1466 2.50366 13.6344C2.50366 13.6344 4.47243 18.3354 9.97804 18.3187Z"
          fill="#473ADE"/>
    <defs>
        <linearGradient id="paint0_linear_37_4655" x1="17.3543" y1="9.05584" x2="5.25172" y2="21.0278"
                        gradientUnits="userSpaceOnUse">
            <stop stop-opacity="0.6"/>
            <stop offset="0.655513" stop-opacity="0"/>
        </linearGradient>
        <linearGradient id="paint1_linear_37_4655" x1="5.00559" y1="4.54897" x2="21.7134" y2="7.62006"
                        gradientUnits="userSpaceOnUse">
            <stop stop-opacity="0.6"/>
            <stop offset="0.645833" stop-opacity="0"/>
        </linearGradient>
        <linearGradient id="paint2_linear_37_4655" x1="6.1295" y1="17.2725" x2="1.18903" y2="2.02651"
                        gradientUnits="userSpaceOnUse">
            <stop stop-opacity="0.6"/>
            <stop offset="0.675464" stop-opacity="0"/>
        </linearGradient>
        <linearGradient id="paint3_linear_37_4655" x1="6.1295" y1="17.2725" x2="1.18903" y2="2.02651"
                        gradientUnits="userSpaceOnUse">
            <stop stop-opacity="0.6"/>
            <stop offset="0.675464" stop-opacity="0"/>
        </linearGradient>
    </defs>
</svg>
