<svg width="20" height="20" viewBox="0 0 20 20" fill="none" xmlns="http://www.w3.org/2000/svg">
<path d="M17.7334 4.61291C17.5637 3.95956 17.0184 3.30621 16.0367 2.57891C15.249 1.99952 14.4129 1.66669 13.7464 1.66669C13.613 1.66669 13.4918 1.67901 13.3707 1.70367C13.0677 1.7653 12.8011 1.9872 12.6314 2.32003C12.4254 2.71451 12.3769 3.24458 12.5103 3.56509C12.5587 3.66371 12.6193 3.78698 12.692 3.89792C12.0497 4.2924 11.6862 4.40335 11.6377 4.41567C13.3101 4.98272 14.7037 6.16615 15.5763 7.70704L15.5884 7.55912C15.6247 7.15232 15.7459 6.68389 15.9156 6.20313C16.0852 6.25244 16.2549 6.27709 16.4246 6.27709C16.873 6.27709 17.2607 6.0922 17.5031 5.75935C17.7455 5.42651 17.8424 4.98273 17.7334 4.61291Z" fill="#5E12A0"/>
<path d="M15.9886 5.84561C17.0914 6.15377 17.5398 5.29086 17.3943 4.71149C17.2368 4.1321 16.7278 3.54039 15.8311 2.87472C14.9343 2.20905 14.0254 1.93785 13.4437 2.06112C12.862 2.18439 12.6923 3.08428 12.8378 3.42945C12.8984 3.56505 13.0316 3.76228 13.2134 3.98417C12.9832 4.14443 12.765 4.2677 12.5833 4.37865C13.6982 4.88407 14.6677 5.67301 15.3948 6.65918C15.4796 6.32637 15.6008 6.03051 15.7099 5.77162C15.7947 5.78395 15.8917 5.8086 15.9886 5.84561Z" fill="url(#paint0_radial_37_7402)"/>
<path d="M9.67374 17.9259C13.4151 17.9259 16.448 14.8408 16.448 11.035C16.448 7.22924 13.4151 4.14404 9.67374 4.14404C5.93238 4.14404 2.89941 7.22924 2.89941 11.035C2.89941 14.8408 5.93238 17.9259 9.67374 17.9259Z" fill="url(#paint1_radial_37_7402)"/>
<path opacity="0.6" d="M16.8364 4.14406C15.9154 3.15788 15.1398 2.89901 14.2066 2.68944C13.4795 2.51686 13.6734 2.09774 14.5581 2.18403C14.1339 2.0361 13.734 1.99912 13.4432 2.06075C12.8615 2.18403 12.6918 3.08392 12.8372 3.42908C12.8978 3.56468 13.0311 3.76192 13.2129 3.98381C12.8857 4.2057 12.6069 4.36595 12.3767 4.48923C12.4858 4.53854 12.6191 4.60017 12.7766 4.68646C13.1886 4.90835 13.637 5.27816 13.637 5.27816C12.9584 4.68646 13.1038 4.41526 14.037 3.74959C14.3278 3.54003 14.861 3.56468 15.3579 3.82355C15.8548 4.08243 16.4365 4.73577 16.4365 4.73577L15.879 5.82058C15.9154 5.83291 15.9517 5.84524 15.9881 5.85756C16.3395 5.95617 16.6182 5.93152 16.8364 5.84524C17.0909 5.68496 17.7574 5.14257 16.8364 4.14406Z" fill="#A98698"/>
<path d="M14.1948 3.28124C14.4372 3.37986 14.7522 3.55244 15.1401 3.81132C15.6006 4.1195 16.0005 4.46466 16.255 4.73586C15.8308 5.3029 15.5521 6.07953 15.3824 6.62195C15.4672 6.74521 15.5642 6.86848 15.649 6.99174C15.7339 6.68358 15.8793 6.22748 16.0732 5.77134C16.1216 5.7837 16.1822 5.7837 16.2429 5.7837C16.3883 5.7837 16.5579 5.75901 16.6912 5.64807C16.7882 5.57412 16.8973 5.43853 16.8851 5.19197C16.8851 4.95776 16.7033 4.6619 16.3277 4.30441C16.061 4.04554 15.6975 3.76201 15.3339 3.50314C14.2917 2.80048 13.5646 2.60324 13.2374 2.93608C13.0193 3.15797 13.0435 3.42917 13.1162 3.62641C12.7284 3.88528 12.4012 4.07019 12.1831 4.19346C12.3285 4.24277 12.4618 4.30441 12.6073 4.36605C12.995 4.15648 13.5525 3.79899 14.1948 3.28124ZM16.4852 5.04405C16.5216 5.10568 16.5337 5.16732 16.5337 5.20429C16.5337 5.31523 16.4973 5.35224 16.4731 5.3769C16.4246 5.41388 16.3277 5.43853 16.2429 5.43853C16.3156 5.29058 16.4004 5.16732 16.4852 5.04405ZM13.4919 3.20728C13.5283 3.1703 13.6252 3.14564 13.7828 3.1703C13.6616 3.26892 13.5404 3.35521 13.4192 3.4415C13.4071 3.35521 13.4192 3.26892 13.4919 3.20728Z" fill="#5E12A0"/>
<path d="M9.67423 3.73785C5.71143 3.73785 2.5 7.00457 2.5 11.0356C2.5 15.0666 5.71143 18.3334 9.67423 18.3334C13.637 18.3334 16.8485 15.0666 16.8485 11.0356C16.8485 7.00457 13.6249 3.73785 9.67423 3.73785ZM9.67423 17.9266C5.92957 17.9266 2.89992 14.8447 2.89992 11.0356C2.89992 7.22648 5.92957 4.14465 9.67423 4.14465C13.4189 4.14465 16.4485 7.22648 16.4485 11.0356C16.4485 14.8447 13.4068 17.9266 9.67423 17.9266Z" fill="#5E12A0"/>
<path opacity="0.6" d="M9.67374 17.9267C13.4151 17.9267 16.448 14.8415 16.448 11.0357C16.448 7.22998 13.4151 4.14478 9.67374 4.14478C5.93238 4.14478 2.89941 7.22998 2.89941 11.0357C2.89941 14.8415 5.93238 17.9267 9.67374 17.9267Z" fill="url(#paint2_linear_37_7402)"/>
<path opacity="0.6" d="M9.6255 17.0883C5.9293 16.4843 3.42074 12.9464 4.02668 9.18654C4.29329 7.52236 5.11735 6.1047 6.28074 5.08154C4.58413 6.08005 3.3238 7.81819 2.98447 9.93848C2.39066 13.6983 4.89922 17.2363 8.58329 17.8403C10.6434 18.1854 12.6309 17.5321 14.0973 16.25C12.8006 17.0143 11.2251 17.3472 9.6255 17.0883Z" fill="#A98698"/>
<path opacity="0.6" d="M10.7532 4.24285C9.04442 3.95933 7.38419 4.3538 6.02688 5.22904C6.00265 5.2537 5.97841 5.27835 5.97841 5.27835C6.49952 4.95784 7.26298 4.67431 7.26298 4.67431C5.29978 5.83307 4.69385 7.15208 4.69385 7.15208C5.45732 5.64817 7.69926 4.58802 9.45646 4.51406C11.2137 4.44009 12.3649 4.97017 13.7707 6.1166C15.1765 7.27538 16.0248 9.64219 15.9399 11.516C15.8672 13.3897 14.8977 14.906 14.8977 14.906C15.5642 14.0307 15.9642 13.3897 16.2186 12.7364C16.2671 12.5391 16.3156 12.3419 16.3399 12.1323C16.9458 8.38481 14.4493 4.84689 10.7532 4.24285Z" fill="url(#paint3_linear_37_7402)"/>
<path d="M16.1096 10.9738C16.1096 14.5857 13.2254 17.5196 9.67465 17.5196C6.12389 17.5196 3.22754 14.5857 3.22754 10.9738H16.1096Z" fill="url(#paint4_linear_37_7402)"/>
<g opacity="0.6">
<path opacity="0.6" d="M15.6007 10.9741C15.6007 14.4997 12.8619 17.3843 9.42017 17.5199C9.50499 17.5199 9.58982 17.5199 9.67464 17.5199C13.2254 17.5199 16.1096 14.586 16.1096 10.9741H15.6007Z" fill="url(#paint5_linear_37_7402)"/>
</g>
<g opacity="0.7">
<path opacity="0.7" d="M4.13644 10.9741H3.22754C3.22754 14.586 6.11177 17.5199 9.66253 17.5199C9.82006 17.5199 9.96548 17.5199 10.1109 17.5076C6.77829 17.261 4.13644 14.4258 4.13644 10.9741Z" fill="url(#paint6_linear_37_7402)"/>
</g>
<path d="M16.0975 11.0354C16.0975 10.2834 14.8129 9.85199 13.1042 9.70404C11.8681 9.60543 10.6199 9.72869 9.1899 10.1725C7.9538 10.5423 6.83888 10.4807 6.02695 10.3821C4.22126 10.1725 3.22754 10.1478 3.22754 11.0354C3.22754 12.3174 5.79669 13.92 9.65042 13.3653C11.6015 13.0817 12.6074 12.5023 13.7586 12.1079C15.0069 11.6887 16.0975 11.7011 16.0975 11.0354Z" fill="url(#paint7_linear_37_7402)"/>
<path d="M11.7828 7.92835C12.3852 7.92835 12.8735 7.43161 12.8735 6.81888C12.8735 6.20614 12.3852 5.70941 11.7828 5.70941C11.1805 5.70941 10.6921 6.20614 10.6921 6.81888C10.6921 7.43161 11.1805 7.92835 11.7828 7.92835Z" fill="white"/>
<path d="M13.5645 8.75449C13.8189 8.75449 14.025 8.54477 14.025 8.28606C14.025 8.02735 13.8189 7.81763 13.5645 7.81763C13.3102 7.81763 13.104 8.02735 13.104 8.28606C13.104 8.54477 13.3102 8.75449 13.5645 8.75449Z" fill="white"/>
<g opacity="0.6">
<path opacity="0.6" d="M15.2136 5.93211C15.2014 5.93211 15.1893 5.93211 15.1893 5.93211C15.1166 5.91979 15.0681 5.84583 15.0802 5.75951C15.1893 5.19247 15.6498 4.65007 15.674 4.62541C15.7225 4.56377 15.8195 4.56377 15.868 4.61309C15.9285 4.6624 15.9286 4.76101 15.8801 4.81032C15.868 4.82265 15.4438 5.32806 15.3469 5.82114C15.3347 5.89514 15.2741 5.93211 15.2136 5.93211Z" fill="url(#paint8_linear_37_7402)"/>
</g>
<path opacity="0.2" d="M9.22679 16.1763C9.41418 16.1763 9.56609 16.0218 9.56609 15.8311C9.56609 15.6405 9.41418 15.486 9.22679 15.486C9.03939 15.486 8.88745 15.6405 8.88745 15.8311C8.88745 16.0218 9.03939 16.1763 9.22679 16.1763Z" fill="white"/>
<g opacity="0.4">
<path opacity="0.6" d="M9.03272 16.0533C8.89943 15.9177 8.89943 15.6959 9.03272 15.5603C9.05696 15.5356 9.08119 15.5233 9.10543 15.4986C9.05696 15.511 9.0206 15.5356 8.98425 15.5726C8.85095 15.7082 8.85095 15.9301 8.98425 16.0657C9.09331 16.1766 9.26296 16.2013 9.39629 16.1273C9.27508 16.1766 9.12967 16.152 9.03272 16.0533Z" fill="url(#paint9_linear_37_7402)"/>
</g>
<path opacity="0.3" d="M9.34688 15.732C9.38702 15.732 9.41959 15.6989 9.41959 15.658C9.41959 15.6172 9.38702 15.584 9.34688 15.584C9.3067 15.584 9.27417 15.6172 9.27417 15.658C9.27417 15.6989 9.3067 15.732 9.34688 15.732Z" fill="white"/>
<path opacity="0.2" d="M10.9961 16.0033C11.1835 16.0033 11.3354 15.8488 11.3354 15.6581C11.3354 15.4675 11.1835 15.313 10.9961 15.313C10.8087 15.313 10.6567 15.4675 10.6567 15.6581C10.6567 15.8488 10.8087 16.0033 10.9961 16.0033Z" fill="white"/>
<g opacity="0.4">
<path opacity="0.6" d="M10.8023 15.8808C10.669 15.7452 10.669 15.5233 10.8023 15.3877C10.8265 15.363 10.8507 15.3507 10.875 15.326C10.8265 15.3384 10.7901 15.363 10.7538 15.4C10.6205 15.5356 10.6205 15.7575 10.7538 15.8931C10.8628 16.0041 11.0325 16.0287 11.1658 15.9547C11.0446 16.0041 10.8992 15.9794 10.8023 15.8808Z" fill="url(#paint10_linear_37_7402)"/>
</g>
<path opacity="0.3" d="M11.1159 15.5605C11.1561 15.5605 11.1886 15.5274 11.1886 15.4865C11.1886 15.4457 11.1561 15.4125 11.1159 15.4125C11.0757 15.4125 11.0432 15.4457 11.0432 15.4865C11.0432 15.5274 11.0757 15.5605 11.1159 15.5605Z" fill="white"/>
<path opacity="0.2" d="M10.1226 16.8046C10.2632 16.8046 10.3771 16.6887 10.3771 16.5457C10.3771 16.4027 10.2632 16.2868 10.1226 16.2868C9.98209 16.2868 9.86816 16.4027 9.86816 16.5457C9.86816 16.6887 9.98209 16.8046 10.1226 16.8046Z" fill="white"/>
<g opacity="0.4">
<path opacity="0.6" d="M9.97747 16.705C9.88053 16.6064 9.88053 16.4338 9.97747 16.3352C9.98959 16.3229 10.0138 16.3105 10.0259 16.2982C9.98959 16.3105 9.96535 16.3352 9.94112 16.3598C9.84417 16.4585 9.84417 16.631 9.94112 16.7297C10.0259 16.816 10.1471 16.8283 10.2562 16.7666C10.1592 16.8036 10.0502 16.779 9.97747 16.705Z" fill="url(#paint11_linear_37_7402)"/>
</g>
<path opacity="0.3" d="M10.2081 16.4595C10.2349 16.4595 10.2566 16.4375 10.2566 16.4102C10.2566 16.383 10.2349 16.3609 10.2081 16.3609C10.1814 16.3609 10.1597 16.383 10.1597 16.4102C10.1597 16.4375 10.1814 16.4595 10.2081 16.4595Z" fill="white"/>
<path opacity="0.2" d="M11.6859 16.6199C11.8264 16.6199 11.9404 16.504 11.9404 16.3611C11.9404 16.2181 11.8264 16.1022 11.6859 16.1022C11.5453 16.1022 11.4314 16.2181 11.4314 16.3611C11.4314 16.504 11.5453 16.6199 11.6859 16.6199Z" fill="white"/>
<g opacity="0.4">
<path opacity="0.6" d="M11.5397 16.5211C11.4428 16.4225 11.4428 16.25 11.5397 16.1514C11.5518 16.139 11.5761 16.1267 11.5882 16.1144C11.5518 16.1267 11.5276 16.1514 11.5034 16.176C11.4064 16.2746 11.4064 16.4472 11.5034 16.5458C11.5882 16.6321 11.7094 16.6444 11.8184 16.5828C11.7215 16.6198 11.6124 16.5951 11.5397 16.5211Z" fill="url(#paint12_linear_37_7402)"/>
</g>
<path opacity="0.3" d="M11.7704 16.2742C11.7972 16.2742 11.8189 16.2522 11.8189 16.2249C11.8189 16.1977 11.7972 16.1756 11.7704 16.1756C11.7436 16.1756 11.7219 16.1977 11.7219 16.2249C11.7219 16.2522 11.7436 16.2742 11.7704 16.2742Z" fill="white"/>
<path opacity="0.2" d="M7.78378 16.0525C8.09162 16.0525 8.3412 15.7986 8.3412 15.4855C8.3412 15.1723 8.09162 14.9184 7.78378 14.9184C7.4759 14.9184 7.22632 15.1723 7.22632 15.4855C7.22632 15.7986 7.4759 16.0525 7.78378 16.0525Z" fill="white"/>
<g opacity="0.4">
<path opacity="0.6" d="M7.46921 15.844C7.25109 15.6221 7.25109 15.2646 7.46921 15.0428C7.50556 15.0058 7.54192 14.9811 7.59039 14.9565C7.51768 14.9811 7.45709 15.0304 7.3965 15.0797C7.17838 15.3017 7.17838 15.6591 7.3965 15.881C7.57827 16.0659 7.85702 16.1029 8.07514 15.9673C7.86914 16.0536 7.62674 16.0166 7.46921 15.844Z" fill="url(#paint13_linear_37_7402)"/>
</g>
<path opacity="0.3" d="M7.9786 15.3125C8.04551 15.3125 8.09978 15.2573 8.09978 15.1892C8.09978 15.1211 8.04551 15.0659 7.9786 15.0659C7.91166 15.0659 7.85742 15.1211 7.85742 15.1892C7.85742 15.2573 7.91166 15.3125 7.9786 15.3125Z" fill="white"/>
<path opacity="0.2" d="M12.7649 14.6601C13.0728 14.6601 13.3224 14.4062 13.3224 14.093C13.3224 13.7799 13.0728 13.526 12.7649 13.526C12.4571 13.526 12.2075 13.7799 12.2075 14.093C12.2075 14.4062 12.4571 14.6601 12.7649 14.6601Z" fill="white"/>
<g opacity="0.4">
<path opacity="0.6" d="M12.4373 14.4493C12.2191 14.2274 12.2191 13.8699 12.4373 13.6481C12.4736 13.6111 12.51 13.5864 12.5584 13.5618C12.4857 13.5864 12.4251 13.6357 12.3645 13.685C12.1464 13.9069 12.1464 14.2644 12.3645 14.4863C12.5463 14.6712 12.825 14.7082 13.0432 14.5726C12.8371 14.6589 12.6069 14.6219 12.4373 14.4493Z" fill="url(#paint14_linear_37_7402)"/>
</g>
<path opacity="0.3" d="M12.9581 13.9193C13.025 13.9193 13.0793 13.8641 13.0793 13.7961C13.0793 13.728 13.025 13.6728 12.9581 13.6728C12.8912 13.6728 12.8369 13.728 12.8369 13.7961C12.8369 13.8641 12.8912 13.9193 12.9581 13.9193Z" fill="white"/>
<defs>
<radialGradient id="paint0_radial_37_7402" cx="0" cy="0" r="1" gradientUnits="userSpaceOnUse" gradientTransform="translate(17.1733 3.93486) scale(5.41633 5.50959)">
<stop stop-color="#FFEAFF" stop-opacity="0.6"/>
<stop offset="0.6807" stop-color="#A087C9"/>
<stop offset="1" stop-color="#10002F"/>
</radialGradient>
<radialGradient id="paint1_radial_37_7402" cx="0" cy="0" r="1" gradientUnits="userSpaceOnUse" gradientTransform="translate(14.1589 6.28425) scale(13.2518 13.48)">
<stop stop-color="#FFEAFF" stop-opacity="0.6"/>
<stop offset="0.6807" stop-color="#A087C9"/>
<stop offset="1" stop-color="#10002F"/>
</radialGradient>
<linearGradient id="paint2_linear_37_7402" x1="8.58709" y1="17.8289" x2="10.8271" y2="4.24318" gradientUnits="userSpaceOnUse">
<stop stop-color="#81FFFF"/>
<stop offset="0.6202" stop-color="white" stop-opacity="0"/>
</linearGradient>
<linearGradient id="paint3_linear_37_7402" x1="14.4488" y1="6.35532" x2="8.75973" y2="11.4868" gradientUnits="userSpaceOnUse">
<stop offset="0.2888" stop-color="white"/>
<stop offset="0.7796" stop-color="white" stop-opacity="0"/>
</linearGradient>
<linearGradient id="paint4_linear_37_7402" x1="3.23299" y1="14.2428" x2="16.1065" y2="14.2428" gradientUnits="userSpaceOnUse">
<stop stop-color="#0002E9"/>
<stop offset="0.9952" stop-color="#FF00C7"/>
</linearGradient>
<linearGradient id="paint5_linear_37_7402" x1="16.7159" y1="11.5485" x2="9.59617" y2="18.1632" gradientUnits="userSpaceOnUse">
<stop offset="0.2888" stop-color="white"/>
<stop offset="0.7796" stop-color="white" stop-opacity="0"/>
</linearGradient>
<linearGradient id="paint6_linear_37_7402" x1="3.23299" y1="14.2432" x2="10.1203" y2="14.2432" gradientUnits="userSpaceOnUse">
<stop stop-color="#000292"/>
<stop offset="0.9952" stop-color="#7D00C7"/>
</linearGradient>
<linearGradient id="paint7_linear_37_7402" x1="3.24163" y1="11.5792" x2="16.0979" y2="11.5792" gradientUnits="userSpaceOnUse">
<stop stop-color="#000292"/>
<stop offset="0.9952" stop-color="#BE00C7"/>
</linearGradient>
<linearGradient id="paint8_linear_37_7402" x1="15.8876" y1="4.56538" x2="14.9406" y2="6.07829" gradientUnits="userSpaceOnUse">
<stop offset="0.2888" stop-color="white"/>
<stop offset="0.7796" stop-color="white" stop-opacity="0"/>
</linearGradient>
<linearGradient id="paint9_linear_37_7402" x1="8.88394" y1="15.842" x2="9.39664" y2="15.842" gradientUnits="userSpaceOnUse">
<stop offset="0.2888" stop-color="white"/>
<stop offset="0.7796" stop-color="white" stop-opacity="0"/>
</linearGradient>
<linearGradient id="paint10_linear_37_7402" x1="10.6522" y1="15.6671" x2="11.165" y2="15.6671" gradientUnits="userSpaceOnUse">
<stop offset="0.2888" stop-color="white"/>
<stop offset="0.7796" stop-color="white" stop-opacity="0"/>
</linearGradient>
<linearGradient id="paint11_linear_37_7402" x1="9.86681" y1="16.5477" x2="10.2517" y2="16.5477" gradientUnits="userSpaceOnUse">
<stop offset="0.2888" stop-color="white"/>
<stop offset="0.7796" stop-color="white" stop-opacity="0"/>
</linearGradient>
<linearGradient id="paint12_linear_37_7402" x1="11.4238" y1="16.3634" x2="11.8088" y2="16.3634" gradientUnits="userSpaceOnUse">
<stop offset="0.2888" stop-color="white"/>
<stop offset="0.7796" stop-color="white" stop-opacity="0"/>
</linearGradient>
<linearGradient id="paint13_linear_37_7402" x1="7.22734" y1="15.501" x2="8.06465" y2="15.501" gradientUnits="userSpaceOnUse">
<stop offset="0.2888" stop-color="white"/>
<stop offset="0.7796" stop-color="white" stop-opacity="0"/>
</linearGradient>
<linearGradient id="paint14_linear_37_7402" x1="12.2" y1="14.1059" x2="13.0374" y2="14.1059" gradientUnits="userSpaceOnUse">
<stop offset="0.2888" stop-color="white"/>
<stop offset="0.7796" stop-color="white" stop-opacity="0"/>
</linearGradient>
</defs>
</svg>
