<svg width="20" height="20" viewBox="0 0 20 20" fill="none" xmlns="http://www.w3.org/2000/svg">
    <rect width="20" height="20" rx="10" fill="black"/>
    <path d="M10 18C7.86263 18 5.85455 17.1677 4.34343 15.6566C2.83232 14.1455 2 12.1374 2 10C2 7.86263 2.83232 5.85455 4.34343 4.34343C5.85455 2.83232 7.86263 2 10 2C12.1374 2 14.1455 2.83232 15.6566 4.34343C17.1677 5.85455 18 7.86263 18 10C18 12.1374 17.1677 14.1455 15.6566 15.6566C14.1455 17.1677 12.1374 18 10 18ZM10 2.65051C5.94747 2.65051 2.65051 5.94747 2.65051 10C2.65051 14.0525 5.94747 17.3495 10 17.3495C14.0525 17.3495 17.3495 14.0525 17.3495 10C17.3495 5.94747 14.0525 2.65051 10 2.65051ZM9.04646 7.65657L4.37576 6.50101L7.47879 10.1818L4.93333 14.2707L9.39394 12.4566L12.497 16.1374L12.1495 11.3374L16.6101 9.52323L11.9394 8.36768L11.5919 3.56768L9.04646 7.65657Z"
          fill="url(#paint0_linear_37_5145)"/>
    <defs>
        <linearGradient id="paint0_linear_37_5145" x1="4.4" y1="5.6" x2="14.4" y2="15.2" gradientUnits="userSpaceOnUse">
            <stop stop-color="#B84390"/>
            <stop offset="0.3125" stop-color="#ADA948"/>
            <stop offset="0.625" stop-color="#BFE176"/>
            <stop offset="1" stop-color="#4CB3B0"/>
        </linearGradient>
    </defs>
</svg>
