<svg width="144" height="41" viewBox="0 0 144 41" fill="none" xmlns="http://www.w3.org/2000/svg">
    <g clip-path="url(#clip0_177_426)">
        <path d="M14.568 30.3582L14.1288 30.6113L14.1291 30.1045C14.1291 30.1045 14.123 30.3636 14.24 30.4284C14.3546 30.4919 14.568 30.3582 14.568 30.3582Z"
              fill="#8E3315"/>
        <path d="M3.29797 29.8351C5.7732 34.5153 10.0066 38.02 15.0669 39.5792C20.1272 41.1385 25.5999 40.6242 30.281 38.1492C34.9621 35.6741 38.4681 31.441 40.0282 26.3815C41.5877 21.3219 41.0628 15.8499 38.5876 11.1697C40.8197 18.2032 33.0489 20.6742 33.0489 20.6742L23.6439 25.5892L13.8693 30.6866C13.8693 30.6866 7.20756 34.9747 3.29797 29.8351Z"
              fill="#473ADE"/>
        <path d="M3.26318 29.8695C5.7384 34.5497 9.9718 38.055 15.0321 39.6143C20.0923 41.1736 25.5649 40.6592 30.2461 38.1841C34.9274 35.709 38.4334 31.476 39.9931 26.4165C41.5529 21.3568 41.0385 15.8851 38.5634 11.2048C40.7956 18.2384 33.0139 20.7092 33.0139 20.7092L23.6089 25.6241L13.8345 30.7216C13.8345 30.7216 7.1728 35.0092 3.26318 29.8695Z"
              fill="url(#paint0_linear_177_426)"/>
        <path d="M33.0986 20.3191L33.4994 20.5355L32.9296 20.742C32.9296 20.742 33.2225 20.6408 33.2641 20.5291C33.3053 20.4199 33.0986 20.3191 33.0986 20.3191Z"
              fill="#251E73"/>
        <path d="M38.7089 29.6268C41.1261 24.9161 41.5725 19.4384 39.9501 14.3985C38.3279 9.35858 34.7696 5.16939 30.0583 2.75239C25.3469 0.335396 19.8683 -0.111352 14.8276 1.51041C9.78696 3.13217 5.59729 6.68963 3.18018 11.4001C7.66544 5.54011 14.1503 10.4998 14.1503 10.4998L23.5687 15.3891L33.3482 20.4766C33.3482 20.4766 40.6803 23.4778 38.7089 29.6268Z"
              fill="#D71D6A"/>
        <path d="M38.6608 29.6074C41.0709 24.9108 41.516 19.4495 39.8987 14.4247C38.281 9.39979 34.7335 5.22301 30.0361 2.81323C25.3388 0.403413 19.8765 -0.0419852 14.8508 1.57492C9.82518 3.19189 5.64796 6.73874 3.23804 11.4352C7.70991 5.59263 14.1755 10.5376 14.1755 10.5376L23.5659 15.4123L33.3165 20.4846C33.3165 20.4846 40.6263 23.4768 38.6608 29.6074Z"
              fill="url(#paint1_linear_177_426)"/>
        <path d="M14.1321 10.9728L14.1239 10.4421L14.5877 10.7004C14.5877 10.7004 14.3535 10.5629 14.2347 10.6369C14.1183 10.7095 14.1321 10.9728 14.1321 10.9728Z"
              fill="#741039"/>
        <path d="M20.946 0.546143C15.651 0.546143 10.5729 2.64946 6.82882 6.39336C3.08473 10.1373 0.981323 15.2151 0.981323 20.5098C0.981323 25.8045 3.08473 30.8823 6.82882 34.6264C10.5729 38.3703 15.651 40.4737 20.946 40.4737C14.1503 39.3327 14.1503 30.5295 14.1503 30.5295V20.5098V10.313C14.1503 10.313 14.1503 1.76233 20.946 0.546143Z"
              fill="#FF5B25"/>
        <path d="M20.946 0.499756C15.651 0.499756 10.5729 2.60308 6.82882 6.34699C3.08473 10.0909 0.981323 15.1687 0.981323 20.4635C0.981323 25.7582 3.08473 30.836 6.82882 34.5799C10.5729 38.3238 15.651 40.4272 20.946 40.4272C14.1503 38.2562 14.1503 30.5406 14.1503 30.5406V20.4881V10.4998C14.1503 10.4998 13.9031 1.79343 20.946 0.499756Z"
              fill="url(#paint2_linear_177_426)"/>
        <path d="M20.8937 40.4646C14.1504 37.3934 14.1583 30.5373 14.1583 30.5373C14.1583 30.5373 5.80051 35.2516 2.98682 29.2219C2.98682 29.2219 7.70351 40.5046 20.8937 40.4646Z"
              fill="#473ADE"/>
        <path d="M56.3503 15.2085C55.6834 15.2085 55.0996 15.3496 54.5994 15.6318C54.0993 15.914 53.6759 16.2988 53.3296 16.7862C52.996 17.2736 52.7396 17.838 52.5599 18.4794C52.3933 19.1207 52.3099 19.7941 52.3099 20.4996C52.3099 21.1665 52.3933 21.8207 52.5599 22.4621C52.7396 23.0906 52.996 23.655 53.3296 24.1551C53.6759 24.6426 54.0993 25.0402 54.5994 25.348C55.0996 25.6431 55.6834 25.7906 56.3503 25.7906C56.8763 25.7906 57.3829 25.6751 57.8704 25.4443C58.3578 25.2006 58.7875 24.8541 59.1594 24.4053C59.5314 23.9563 59.8265 23.4048 60.0445 22.7506C60.2753 22.0965 60.3908 21.3462 60.3908 20.4996C60.3908 19.7428 60.2947 19.0438 60.1023 18.4024C59.9226 17.7482 59.6597 17.1902 59.3133 16.7285C58.967 16.2539 58.5438 15.8819 58.0434 15.6126C57.5432 15.3432 56.9788 15.2085 56.3503 15.2085ZM56.3503 27.7723C55.2344 27.7723 54.2467 27.5863 53.3874 27.2143C52.5279 26.8423 51.7968 26.3357 51.1939 25.6943C50.6039 25.0402 50.1549 24.2706 49.8471 23.3855C49.5392 22.5006 49.3853 21.5385 49.3853 20.4996C49.3853 19.499 49.5392 18.5563 49.8471 17.6712C50.1676 16.7862 50.6231 16.0166 51.2131 15.3625C51.816 14.6955 52.5472 14.176 53.4065 13.804C54.2659 13.4192 55.2473 13.2268 56.3503 13.2268C57.6073 13.2268 58.6721 13.4449 59.5443 13.881C60.4293 14.3171 61.1476 14.8879 61.6991 15.5933C62.2635 16.286 62.6676 17.0684 62.9113 17.9406C63.168 18.8001 63.2961 19.6529 63.2961 20.4996C63.2961 21.4487 63.1422 22.3594 62.8344 23.2316C62.5266 24.1038 62.0776 24.8799 61.4876 25.5597C60.9103 26.2267 60.1857 26.7653 59.3133 27.1758C58.4539 27.5735 57.4663 27.7723 56.3503 27.7723Z"
              fill="white"/>
        <path d="M66.5109 13.5156H69.9934L73.0526 24.3092L73.1874 25.0019L73.3413 24.3092L76.3812 13.5156H79.8829L81.1913 27.5031H78.6709L77.9205 16.9596L77.8627 16.0361L77.6319 16.9596L74.5918 27.3107H71.7634L68.685 16.9403L68.4542 16.0361L68.3964 16.9403L67.6845 27.5031H65.1639L66.5109 13.5156Z"
              fill="white"/>
        <path d="M87.0676 17.7099L86.7596 17.0173L86.7981 17.6714V27.5031H84.4509V13.5156H87.1061L93.0128 22.9239L93.2822 23.6936L93.2437 22.9239V13.5156H95.668V27.5031H93.2437L87.0676 17.7099Z"
              fill="white"/>
        <path d="M101.889 27.5031H99.2146V13.5156H101.889V27.5031Z" fill="white"/>
        <path d="M105.096 13.5156H113.485V15.4973H107.847V27.5031H105.096V13.5156ZM108.578 21.1346C108.642 20.9294 108.726 20.7114 108.828 20.4804C108.931 20.2495 109.059 20.038 109.213 19.8455C109.367 19.6531 109.547 19.4992 109.752 19.3838C109.97 19.2555 110.22 19.1914 110.502 19.1914H112.83V21.1346H108.578Z"
              fill="white"/>
        <path d="M116.312 13.5156H119.083V25.5021H124.124V27.5031H116.312V13.5156Z" fill="white"/>
        <path d="M129.228 27.5031H126.553V13.5156H129.228V27.5031Z" fill="white"/>
        <path d="M131.607 13.5156H134.647L137.014 18.1139L137.206 18.7104L137.36 18.1139L139.727 13.5156H142.747L138.572 20.4227L142.959 27.5031H139.977L131.607 13.5156ZM134.339 27.5031H131.396L135.205 21.25C135.321 21.4168 135.455 21.6348 135.609 21.9043C135.763 22.1736 135.885 22.4685 135.975 22.7892C136.077 23.0971 136.129 23.4241 136.129 23.7705C136.142 24.1039 136.065 24.4182 135.898 24.7132L134.339 27.5031Z"
              fill="white"/>
    </g>
    <defs>
        <linearGradient id="paint0_linear_177_426" x1="38.5652" y1="18.2336" x2="9.51919" y2="46.9152"
                        gradientUnits="userSpaceOnUse">
            <stop stop-opacity="0.6"/>
            <stop offset="0.655513" stop-opacity="0"/>
        </linearGradient>
        <linearGradient id="paint1_linear_177_426" x1="8.9806" y1="7.4175" x2="49.0131" y2="14.7629"
                        gradientUnits="userSpaceOnUse">
            <stop stop-opacity="0.6"/>
            <stop offset="0.645833" stop-opacity="0"/>
        </linearGradient>
        <linearGradient id="paint2_linear_177_426" x1="11.673" y1="37.9543" x2="-0.201365" y2="1.37572"
                        gradientUnits="userSpaceOnUse">
            <stop stop-opacity="0.6"/>
            <stop offset="0.675464" stop-opacity="0"/>
        </linearGradient>
        <clipPath id="clip0_177_426">
            <rect width="142.037" height="40" fill="white" transform="translate(0.981323 0.499756)"/>
        </clipPath>
    </defs>
</svg>
