<svg width="142" height="36" viewBox="0 0 142 36" fill="none" xmlns="http://www.w3.org/2000/svg">
    <path d="M38.1879 20.3175C38.1879 15.596 41.6463 12.1978 46.3978 12.1978C51.1493 12.1978 54.6076 15.596 54.6076 20.3175C54.6076 25.0389 51.1493 28.4371 46.3978 28.4371C41.6763 28.4371 38.1879 25.0389 38.1879 20.3175ZM51.1793 20.3175C51.1793 17.3704 49.2847 15.145 46.3978 15.145C43.5107 15.145 41.6463 17.3704 41.6463 20.3175C41.6463 23.2346 43.5107 25.49 46.3978 25.49C49.2847 25.4599 51.1793 23.2346 51.1793 20.3175Z"
          fill="white"/>
    <path d="M55.9011 25.9398L57.7054 23.3837C58.8181 24.5264 60.5323 25.4888 62.6976 25.4888C64.532 25.4888 65.4342 24.6467 65.4342 23.7446C65.4342 20.9778 56.3822 22.8724 56.3822 16.948C56.3822 14.3317 58.6377 12.1665 62.3367 12.1665C64.8327 12.1665 66.9077 12.9183 68.4716 14.3618L66.607 16.7977C65.344 15.6249 63.6298 15.0836 62.0359 15.0836C60.5925 15.0836 59.8106 15.7151 59.8106 16.6473C59.8106 19.1434 68.8324 17.4593 68.8324 23.3235C68.8324 26.2105 66.7875 28.3757 62.5472 28.3757C59.5399 28.4359 57.3747 27.4134 55.9011 25.9398Z"
          fill="white"/>
    <path d="M84.77 28.1651V17.1585L80.3498 28.1651H78.8762L74.4553 17.1585V28.1651H71.1172V12.437H75.8086L79.628 21.94L83.4473 12.437H88.1686V28.1351H84.77V28.1651Z"
          fill="white"/>
    <path d="M90.4845 20.3174C90.4845 15.596 93.9429 12.1978 98.6941 12.1978C103.446 12.1978 106.904 15.596 106.904 20.3174C106.904 25.0389 103.446 28.4371 98.6941 28.4371C93.9429 28.4371 90.4845 25.0389 90.4845 20.3174ZM103.476 20.3174C103.476 17.3703 101.582 15.1449 98.6941 15.1449C95.8074 15.1449 93.9429 17.3703 93.9429 20.3174C93.9429 23.2345 95.8074 25.4899 98.6941 25.4899C101.582 25.4599 103.476 23.2345 103.476 20.3174Z"
          fill="white"/>
    <path d="M108.197 25.9398L110.002 23.3837C111.114 24.5264 112.828 25.4888 114.994 25.4888C116.828 25.4888 117.73 24.6467 117.73 23.7446C117.73 20.9778 108.678 22.8724 108.678 16.948C108.678 14.3317 110.934 12.1665 114.633 12.1665C117.128 12.1665 119.204 12.9183 120.768 14.3618L118.903 16.7977C117.64 15.6249 115.925 15.0836 114.332 15.0836C112.888 15.0836 112.107 15.7151 112.107 16.6473C112.107 19.1434 121.128 17.4593 121.128 23.3235C121.128 26.2105 119.083 28.3757 114.843 28.3757C111.836 28.4359 109.671 27.4134 108.197 25.9398Z"
          fill="white"/>
    <path d="M123.384 28.1651V12.437H126.752V28.1351H123.384V28.1651Z" fill="white"/>
    <path d="M128.798 25.9398L130.602 23.3837C131.714 24.5264 133.429 25.4888 135.593 25.4888C137.428 25.4888 138.331 24.6467 138.331 23.7446C138.331 20.9778 129.278 22.8724 129.278 16.948C129.278 14.3317 131.534 12.1665 135.233 12.1665C137.729 12.1665 139.804 12.9183 141.368 14.3618L139.503 16.7977C138.24 15.6249 136.526 15.0836 134.932 15.0836C133.488 15.0836 132.707 15.7151 132.707 16.6473C132.707 19.1434 141.729 17.4593 141.729 23.3235C141.729 26.2105 139.684 28.3757 135.443 28.3757C132.406 28.4359 130.241 27.4134 128.798 25.9398Z"
          fill="white"/>
    <path d="M32.2613 6.68733C31.905 5.3153 30.7598 3.94326 28.6984 2.41591C27.0442 1.1992 25.2882 0.500244 23.8885 0.500244C23.6085 0.500244 23.354 0.52613 23.0996 0.577905C22.4633 0.707342 21.9035 1.17331 21.5472 1.87228C21.1145 2.70067 21.0127 3.81383 21.2927 4.4869C21.3945 4.694 21.5217 4.95287 21.6744 5.18585C20.3256 6.01425 19.5621 6.24724 19.4603 6.27313C22.9723 7.46394 25.899 9.94915 27.7313 13.185L27.7568 12.8744C27.8331 12.0201 28.0876 11.0364 28.4439 10.0268C28.8002 10.1303 29.1565 10.1821 29.5128 10.1821C30.4544 10.1821 31.2687 9.79384 31.7778 9.09486C32.2867 8.39589 32.4903 7.46395 32.2613 6.68733Z"
          fill="#5E12A0"/>
    <path d="M28.5968 9.27596C30.9127 9.92309 31.8543 8.11098 31.5489 6.89428C31.2181 5.67758 30.1492 4.43498 28.266 3.03706C26.3827 1.63915 24.4741 1.06962 23.2525 1.32849C22.0309 1.58737 21.6746 3.47715 21.98 4.20199C22.1073 4.48675 22.3872 4.90095 22.7689 5.36692C22.2854 5.70346 21.8273 5.96234 21.4456 6.19532C23.7869 7.25671 25.8229 8.91349 27.3498 10.9845C27.5279 10.2856 27.7824 9.66424 28.0114 9.12057C28.1896 9.14646 28.3932 9.19823 28.5968 9.27596Z"
          fill="url(#paint0_radial_177_445)"/>
    <path d="M15.3377 34.6457C23.1946 34.6457 29.5638 28.1668 29.5638 20.1747C29.5638 12.1825 23.1946 5.70361 15.3377 5.70361C7.48082 5.70361 1.11157 12.1825 1.11157 20.1747C1.11157 28.1668 7.48082 34.6457 15.3377 34.6457Z"
          fill="url(#paint1_radial_177_445)"/>
    <path opacity="0.6"
          d="M30.3781 5.70318C28.444 3.63219 26.8153 3.08856 24.8556 2.64847C23.3287 2.28605 23.7359 1.40588 25.5937 1.58709C24.703 1.27644 23.8631 1.19878 23.2524 1.32822C22.0308 1.58709 21.6745 3.47687 21.9799 4.20172C22.1071 4.48648 22.3871 4.90068 22.7688 5.36665C22.0817 5.83262 21.4963 6.16915 21.0128 6.42803C21.2418 6.53158 21.5218 6.66102 21.8527 6.84223C22.7179 7.3082 23.6595 8.08479 23.6595 8.08479C22.2344 6.84223 22.5398 6.2727 24.4994 4.87478C25.1101 4.4347 26.2299 4.48648 27.2733 5.03011C28.3168 5.57374 29.5383 6.94578 29.5383 6.94578L28.3676 9.22389C28.444 9.24977 28.5203 9.27566 28.5967 9.30154C29.3347 9.50862 29.92 9.45685 30.3781 9.27566C30.9126 8.93908 32.3123 7.80005 30.3781 5.70318Z"
          fill="#A98698"/>
    <path d="M24.8299 3.89107C25.3389 4.09818 26.0006 4.4606 26.815 5.00423C27.782 5.65142 28.6218 6.37627 29.1563 6.94579C28.2655 8.13658 27.6802 9.76749 27.3239 10.9066C27.502 11.1654 27.7056 11.4243 27.8838 11.6831C28.062 11.036 28.3673 10.0782 28.7745 9.12029C28.8763 9.14625 29.0035 9.14625 29.1308 9.14625C29.4362 9.14625 29.7925 9.0944 30.0724 8.86144C30.276 8.70613 30.5051 8.42139 30.4796 7.90361C30.4796 7.41176 30.0979 6.79047 29.309 6.03973C28.7491 5.4961 27.9856 4.90069 27.2221 4.35705C25.0335 2.88147 23.5065 2.46727 22.8194 3.16623C22.3613 3.6322 22.4122 4.20173 22.5649 4.61593C21.7506 5.15956 21.0634 5.54787 20.6053 5.80674C20.9107 5.91029 21.1906 6.03973 21.4961 6.16917C22.3104 5.72909 23.4811 4.97835 24.8299 3.89107ZM29.6398 7.59297C29.7161 7.72241 29.7416 7.85184 29.7416 7.9295C29.7416 8.16246 29.6652 8.24019 29.6143 8.29196C29.5126 8.36962 29.309 8.42139 29.1308 8.42139C29.2835 8.11069 29.4617 7.85184 29.6398 7.59297ZM23.3538 3.73576C23.4302 3.65809 23.6338 3.60631 23.9647 3.65809C23.7101 3.86519 23.4556 4.0464 23.2012 4.22761C23.1757 4.0464 23.2012 3.86519 23.3538 3.73576Z"
          fill="#5E12A0"/>
    <path d="M15.3373 4.84912C7.01539 4.84912 0.271362 11.7092 0.271362 20.1744C0.271362 28.6396 7.01539 35.4998 15.3373 35.4998C23.6592 35.4998 30.4032 28.6396 30.4032 20.1744C30.4032 11.7092 23.6338 4.84912 15.3373 4.84912ZM15.3373 34.6455C7.47348 34.6455 1.11119 28.1736 1.11119 20.1744C1.11119 12.1752 7.47348 5.7034 15.3373 5.7034C23.2011 5.7034 29.5634 12.1752 29.5634 20.1744C29.5634 28.1736 23.1756 34.6455 15.3373 34.6455Z"
          fill="#5E12A0"/>
    <path opacity="0.6"
          d="M15.3377 34.6457C23.1946 34.6457 29.5638 28.1668 29.5638 20.1747C29.5638 12.1826 23.1946 5.70361 15.3377 5.70361C7.48082 5.70361 1.11157 12.1826 1.11157 20.1747C1.11157 28.1668 7.48082 34.6457 15.3377 34.6457Z"
          fill="url(#paint2_linear_177_445)"/>
    <path opacity="0.6"
          d="M15.2349 32.8847C7.47284 31.6162 2.20486 24.1866 3.47731 16.2909C4.0372 12.7961 5.76774 9.81905 8.21087 7.67041C4.64798 9.76728 2.00127 13.4174 1.28869 17.87C0.0416752 25.7657 5.30966 33.1954 13.0462 34.4638C17.3726 35.1887 21.5463 33.8167 24.6256 31.1243C21.9025 32.7294 18.5941 33.4283 15.2349 32.8847Z"
          fill="#A98698"/>
    <path opacity="0.6"
          d="M17.602 5.91142C14.0137 5.316 10.5272 6.1444 7.67682 7.98242C7.62593 8.03419 7.57503 8.08596 7.57503 8.08596C8.66936 7.41288 10.2726 6.81748 10.2726 6.81748C6.1499 9.25087 4.87744 12.0208 4.87744 12.0208C6.48074 8.86259 11.1888 6.63626 14.879 6.48094C18.5691 6.32562 20.9868 7.43878 23.9389 9.8463C26.891 12.2797 28.6724 17.2501 28.4943 21.185C28.3416 25.1198 26.3056 28.304 26.3056 28.304C27.7053 26.466 28.5452 25.1198 29.0796 23.7478C29.1814 23.3336 29.2832 22.9194 29.3341 22.4793C30.6066 14.6095 25.364 7.1799 17.602 5.91142Z"
          fill="url(#paint3_linear_177_445)"/>
    <path d="M28.851 20.0449C28.851 27.6299 22.7941 33.7911 15.3374 33.7911C7.88082 33.7911 1.79846 27.6299 1.79846 20.0449H28.851Z"
          fill="url(#paint4_linear_177_445)"/>
    <g opacity="0.6">
        <path opacity="0.6"
              d="M27.782 20.0449C27.782 27.4487 22.0306 33.5063 14.803 33.7911C14.9811 33.7911 15.1592 33.7911 15.3374 33.7911C22.794 33.7911 28.8509 27.6299 28.8509 20.0449H27.782Z"
              fill="url(#paint5_linear_177_445)"/>
    </g>
    <g opacity="0.7">
        <path opacity="0.7"
              d="M3.70715 20.0449H1.79846C1.79846 27.6299 7.85537 33.7911 15.312 33.7911C15.6428 33.7911 15.9482 33.7911 16.2536 33.7653C9.25507 33.2475 3.70715 27.2934 3.70715 20.0449Z"
              fill="url(#paint6_linear_177_445)"/>
    </g>
    <path d="M28.8255 20.1743C28.8255 18.5952 26.1279 17.6891 22.5396 17.3784C19.9438 17.1713 17.3224 17.4302 14.3195 18.3621C11.7236 19.1388 9.38231 19.0093 7.67724 18.8023C3.88529 18.3621 1.79846 18.3104 1.79846 20.1743C1.79846 22.8665 7.19368 26.2319 15.2865 25.067C19.3838 24.4716 21.4961 23.2549 23.9138 22.4265C26.5351 21.5463 28.8255 21.5722 28.8255 20.1743Z"
          fill="url(#paint7_linear_177_445)"/>
    <path d="M19.7658 13.6507C21.0307 13.6507 22.0562 12.6076 22.0562 11.3209C22.0562 10.0341 21.0307 8.99097 19.7658 8.99097C18.5008 8.99097 17.4753 10.0341 17.4753 11.3209C17.4753 12.6076 18.5008 13.6507 19.7658 13.6507Z"
          fill="white"/>
    <path d="M23.5064 15.3847C24.0405 15.3847 24.4735 14.9442 24.4735 14.4009C24.4735 13.8576 24.0405 13.4172 23.5064 13.4172C22.9723 13.4172 22.5393 13.8576 22.5393 14.4009C22.5393 14.9442 22.9723 15.3847 23.5064 15.3847Z"
          fill="white"/>
    <g opacity="0.6">
        <path opacity="0.6"
              d="M26.9677 9.45697C26.9423 9.45697 26.9168 9.45697 26.9168 9.45697C26.7641 9.43109 26.6623 9.27578 26.6877 9.09451C26.9168 7.90371 27.8839 6.76466 27.9347 6.71289C28.0366 6.58345 28.2402 6.58345 28.342 6.68701C28.4692 6.79055 28.4692 6.99765 28.3674 7.1012C28.342 7.12708 27.4512 8.18845 27.2477 9.22393C27.2222 9.37932 27.095 9.45697 26.9677 9.45697Z"
              fill="url(#paint8_linear_177_445)"/>
    </g>
    <path opacity="0.2"
          d="M14.3974 30.9695C14.791 30.9695 15.11 30.6449 15.11 30.2446C15.11 29.8443 14.791 29.5198 14.3974 29.5198C14.0039 29.5198 13.6848 29.8443 13.6848 30.2446C13.6848 30.6449 14.0039 30.9695 14.3974 30.9695Z"
          fill="white"/>
    <g opacity="0.4">
        <path opacity="0.6"
              d="M13.9884 30.7114C13.7084 30.4266 13.7084 29.9606 13.9884 29.6759C14.0393 29.6241 14.0902 29.5982 14.1411 29.5464C14.0393 29.5723 13.9629 29.6241 13.8866 29.7018C13.6067 29.9865 13.6067 30.4524 13.8866 30.7373C14.1156 30.9702 14.4719 31.022 14.7519 30.8667C14.4973 30.9702 14.192 30.9185 13.9884 30.7114Z"
              fill="url(#paint9_linear_177_445)"/>
    </g>
    <path opacity="0.3"
          d="M14.6501 30.0379C14.7344 30.0379 14.8028 29.9684 14.8028 29.8826C14.8028 29.7969 14.7344 29.7273 14.6501 29.7273C14.5658 29.7273 14.4974 29.7969 14.4974 29.8826C14.4974 29.9684 14.5658 30.0379 14.6501 30.0379Z"
          fill="white"/>
    <path opacity="0.2"
          d="M18.1132 30.6071C18.5068 30.6071 18.8258 30.2826 18.8258 29.8823C18.8258 29.4819 18.5068 29.1575 18.1132 29.1575C17.7197 29.1575 17.4006 29.4819 17.4006 29.8823C17.4006 30.2826 17.7197 30.6071 18.1132 30.6071Z"
          fill="white"/>
    <g opacity="0.4">
        <path opacity="0.6"
              d="M17.7042 30.349C17.4243 30.0643 17.4243 29.5982 17.7042 29.3135C17.7551 29.2617 17.806 29.2359 17.8569 29.1841C17.7551 29.21 17.6787 29.2617 17.6024 29.3394C17.3225 29.6241 17.3225 30.0901 17.6024 30.3749C17.8314 30.6079 18.1877 30.6597 18.4677 30.5043C18.2131 30.6079 17.9078 30.5561 17.7042 30.349Z"
              fill="url(#paint10_linear_177_445)"/>
    </g>
    <path opacity="0.3"
          d="M18.3655 29.6752C18.4497 29.6752 18.5181 29.6056 18.5181 29.5199C18.5181 29.4341 18.4497 29.3645 18.3655 29.3645C18.2811 29.3645 18.2128 29.4341 18.2128 29.5199C18.2128 29.6056 18.2811 29.6752 18.3655 29.6752Z"
          fill="white"/>
    <path opacity="0.2"
          d="M16.2788 32.289C16.574 32.289 16.8132 32.0456 16.8132 31.7453C16.8132 31.4451 16.574 31.2017 16.2788 31.2017C15.9836 31.2017 15.7444 31.4451 15.7444 31.7453C15.7444 32.0456 15.9836 32.289 16.2788 32.289Z"
          fill="white"/>
    <g opacity="0.4">
        <path opacity="0.6"
              d="M15.9734 32.083C15.7698 31.8759 15.7698 31.5135 15.9734 31.3064C15.9989 31.2805 16.0498 31.2546 16.0752 31.2288C15.9989 31.2546 15.948 31.3064 15.8971 31.3582C15.6935 31.5653 15.6935 31.9277 15.8971 32.1348C16.0752 32.316 16.3297 32.3419 16.5587 32.2125C16.3551 32.2901 16.1261 32.2384 15.9734 32.083Z"
              fill="url(#paint11_linear_177_445)"/>
    </g>
    <path opacity="0.3"
          d="M16.4574 31.5641C16.5136 31.5641 16.5592 31.5177 16.5592 31.4605C16.5592 31.4033 16.5136 31.3569 16.4574 31.3569C16.4012 31.3569 16.3556 31.4033 16.3556 31.4605C16.3556 31.5177 16.4012 31.5641 16.4574 31.5641Z"
          fill="white"/>
    <path opacity="0.2"
          d="M19.562 31.902C19.8572 31.902 20.0965 31.6586 20.0965 31.3584C20.0965 31.0581 19.8572 30.8147 19.562 30.8147C19.2668 30.8147 19.0276 31.0581 19.0276 31.3584C19.0276 31.6586 19.2668 31.902 19.562 31.902Z"
          fill="white"/>
    <g opacity="0.4">
        <path opacity="0.6"
              d="M19.2566 31.696C19.053 31.4889 19.053 31.1265 19.2566 30.9195C19.2821 30.8936 19.333 30.8677 19.3584 30.8418C19.2821 30.8677 19.2312 30.9195 19.1803 30.9712C18.9767 31.1783 18.9767 31.5407 19.1803 31.7479C19.3584 31.9291 19.6129 31.9549 19.8419 31.8255C19.6383 31.9032 19.4093 31.8514 19.2566 31.696Z"
              fill="url(#paint12_linear_177_445)"/>
    </g>
    <path opacity="0.3"
          d="M19.74 31.1766C19.7962 31.1766 19.8418 31.1303 19.8418 31.073C19.8418 31.0159 19.7962 30.9695 19.74 30.9695C19.6838 30.9695 19.6382 31.0159 19.6382 31.073C19.6382 31.1303 19.6838 31.1766 19.74 31.1766Z"
          fill="white"/>
    <path opacity="0.2"
          d="M11.3671 30.7113C12.0136 30.7113 12.5377 30.1781 12.5377 29.5205C12.5377 28.8628 12.0136 28.3296 11.3671 28.3296C10.7205 28.3296 10.1964 28.8628 10.1964 29.5205C10.1964 30.1781 10.7205 30.7113 11.3671 30.7113Z"
          fill="white"/>
    <g opacity="0.4">
        <path opacity="0.6"
              d="M10.7063 30.2704C10.2483 29.8044 10.2483 29.0536 10.7063 28.5877C10.7827 28.51 10.859 28.4583 10.9608 28.4065C10.8081 28.4583 10.6809 28.5618 10.5536 28.6653C10.0956 29.1314 10.0956 29.882 10.5536 30.348C10.9353 30.7363 11.5207 30.814 11.9788 30.5292C11.5462 30.7104 11.0371 30.6328 10.7063 30.2704Z"
              fill="url(#paint13_linear_177_445)"/>
    </g>
    <path opacity="0.3"
          d="M11.775 29.1574C11.9155 29.1574 12.0295 29.0415 12.0295 28.8985C12.0295 28.7555 11.9155 28.6396 11.775 28.6396C11.6344 28.6396 11.5205 28.7555 11.5205 28.8985C11.5205 29.0415 11.6344 29.1574 11.775 29.1574Z"
          fill="white"/>
    <path opacity="0.2"
          d="M21.8272 27.786C22.4738 27.786 22.9979 27.2528 22.9979 26.5951C22.9979 25.9375 22.4738 25.4043 21.8272 25.4043C21.1807 25.4043 20.6566 25.9375 20.6566 26.5951C20.6566 27.2528 21.1807 27.786 21.8272 27.786Z"
          fill="white"/>
    <g opacity="0.4">
        <path opacity="0.6"
              d="M21.1398 27.3448C20.6817 26.8788 20.6817 26.1281 21.1398 25.6622C21.2162 25.5845 21.2925 25.5327 21.3943 25.481C21.2416 25.5327 21.1144 25.6363 20.9872 25.7398C20.529 26.2057 20.529 26.9565 20.9872 27.4225C21.3689 27.8108 21.9542 27.8884 22.4123 27.6037C21.9796 27.7849 21.4961 27.7072 21.1398 27.3448Z"
              fill="url(#paint14_linear_177_445)"/>
    </g>
    <path opacity="0.3"
          d="M22.234 26.2325C22.3746 26.2325 22.4885 26.1167 22.4885 25.9737C22.4885 25.8307 22.3746 25.7148 22.234 25.7148C22.0935 25.7148 21.9795 25.8307 21.9795 25.9737C21.9795 26.1167 22.0935 26.2325 22.234 26.2325Z"
          fill="white"/>
    <defs>
        <radialGradient id="paint0_radial_177_445" cx="0" cy="0" r="1" gradientUnits="userSpaceOnUse"
                        gradientTransform="translate(31.0847 5.26335) scale(11.3743 11.5702)">
            <stop stop-color="#FFEAFF" stop-opacity="0.6"/>
            <stop offset="0.6807" stop-color="#A087C9"/>
            <stop offset="1" stop-color="#10002F"/>
        </radialGradient>
        <radialGradient id="paint1_radial_177_445" cx="0" cy="0" r="1" gradientUnits="userSpaceOnUse"
                        gradientTransform="translate(24.7566 10.1981) scale(27.8289 28.3082)">
            <stop stop-color="#FFEAFF" stop-opacity="0.6"/>
            <stop offset="0.6807" stop-color="#A087C9"/>
            <stop offset="1" stop-color="#10002F"/>
        </radialGradient>
        <linearGradient id="paint2_linear_177_445" x1="13.0557" y1="34.4404" x2="17.7598" y2="5.91027"
                        gradientUnits="userSpaceOnUse">
            <stop stop-color="#81FFFF"/>
            <stop offset="0.6202" stop-color="white" stop-opacity="0"/>
        </linearGradient>
        <linearGradient id="paint3_linear_177_445" x1="25.3628" y1="10.3476" x2="13.4158" y2="21.1237"
                        gradientUnits="userSpaceOnUse">
            <stop offset="0.2888" stop-color="white"/>
            <stop offset="0.7796" stop-color="white" stop-opacity="0"/>
        </linearGradient>
        <linearGradient id="paint4_linear_177_445" x1="1.80991" y1="26.91" x2="28.8444" y2="26.91"
                        gradientUnits="userSpaceOnUse">
            <stop stop-color="#0002E9"/>
            <stop offset="0.9952" stop-color="#FF00C7"/>
        </linearGradient>
        <linearGradient id="paint5_linear_177_445" x1="30.1241" y1="21.2511" x2="15.1726" y2="35.142"
                        gradientUnits="userSpaceOnUse">
            <stop offset="0.2888" stop-color="white"/>
            <stop offset="0.7796" stop-color="white" stop-opacity="0"/>
        </linearGradient>
        <linearGradient id="paint6_linear_177_445" x1="1.80991" y1="26.91" x2="16.2732" y2="26.91"
                        gradientUnits="userSpaceOnUse">
            <stop stop-color="#000292"/>
            <stop offset="0.9952" stop-color="#7D00C7"/>
        </linearGradient>
        <linearGradient id="paint7_linear_177_445" x1="1.82806" y1="21.3163" x2="28.8263" y2="21.3163"
                        gradientUnits="userSpaceOnUse">
            <stop stop-color="#000292"/>
            <stop offset="0.9952" stop-color="#BE00C7"/>
        </linearGradient>
        <linearGradient id="paint8_linear_177_445" x1="28.3833" y1="6.58682" x2="26.3945" y2="9.76395"
                        gradientUnits="userSpaceOnUse">
            <stop offset="0.2888" stop-color="white"/>
            <stop offset="0.7796" stop-color="white" stop-opacity="0"/>
        </linearGradient>
        <linearGradient id="paint9_linear_177_445" x1="13.6759" y1="30.2676" x2="14.7526" y2="30.2676"
                        gradientUnits="userSpaceOnUse">
            <stop offset="0.2888" stop-color="white"/>
            <stop offset="0.7796" stop-color="white" stop-opacity="0"/>
        </linearGradient>
        <linearGradient id="paint10_linear_177_445" x1="17.3891" y1="29.9003" x2="18.4659" y2="29.9003"
                        gradientUnits="userSpaceOnUse">
            <stop offset="0.2888" stop-color="white"/>
            <stop offset="0.7796" stop-color="white" stop-opacity="0"/>
        </linearGradient>
        <linearGradient id="paint11_linear_177_445" x1="15.741" y1="31.7527" x2="16.5494" y2="31.7527"
                        gradientUnits="userSpaceOnUse">
            <stop offset="0.2888" stop-color="white"/>
            <stop offset="0.7796" stop-color="white" stop-opacity="0"/>
        </linearGradient>
        <linearGradient id="paint12_linear_177_445" x1="19.0132" y1="31.3647" x2="19.8216" y2="31.3647"
                        gradientUnits="userSpaceOnUse">
            <stop offset="0.2888" stop-color="white"/>
            <stop offset="0.7796" stop-color="white" stop-opacity="0"/>
        </linearGradient>
        <linearGradient id="paint13_linear_177_445" x1="10.1984" y1="29.55" x2="11.9568" y2="29.55"
                        gradientUnits="userSpaceOnUse">
            <stop offset="0.2888" stop-color="white"/>
            <stop offset="0.7796" stop-color="white" stop-opacity="0"/>
        </linearGradient>
        <linearGradient id="paint14_linear_177_445" x1="20.6416" y1="26.6236" x2="22.4001" y2="26.6236"
                        gradientUnits="userSpaceOnUse">
            <stop offset="0.2888" stop-color="white"/>
            <stop offset="0.7796" stop-color="white" stop-opacity="0"/>
        </linearGradient>
    </defs>
</svg>
