<svg width="100" height="41" viewBox="0 0 100 41" fill="none" xmlns="http://www.w3.org/2000/svg">
    <g clip-path="url(#clip0_177_499)">
        <path fill-rule="evenodd" clip-rule="evenodd"
              d="M5.4657 13.8549H9.9618V9.51159H5.55161C1.17006 9.39178 0.454117 10.1107 0.335476 14.9632V16.1913C0.282292 20.5347 1.17006 21.7628 4.40611 21.673H5.20796V25.1476H0.425475V29.491H5.17932C8.61581 29.491 8.84497 29.4311 9.70405 28.3827C10.2768 27.4241 10.3914 26.7951 10.4773 23.8596V22.6315C10.4773 18.408 9.61814 17.2697 6.3821 17.3297H5.4657V13.8549ZM18.4959 13.8549H20.8155V9.51152H11.0501V13.8549H13.3698V29.491H18.4959V13.8549ZM27.0543 29.491H21.9281V13.5853C21.9854 10.0507 22.644 9.51152 27.0869 9.51152H29.1775C33.6163 9.51152 34.275 10.0207 34.3322 13.5853V29.491H29.2062V25.2674H27.0583V29.491H27.0543ZM29.2021 20.8341V15.5622C29.2021 14.2742 28.8584 13.7051 28.1138 13.7051C27.3693 13.7051 27.0543 14.3042 27.0543 15.5622V20.8341H29.2021ZM48.5897 13.3756C48.4465 9.93085 47.8165 9.42163 44.0077 9.51149H36.1897V29.4909H41.3158V21.6729H41.9745C43.0626 21.7028 43.4922 22.2121 43.4636 23.4701V26.136C43.4636 27.5439 43.5781 28.6222 43.8646 29.4909H48.9906C48.7615 28.6522 48.5897 27.454 48.5897 26.136V23.0507C48.647 20.8042 47.931 19.8456 45.7832 19.2466C47.931 19.0668 48.6756 17.8088 48.5897 14.6636V13.3756ZM43.4922 15.6222C43.4922 17.03 43.2345 17.3295 42.0317 17.3295H41.3158V13.8548H42.0317C43.12 13.8548 43.4922 14.3042 43.4922 15.6222ZM62.6551 25.0578C62.7123 29.0416 62.111 29.5809 57.5863 29.491H55.467C50.5986 29.5509 50.255 29.1915 50.3123 24.0992L50.2836 22.5416V16.5508C50.3368 10.0507 50.7664 9.48162 55.4629 9.51157H62.651V14.424C62.0496 14.1245 60.6178 13.9148 58.9281 13.8549H57.1239C55.5489 13.8549 55.4057 14.0047 55.4057 15.6822V22.7812C55.377 24.8781 55.5202 25.1176 56.6944 25.1476H57.5249V20.325C57.5249 19.5162 57.3817 18.8273 57.1239 18.0785H62.651V25.0578H62.6551ZM64.3978 29.491H69.5239V25.2674H71.6717V29.491H76.7979V13.5853C76.7406 10.0207 76.082 9.51152 71.6432 9.51152H69.5526C65.1138 9.51152 64.4551 10.0507 64.3978 13.5853V29.491ZM71.6717 15.5622V20.8341H69.5239V15.5622C69.5239 14.3042 69.839 13.7051 70.5836 13.7051C71.3282 13.7051 71.6717 14.2742 71.6717 15.5622ZM88.4823 9.51152L84.2148 25.1476H88.7973L88.2239 29.491H77.972L82.2965 13.8549H78.0293L78.6306 9.51152H88.4823ZM95.0114 13.8548H99.7364V9.51147H94.9539C90.4864 9.45157 89.9998 10.0507 89.8856 15.9217V22.3019C89.8564 25.2374 90.0856 27.3941 90.4864 28.083C91.2598 29.371 91.5464 29.461 94.9539 29.4909H99.7364V25.1476H95.0114V21.6728H99.7364V17.3295H95.0114V13.8548Z"
              fill="url(#paint0_linear_177_499)"/>
    </g>
    <defs>
        <linearGradient id="paint0_linear_177_499" x1="0.4322" y1="6.08951" x2="104.675" y2="21.0687"
                        gradientUnits="userSpaceOnUse">
            <stop stop-color="#FFF59E"/>
            <stop offset="0.635417" stop-color="#81EFD9"/>
            <stop offset="1" stop-color="#6B9BE3"/>
        </linearGradient>
        <clipPath id="clip0_177_499">
            <rect width="99" height="40" fill="white" transform="translate(0.5 0.499756)"/>
        </clipPath>
    </defs>
</svg>
