<svg width="28" height="29" viewBox="0 0 28 29" fill="none" xmlns="http://www.w3.org/2000/svg">
    <path d="M17.3334 18.3C17.1704 18.1074 17.0889 17.8889 17.0889 17.6444C17.0889 17.4 17.1704 17.1963 17.3334 17.0333L18.9778 15.3889H12.6C12.3482 15.3889 12.1371 15.3037 11.9667 15.1333C11.7963 14.963 11.7111 14.7519 11.7111 14.5C11.7111 14.2481 11.7963 14.037 11.9667 13.8667C12.1371 13.6963 12.3482 13.6111 12.6 13.6111H18.9778L17.3334 11.9667C17.1556 11.7889 17.0667 11.5778 17.0667 11.3333C17.0667 11.0889 17.1556 10.8778 17.3334 10.7C17.4963 10.5222 17.7 10.4333 17.9445 10.4333C18.1889 10.4333 18.3926 10.5148 18.5556 10.6778L21.7556 13.8778C21.8445 13.9667 21.9074 14.063 21.9445 14.1667C21.9815 14.2704 22 14.3815 22 14.5C22 14.6185 21.9815 14.7296 21.9445 14.8333C21.9074 14.937 21.8445 15.0333 21.7556 15.1222L18.5556 18.3222C18.363 18.5148 18.1519 18.6 17.9223 18.5778C17.6926 18.5556 17.4963 18.463 17.3334 18.3ZM8.15559 22.5C7.6667 22.5 7.24818 22.3259 6.90003 21.9778C6.55188 21.6296 6.37781 21.2111 6.37781 20.7222V8.27778C6.37781 7.78889 6.55188 7.37037 6.90003 7.02222C7.24818 6.67407 7.6667 6.5 8.15559 6.5H13.4889C13.7408 6.5 13.9519 6.58519 14.1223 6.75556C14.2926 6.92593 14.3778 7.13704 14.3778 7.38889C14.3778 7.64074 14.2926 7.85185 14.1223 8.02222C13.9519 8.19259 13.7408 8.27778 13.4889 8.27778H8.15559V20.7222H13.4889C13.7408 20.7222 13.9519 20.8074 14.1223 20.9778C14.2926 21.1481 14.3778 21.3593 14.3778 21.6111C14.3778 21.863 14.2926 22.0741 14.1223 22.2444C13.9519 22.4148 13.7408 22.5 13.4889 22.5H8.15559Z"
    />
</svg>
