<svg width="101" height="100" viewBox="0 0 101 100" fill="none" xmlns="http://www.w3.org/2000/svg">
<path d="M29 71.5C29.9167 72.4167 31.0833 72.875 32.5 72.875C33.9167 72.875 35.0833 72.4167 36 71.5L50.5 57L65.125 71.625C66.0417 72.5417 67.1875 72.9792 68.5625 72.9375C69.9375 72.8958 71.0833 72.4167 72 71.5C72.9167 70.5833 73.375 69.4167 73.375 68C73.375 66.5833 72.9167 65.4167 72 64.5L57.5 50L72.125 35.375C73.0417 34.4583 73.4792 33.3125 73.4375 31.9375C73.3958 30.5625 72.9167 29.4167 72 28.5C71.0833 27.5833 69.9167 27.125 68.5 27.125C67.0833 27.125 65.9167 27.5833 65 28.5L50.5 43L35.875 28.375C34.9583 27.4583 33.8125 27.0208 32.4375 27.0625C31.0625 27.1042 29.9167 27.5833 29 28.5C28.0833 29.4167 27.625 30.5833 27.625 32C27.625 33.4167 28.0833 34.5833 29 35.5L43.5 50L28.875 64.625C27.9583 65.5417 27.5208 66.6875 27.5625 68.0625C27.6042 69.4375 28.0833 70.5833 29 71.5ZM50.5 100C43.5833 100 37.0833 98.6875 31 96.0625C24.9167 93.4375 19.625 89.875 15.125 85.375C10.625 80.875 7.0625 75.5833 4.4375 69.5C1.8125 63.4167 0.5 56.9167 0.5 50C0.5 43.0833 1.8125 36.5833 4.4375 30.5C7.0625 24.4167 10.625 19.125 15.125 14.625C19.625 10.125 24.9167 6.5625 31 3.9375C37.0833 1.3125 43.5833 0 50.5 0C57.4167 0 63.9167 1.3125 70 3.9375C76.0833 6.5625 81.375 10.125 85.875 14.625C90.375 19.125 93.9375 24.4167 96.5625 30.5C99.1875 36.5833 100.5 43.0833 100.5 50C100.5 56.9167 99.1875 63.4167 96.5625 69.5C93.9375 75.5833 90.375 80.875 85.875 85.375C81.375 89.875 76.0833 93.4375 70 96.0625C63.9167 98.6875 57.4167 100 50.5 100ZM50.5 90C61.5833 90 71.0208 86.1042 78.8125 78.3125C86.6042 70.5208 90.5 61.0833 90.5 50C90.5 38.9167 86.6042 29.4792 78.8125 21.6875C71.0208 13.8958 61.5833 10 50.5 10C39.4167 10 29.9792 13.8958 22.1875 21.6875C14.3958 29.4792 10.5 38.9167 10.5 50C10.5 61.0833 14.3958 70.5208 22.1875 78.3125C29.9792 86.1042 39.4167 90 50.5 90Z" fill="#EB5757"/>
</svg>
