<svg style="position: absolute; width: 0; height: 0; overflow: hidden;" version="1.1"
     xmlns="http://www.w3.org/2000/svg">
    <defs>
        <symbol id="icon-copy" viewBox="0 0 32 32">
            <path d="M10.133 8.8v-3.6c0-0.318 0.126-0.623 0.351-0.849s0.53-0.351 0.849-0.351h14.4c0.318 0 0.623 0.126 0.849 0.351s0.351 0.53 0.351 0.849v16.8c0 0.318-0.126 0.623-0.351 0.849s-0.53 0.351-0.849 0.351h-3.6v3.6c0 0.662-0.54 1.2-1.208 1.2h-14.383c-0.158 0.001-0.315-0.029-0.462-0.089s-0.28-0.148-0.392-0.26c-0.112-0.112-0.201-0.244-0.262-0.39s-0.092-0.303-0.092-0.461l0.004-16.8c0-0.662 0.54-1.2 1.208-1.2h3.588zM7.737 11.2l-0.004 14.4h12v-14.4h-11.996zM12.533 8.8h9.6v12h2.4v-14.4h-12v2.4z"/>
        </symbol>
        <symbol id="icon-chip-close" viewBox="0 0 32 32">
            <title>Close</title>
            <path fill="#696969" style="fill: var(--color1, #696969)"
                  d="M0 16c0-8.837 7.163-16 16-16v0c8.837 0 16 7.163 16 16v0c0 8.837-7.163 16-16 16v0c-8.837 0-16-7.163-16-16v0z"/>
            <path fill="#f2f2f2" style="fill: var(--color2, #f2f2f2)"
                  d="M22.293 11.572l-1.333-1.333-5.333 5.333-5.333-5.333-1.333 1.333 5.333 5.333-5.333 5.333 1.333 1.333 5.333-5.333 5.333 5.333 1.333-1.333-5.333-5.333 5.333-5.333z"/>
        </symbol>
    </defs>
</svg>
