<svg width="178" height="57" viewBox="0 0 178 57" fill="none" xmlns="http://www.w3.org/2000/svg">
<path d="M17.62 40.8239L17.071 41.1404L17.0714 40.5068C17.0714 40.5068 17.0638 40.8308 17.2101 40.9118C17.3533 40.9911 17.62 40.8239 17.62 40.8239Z" fill="#8E3315"/>
<path d="M3.53296 40.1688C6.62697 46.0191 11.9187 50.4 18.244 52.3491C24.5694 54.2983 31.4102 53.6553 37.2615 50.5614C43.113 47.4676 47.4955 42.1762 49.4454 35.8516C51.3949 29.527 50.7387 22.6868 47.6448 16.8364C50.435 25.6287 40.7213 28.7175 40.7213 28.7175L28.9651 34.8612L16.7471 41.2332C16.7471 41.2332 8.4199 46.5934 3.53296 40.1688Z" fill="#473ADE"/>
<path d="M3.48901 40.2117C6.58301 46.0621 11.8747 50.4438 18.2001 52.393C24.5254 54.3421 31.3662 53.6991 37.2176 50.6053C43.0691 47.5114 47.4516 42.22 49.4012 35.8953C51.3511 29.5707 50.7081 22.7308 47.6142 16.8804C50.4044 25.6726 40.6775 28.7613 40.6775 28.7613L28.9212 34.905L16.7032 41.2768C16.7032 41.2768 8.37602 46.6364 3.48901 40.2117Z" fill="url(#paint0_linear_251_9223)"/>
<path d="M40.7826 28.2754L41.2836 28.5461L40.5713 28.8041C40.5713 28.8041 40.9374 28.6776 40.9897 28.5381C41.0411 28.4015 40.7826 28.2754 40.7826 28.2754Z" fill="#292282"/>
<path d="M47.7959 39.909C50.8173 34.0208 51.3752 27.1735 49.3473 20.8735C47.3195 14.5734 42.8718 9.33684 36.9826 6.31554C31.0934 3.29424 24.2452 2.73579 17.9444 4.76304C11.6437 6.79028 6.40662 11.2372 3.38525 17.1254C8.9918 9.80024 17.0978 16 17.0978 16L28.8707 22.1118L41.095 28.4711C41.095 28.4711 50.2601 32.2226 47.7959 39.909Z" fill="#D71D6A"/>
<path d="M47.7355 39.8838C50.7479 34.0131 51.3043 27.1862 49.2827 20.9049C47.2606 14.6237 42.8263 9.40264 36.9546 6.39037C31.0829 3.37804 24.2551 2.82128 17.9731 4.84245C11.6912 6.86369 6.46966 11.2973 3.45728 17.1681C9.04707 9.86468 17.129 16.046 17.129 16.046L28.8668 22.1395L41.0549 28.48C41.0549 28.48 50.1923 32.2203 47.7355 39.8838Z" fill="url(#paint1_linear_251_9223)"/>
<path d="M17.0752 16.5916L17.0649 15.9282L17.6447 16.251C17.6447 16.251 17.352 16.0791 17.2034 16.1717C17.0579 16.2624 17.0752 16.5916 17.0752 16.5916Z" fill="#741039"/>
<path d="M25.5924 3.55859C18.9737 3.55859 12.6262 6.18779 7.94606 10.8677C3.26597 15.5477 0.636719 21.8952 0.636719 28.5137C0.636719 35.1322 3.26597 41.4796 7.94606 46.1598C12.6262 50.8398 18.9737 53.4689 25.5924 53.4689C17.0979 52.0426 17.0979 41.0384 17.0979 41.0384V28.5137V15.7674C17.0979 15.7674 17.0979 5.07885 25.5924 3.55859Z" fill="#FF5B25"/>
<path d="M25.5924 3.5C18.9737 3.5 12.6262 6.12919 7.94606 10.8092C3.26597 15.4892 0.636719 21.8366 0.636719 28.4551C0.636719 35.0736 3.26597 41.421 7.94606 46.1011C12.6262 50.7811 18.9737 53.4102 25.5924 53.4102C17.0979 50.6965 17.0979 41.0517 17.0979 41.0517V28.4859V16.0002C17.0979 16.0002 16.7888 5.11712 25.5924 3.5Z" fill="url(#paint2_linear_251_9223)"/>
<path d="M25.5269 53.4569C17.098 49.6179 17.1079 41.0475 17.1079 41.0475C17.1079 41.0475 6.66065 46.9405 3.14355 39.4033C3.14355 39.4033 9.03937 53.5068 25.5269 53.4569Z" fill="#473ADE"/>
<path d="M69.1035 21.8869C68.2697 21.8869 67.5402 22.0632 66.9149 22.416C66.2896 22.7687 65.7605 23.2497 65.3276 23.859C64.9107 24.4683 64.59 25.1738 64.3655 25.9755C64.1571 26.7771 64.0529 27.6189 64.0529 28.5008C64.0529 29.3345 64.1571 30.1522 64.3655 30.9539C64.59 31.7395 64.9107 32.445 65.3276 33.0703C65.7605 33.6796 66.2896 34.1767 66.9149 34.5615C67.5402 34.9302 68.2697 35.1146 69.1035 35.1146C69.7609 35.1146 70.3942 34.9703 71.0035 34.6817C71.6128 34.3771 72.1499 33.9442 72.6149 33.383C73.0798 32.8218 73.4486 32.1324 73.7212 31.3147C74.0098 30.4969 74.1541 29.559 74.1541 28.5008C74.1541 27.5548 74.0338 26.6809 73.7933 25.8792C73.5689 25.0615 73.2402 24.3641 72.8073 23.7869C72.3744 23.1936 71.8452 22.7286 71.2199 22.3919C70.5946 22.0552 69.8891 21.8869 69.1035 21.8869ZM69.1035 37.5918C67.7086 37.5918 66.474 37.3593 65.3997 36.8944C64.3255 36.4294 63.4115 35.7961 62.658 34.9944C61.9204 34.1767 61.3592 33.2146 60.9744 32.1083C60.5896 31.002 60.3972 29.7995 60.3972 28.5008C60.3972 27.2501 60.5896 26.0717 60.9744 24.9653C61.3753 23.859 61.9445 22.897 62.682 22.0793C63.4356 21.2455 64.3495 20.5962 65.4238 20.1312C66.498 19.6502 67.7246 19.4097 69.1035 19.4097C70.6748 19.4097 72.0056 19.6822 73.0959 20.2274C74.2022 20.7725 75.1001 21.486 75.7895 22.3679C76.495 23.2337 77.0001 24.2117 77.3047 25.302C77.6254 26.3763 77.7857 27.4425 77.7857 28.5008C77.7857 29.6872 77.5933 30.8256 77.2085 31.9159C76.8237 33.0062 76.2625 33.9762 75.525 34.826C74.8035 35.6598 73.8976 36.3332 72.8073 36.8463C71.733 37.3433 70.4984 37.5918 69.1035 37.5918Z" fill="white"/>
<path d="M81.8036 19.7704H86.1568L89.9808 33.2627L90.1492 34.1286L90.3416 33.2627L94.1416 19.7704H98.5187L100.154 37.2551H97.0036L96.0656 24.0755L95.9934 22.921L95.7048 24.0755L91.9049 37.0146H88.3694L84.5214 24.0514L84.2327 22.921L84.1606 24.0514L83.2707 37.2551H80.1201L81.8036 19.7704Z" fill="white"/>
<path d="M107.5 25.0134L107.115 24.1476L107.163 24.9653V37.2551H104.229V19.7704H107.548L114.931 31.5311L115.268 32.4931L115.22 31.5311V19.7704H118.25V37.2551H115.22L107.5 25.0134Z" fill="white"/>
<path d="M126.026 37.2551H122.683V19.7704H126.026V37.2551Z" fill="white"/>
<path d="M130.035 19.7704H140.521V22.2476H133.474V37.2551H130.035V19.7704ZM134.388 29.2944C134.468 29.0379 134.572 28.7653 134.7 28.4767C134.829 28.1881 134.989 27.9235 135.181 27.683C135.374 27.4425 135.598 27.2501 135.855 27.1058C136.127 26.9455 136.44 26.8653 136.793 26.8653H139.703V29.2944H134.388Z" fill="white"/>
<path d="M144.056 19.7704H147.519V34.7539H153.82V37.2551H144.056V19.7704Z" fill="white"/>
<path d="M160.2 37.2551H156.857V19.7704H160.2V37.2551Z" fill="white"/>
<path d="M163.174 19.7704H166.974L169.932 25.5185L170.172 26.2641L170.365 25.5185L173.323 19.7704H177.099L171.88 28.4045L177.364 37.2551H173.636L163.174 19.7704ZM166.589 37.2551H162.909L167.671 29.4387C167.816 29.6472 167.984 29.9197 168.176 30.2564C168.369 30.5931 168.521 30.9619 168.633 31.3628C168.761 31.7476 168.826 32.1564 168.826 32.5893C168.842 33.0062 168.745 33.399 168.537 33.7678L166.589 37.2551Z" fill="white"/>
<defs>
<linearGradient id="paint0_linear_251_9223" x1="47.6162" y1="25.6666" x2="11.3081" y2="61.5183" gradientUnits="userSpaceOnUse">
<stop stop-opacity="0.6"/>
<stop offset="0.655513" stop-opacity="0"/>
</linearGradient>
<linearGradient id="paint1_linear_251_9223" x1="10.6354" y1="12.1458" x2="60.6757" y2="21.3273" gradientUnits="userSpaceOnUse">
<stop stop-opacity="0.6"/>
<stop offset="0.645833" stop-opacity="0"/>
</linearGradient>
<linearGradient id="paint2_linear_251_9223" x1="14.0012" y1="50.319" x2="-0.842288" y2="4.59518" gradientUnits="userSpaceOnUse">
<stop stop-opacity="0.6"/>
<stop offset="0.675464" stop-opacity="0"/>
</linearGradient>
</defs>
</svg>
