<svg width="98" height="45" viewBox="0 0 98 45" fill="none" xmlns="http://www.w3.org/2000/svg">
<g clip-path="url(#clip0_42_2470)">
<path d="M11.5917 30.6245L11.2181 30.8353L11.2184 30.4131C11.2184 30.4131 11.2132 30.629 11.3127 30.683C11.4102 30.7359 11.5917 30.6245 11.5917 30.6245Z" fill="#8E3315"/>
<path d="M2.00333 30.1891C4.10926 34.0871 7.71109 37.0061 12.0164 38.3048C16.3217 39.6035 20.9778 39.1749 24.9606 37.1135C28.9433 35.052 31.9263 31.5266 33.2535 27.3125C34.5805 23.0986 34.1339 18.5412 32.028 14.6431C33.927 20.5013 27.3155 22.5593 27.3155 22.5593L19.3137 26.6528L10.9975 30.8982C10.9975 30.8982 5.32962 34.4696 2.00333 30.1891Z" fill="#473ADE"/>
<path d="M1.97348 30.2178C4.07941 34.1158 7.68119 37.0353 11.9866 38.334C16.2918 39.6327 20.948 39.2041 24.9307 37.1427C28.9135 35.0813 31.8965 31.5558 33.2236 27.3418C34.5507 23.1279 34.1131 18.5705 32.0072 14.6725C33.9062 20.5306 27.2857 22.5885 27.2857 22.5885L19.2839 26.682L10.9677 30.9275C10.9677 30.9275 5.29978 34.4983 1.97348 30.2178Z" fill="url(#paint0_linear_42_2470)"/>
<path d="M27.1023 22.153L27.7201 22.4469L27.068 22.703C27.068 22.703 27.3478 22.5737 27.3812 22.4469C27.4139 22.3228 27.1023 22.153 27.1023 22.153Z" fill="#251E73"/>
<path d="M32.1311 30.0152C34.1876 26.092 34.5675 21.5297 33.1873 17.3321C31.807 13.1346 28.7796 9.64545 24.7712 7.63244C20.7627 5.61938 16.1015 5.24729 11.8129 6.59802C7.52427 7.94874 3.95968 10.9117 1.9032 14.8349C5.71927 9.95424 11.2366 14.085 11.2366 14.085L19.2498 18.1572L27.5704 22.3943C27.5704 22.3943 33.8084 24.8939 32.1311 30.0152Z" fill="#D71D6A"/>
<path d="M32.0904 29.999C34.1407 26.0875 34.5195 21.5388 33.1434 17.3538C31.7672 13.1687 28.7489 9.68996 24.7523 7.68295C20.7558 5.67588 16.1084 5.3049 11.8327 6.6516C7.55682 7.99831 4.00285 10.9523 1.95248 14.864C5.75719 9.99781 11.2581 14.1163 11.2581 14.1163L19.2474 18.1763L27.5432 22.4008C27.5432 22.4008 33.7627 24.893 32.0904 29.999Z" fill="url(#paint1_linear_42_2470)"/>
<path d="M11.2208 14.479L11.2138 14.037L11.6084 14.2522C11.6084 14.2522 11.4092 14.1376 11.3081 14.1993C11.2091 14.2597 11.2208 14.479 11.2208 14.479Z" fill="#741039"/>
<path d="M17.0181 5.79517C12.5132 5.79517 8.19267 7.54694 5.00717 10.6652C1.82167 13.7834 0.0320741 18.0125 0.032074 22.4223C0.0320738 26.8321 1.82167 31.0613 5.00716 34.1795C8.19267 37.2977 12.5073 39.041 17.0122 39.041C11.2305 38.0909 11.2363 30.7673 11.2363 30.7673V22.4223V13.9297C11.2363 13.9297 11.2363 6.8081 17.0181 5.79517Z" fill="#FF5B25"/>
<path d="M17.0181 5.75635C12.5132 5.75635 8.19267 7.50813 5.00717 10.6263C1.82167 13.7445 0.0320743 17.9737 0.032074 22.3835C0.0320736 26.7933 1.82167 31.0225 5.00716 34.1407C8.19267 37.2589 12.5073 39.0421 17.0122 39.0421C11.2305 37.2339 11.2363 30.7764 11.2363 30.7764V22.4041V14.0851C11.2363 14.0851 11.026 6.83384 17.0181 5.75635Z" fill="url(#paint2_linear_42_2470)"/>
<path d="M17.0181 5.75635C12.5132 5.75635 8.19267 7.50813 5.00717 10.6263C1.82167 13.7445 0.0320743 17.9737 0.032074 22.3835C0.0320736 26.7933 1.82167 31.0225 5.00716 34.1407C8.19267 37.2589 12.5073 39.0421 17.0122 39.0421C11.2305 37.2339 11.2363 30.7764 11.2363 30.7764V22.4041V14.0851C11.2363 14.0851 11.026 6.83384 17.0181 5.75635Z" fill="url(#paint3_linear_42_2470)" fill-opacity="0.3"/>
<path d="M17.0118 39.0411C11.2746 36.4832 11.2427 30.7739 11.2427 30.7739C11.2427 30.7739 4.13178 34.7001 1.73788 29.6784C1.73788 29.6784 5.7896 39.0744 17.0118 39.0411Z" fill="#473ADE"/>
<g filter="url(#filter0_d_42_2470)">
<path d="M45.0659 18.2447C44.5974 18.2447 44.2225 18.3568 43.9415 18.581C43.6603 18.8052 43.5197 19.0906 43.5197 19.4371C43.5197 19.7836 43.6499 20.0843 43.9102 20.339C44.1809 20.5938 44.5089 20.8333 44.8942 21.0575C45.2898 21.2817 45.7167 21.5111 46.1748 21.7455C46.6433 21.9798 47.0702 22.2499 47.4555 22.5557C47.8511 22.8614 48.1791 23.2232 48.4394 23.641C48.7101 24.0589 48.8455 24.5633 48.8455 25.1545C48.8455 25.6436 48.7466 26.0818 48.5487 26.4691C48.3613 26.8462 48.0906 27.1673 47.7366 27.4322C47.393 27.687 46.9765 27.8857 46.4872 28.0284C45.9978 28.1609 45.4564 28.2271 44.8629 28.2271C44.4151 28.2271 43.8946 28.166 43.3011 28.0437C42.718 27.9316 42.0673 27.7125 41.3488 27.3863L41.9423 25.9647C42.5046 26.2296 43.0304 26.4131 43.5197 26.515C44.0195 26.6067 44.4672 26.6525 44.8629 26.6525C45.144 26.6525 45.3991 26.6169 45.6282 26.5456C45.8677 26.464 46.0707 26.357 46.2373 26.2246C46.4143 26.092 46.5496 25.9392 46.6433 25.7659C46.737 25.5927 46.7839 25.4041 46.7839 25.2003C46.7839 24.8334 46.6537 24.5175 46.3935 24.2525C46.1332 23.9875 45.8052 23.7429 45.4095 23.5187C45.0139 23.2843 44.5869 23.055 44.1288 22.8308C43.6811 22.6066 43.2594 22.3518 42.8638 22.0664C42.4681 21.771 42.1401 21.4295 41.8798 21.0422C41.6196 20.6448 41.4894 20.1709 41.4894 19.6206C41.4894 19.1212 41.5779 18.6881 41.7549 18.3212C41.9423 17.9543 42.1922 17.6536 42.5046 17.4192C42.8169 17.1849 43.1814 17.0116 43.5978 16.8995C44.0143 16.7772 44.4568 16.716 44.9254 16.716C45.1648 16.716 45.3939 16.7262 45.6125 16.7466C45.8416 16.7568 46.0759 16.7822 46.3154 16.823C46.5652 16.8536 46.8204 16.9046 47.0806 16.9759C47.3514 17.0371 47.6533 17.1185 47.9865 17.2205L47.4087 18.6116C46.9401 18.4791 46.5184 18.3874 46.1436 18.3364C45.7687 18.2753 45.4095 18.2447 45.0659 18.2447Z" fill="white"/>
<path d="M49.6445 18.4893V16.9147H57.7971V18.4893H54.8297V28.0284H52.6119V18.4893H49.6445Z" fill="white"/>
<path d="M63.7502 28.2424C63.0526 28.2424 62.4226 28.1456 61.8604 27.9519C61.2982 27.7583 60.8192 27.4729 60.4235 27.0959C60.0383 26.7188 59.7364 26.2551 59.5177 25.7048C59.3094 25.1442 59.2053 24.5022 59.2053 23.7786V16.9147H61.4075V24.0079C61.4075 24.4257 61.4648 24.7977 61.5793 25.1238C61.7042 25.4499 61.8708 25.7302 62.0791 25.9646C62.2873 26.1889 62.532 26.3621 62.8131 26.4844C63.1047 26.6067 63.417 26.6678 63.7502 26.6678C64.0834 26.6678 64.3905 26.6067 64.6717 26.4844C64.9632 26.3621 65.2131 26.1889 65.4213 25.9646C65.6296 25.7302 65.791 25.4499 65.9055 25.1238C66.0304 24.7977 66.0929 24.4257 66.0929 24.0079V16.9147H68.2794V23.7786C68.2794 24.4512 68.1753 25.0627 67.9671 25.613C67.7588 26.1634 67.4569 26.6373 67.0612 27.0347C66.676 27.422 66.2022 27.7226 65.64 27.9366C65.0777 28.1405 64.4478 28.2424 63.7502 28.2424Z" fill="white"/>
<path d="M74.9262 26.6373C75.5195 26.6373 76.0294 26.515 76.4567 26.2704C76.8936 26.0258 77.253 25.7048 77.5341 25.3073C77.8153 24.9098 78.0182 24.4614 78.1429 23.9621C78.2787 23.4627 78.3459 22.9582 78.3459 22.4486C78.3459 21.8474 78.2632 21.2919 78.0965 20.7824C77.94 20.2728 77.6906 19.8346 77.3467 19.4677C77.0028 19.1008 76.5608 18.8155 76.0191 18.6116C75.4878 18.3976 74.848 18.2906 74.0982 18.2906C73.8901 18.2906 73.6712 18.3008 73.4422 18.3212C73.2235 18.3416 72.9945 18.3721 72.755 18.4129V28.0284H70.5528V17.1135C71.2505 16.9708 71.9012 16.8689 72.5051 16.8077C73.109 16.7466 73.64 16.716 74.0982 16.716C75.1395 16.716 76.0663 16.8485 76.8781 17.1135C77.7009 17.3683 78.3931 17.7402 78.9554 18.2295C79.5281 18.7186 79.9598 19.3199 80.2513 20.0333C80.5538 20.7365 80.7044 21.5416 80.7044 22.4486C80.7044 23.2538 80.5642 24.008 80.283 24.7111C80.0018 25.4144 79.6166 26.0258 79.1274 26.5456C78.6381 27.0654 78.0492 27.473 77.3622 27.7685C76.6855 28.0641 75.9512 28.2119 75.1601 28.2119C75.014 28.2119 74.879 28.2068 74.7543 28.1966C74.6399 28.1966 74.5144 28.1864 74.3794 28.166C74.2436 28.1457 74.0931 28.1202 73.9263 28.0896C73.7701 28.059 73.5775 28.0131 73.3485 27.952C73.4109 27.8195 73.489 27.6768 73.5827 27.524C73.6764 27.3711 73.7858 27.2284 73.9108 27.0959C74.0355 26.9634 74.1816 26.8564 74.3477 26.7749C74.5144 26.6832 74.707 26.6373 74.9262 26.6373Z" fill="white"/>
<path d="M84.3912 28.0284H82.2209V16.9147H84.3912V28.0284Z" fill="white"/>
<path d="M92.0238 18.26C91.4822 18.26 91.0084 18.3721 90.6025 18.5963C90.1959 18.8205 89.8528 19.1263 89.5716 19.5135C89.3008 19.9008 89.0927 20.3492 88.9465 20.8588C88.8115 21.3683 88.7436 21.9034 88.7436 22.4639C88.7436 22.9939 88.8115 23.5137 88.9465 24.0232C89.0927 24.5226 89.3008 24.971 89.5716 25.3685C89.8528 25.7557 90.1959 26.0716 90.6025 26.3162C91.0084 26.5506 91.4822 26.6678 92.0238 26.6678C92.4503 26.6678 92.8614 26.5761 93.2569 26.3927C93.6532 26.1991 94.0015 25.9239 94.3033 25.5672C94.6059 25.2105 94.845 24.7723 95.0221 24.2525C95.2095 23.7327 95.3033 23.1365 95.3033 22.4639C95.3033 21.8626 95.225 21.3072 95.0693 20.7976C94.9232 20.2778 94.71 19.8346 94.4288 19.4677C94.1476 19.0906 93.8037 18.795 93.3979 18.581C92.992 18.367 92.5337 18.26 92.0238 18.26ZM92.0238 28.2424C91.1176 28.2424 90.3162 28.0946 89.6181 27.7991C88.9207 27.5036 88.3274 27.101 87.8382 26.5914C87.3592 26.0716 86.9947 25.4601 86.7445 24.757C86.4943 24.0538 86.3696 23.2894 86.3696 22.4639C86.3696 21.669 86.4943 20.9199 86.7445 20.2167C87.005 19.5135 87.3747 18.9021 87.8536 18.3823C88.3429 17.8523 88.9362 17.4396 89.6336 17.144C90.3317 16.8383 91.1279 16.6854 92.0238 16.6854C93.0437 16.6854 93.9078 16.8587 94.6162 17.2052C95.3343 17.5517 95.9172 18.0052 96.3652 18.5657C96.8234 19.1161 97.1511 19.7378 97.3489 20.4308C97.5577 21.1136 97.6618 21.7913 97.6618 22.4639C97.6618 23.2181 97.5363 23.9417 97.2869 24.6347C97.0367 25.3277 96.6722 25.9442 96.1932 26.4844C95.7246 27.0143 95.1365 27.4424 94.4288 27.7685C93.7307 28.0844 92.9293 28.2424 92.0238 28.2424Z" fill="white"/>
</g>
</g>
<defs>
<filter id="filter0_d_42_2470" x="37.3488" y="16.6854" width="64.3129" height="19.557" filterUnits="userSpaceOnUse" color-interpolation-filters="sRGB">
<feFlood flood-opacity="0" result="BackgroundImageFix"/>
<feColorMatrix in="SourceAlpha" type="matrix" values="0 0 0 0 0 0 0 0 0 0 0 0 0 0 0 0 0 0 127 0" result="hardAlpha"/>
<feOffset dy="4"/>
<feGaussianBlur stdDeviation="2"/>
<feColorMatrix type="matrix" values="0 0 0 0 0 0 0 0 0 0 0 0 0 0 0 0 0 0 0.25 0"/>
<feBlend mode="normal" in2="BackgroundImageFix" result="effect1_dropShadow_42_2470"/>
<feBlend mode="normal" in="SourceGraphic" in2="effect1_dropShadow_42_2470" result="shape"/>
</filter>
<linearGradient id="paint0_linear_42_2470" x1="32.0084" y1="20.5266" x2="7.81603" y2="44.9299" gradientUnits="userSpaceOnUse">
<stop stop-opacity="0.6"/>
<stop offset="0.655513" stop-opacity="0"/>
</linearGradient>
<linearGradient id="paint1_linear_42_2470" x1="6.83825" y1="11.5177" x2="40.8498" y2="17.8927" gradientUnits="userSpaceOnUse">
<stop stop-opacity="0.6"/>
<stop offset="0.645833" stop-opacity="0"/>
</linearGradient>
<linearGradient id="paint2_linear_42_2470" x1="9.12862" y1="36.951" x2="-0.591358" y2="6.36427" gradientUnits="userSpaceOnUse">
<stop stop-opacity="0.6"/>
<stop offset="0.675464" stop-opacity="0"/>
</linearGradient>
<linearGradient id="paint3_linear_42_2470" x1="9.12862" y1="36.951" x2="-0.591358" y2="6.36427" gradientUnits="userSpaceOnUse">
<stop stop-opacity="0.6"/>
<stop offset="0.675464" stop-opacity="0"/>
</linearGradient>
<clipPath id="clip0_42_2470">
<rect width="98" height="45" fill="white"/>
</clipPath>
</defs>
</svg>
