<svg width="97" height="100" viewBox="0 0 97 100" fill="none" xmlns="http://www.w3.org/2000/svg">
    <path d="M47.3215 0.859767C48.0238 0.347493 48.9765 0.347494 49.6788 0.859767L61.105 9.19465C61.4483 9.44509 61.8625 9.57966 62.2875 9.57885L76.4305 9.55193C77.2998 9.55027 78.0706 10.1103 78.3376 10.9375L82.6825 24.3968C82.813 24.8012 83.069 25.1536 83.4133 25.4027L94.871 33.694C95.5752 34.2036 95.8697 35.1097 95.5995 35.9359L91.2035 49.3783C91.0714 49.7823 91.0714 50.2177 91.2035 50.6217L95.5995 64.0641C95.8697 64.8903 95.5752 65.7964 94.871 66.306L83.4133 74.5973C83.069 74.8464 82.813 75.1988 82.6825 75.6032L78.3376 89.0624C78.0706 89.8896 77.2998 90.4496 76.4305 90.448L62.2874 90.4212C61.8625 90.4204 61.4483 90.555 61.105 90.8054L49.6788 99.1403C48.9765 99.6525 48.0238 99.6525 47.3215 99.1402L35.8953 90.8054C35.552 90.555 35.1378 90.4204 34.7128 90.4212L20.5697 90.448C19.7005 90.4496 18.9297 89.8896 18.6627 89.0624L14.3178 75.6032C14.1872 75.1988 13.9313 74.8464 13.587 74.5973L2.12918 66.306C1.42496 65.7964 1.13055 64.8903 1.40074 64.0641L5.7968 50.6217C5.92889 50.2177 5.92889 49.7823 5.7968 49.3783L1.40074 35.9359C1.13055 35.1097 1.42496 34.2036 2.12918 33.694L13.587 25.4027C13.9313 25.1536 14.1872 24.8012 14.3178 24.3968L18.6627 10.9375C18.9297 10.1103 19.7005 9.55027 20.5698 9.55193L34.7128 9.57885C35.1378 9.57966 35.552 9.44509 35.8953 9.19465L47.3215 0.859767Z"
          fill="#27AE60"/>
    <path d="M31.0156 50L43.5156 62.5L68.5156 37.5" stroke="white" stroke-width="4" stroke-linecap="round"
          stroke-linejoin="round"/>
</svg>
